<?xml version="1.0" encoding="utf-8"?>
<!-- Generator: Adobe Illustrator 16.0.3, SVG Export Plug-In . SVG Version: 6.00 Build 0)  -->
<!DOCTYPE svg PUBLIC "-//W3C//DTD SVG 1.1//EN" "http://www.w3.org/Graphics/SVG/1.1/DTD/svg11.dtd">
<svg version="1.1" id="Layer_1" xmlns="http://www.w3.org/2000/svg" xmlns:xlink="http://www.w3.org/1999/xlink" x="0px" y="0px"
	 width="289.67px" height="289.669px" viewBox="0 0 289.67 289.669" enable-background="new 0 0 289.67 289.669"
	 xml:space="preserve">
<circle fill="#EE7D00" cx="144.835" cy="144.835" r="144.835"/>
<g>
	<defs>
		<circle id="SVGID_1_" cx="144.835" cy="144.835" r="144.835"/>
	</defs>
	<clipPath id="SVGID_2_">
		<use xlink:href="#SVGID_1_"  overflow="visible"/>
	</clipPath>
	<g clip-path="url(#SVGID_2_)">
		<path fill="#C16000" d="M76.46,117.852c0-6.261,0-12.522,0-18.784c1.45-1.192,1.215-3.028,1.68-4.573
			c4.443-14.765,13.604-24.475,29.099-27.616c1.69-0.343,3.69,0.581,5.083-1.11c0.854,0,1.707,0,2.562,0
			c0.187,0.644,0.674,0.829,1.277,0.833c8.74,0.05,16.664,2.923,24.085,7.255c3.839,2.241,7.345,2.197,11.129-0.061
			c6.012-3.585,12.49-5.95,19.456-7.001c1.553-0.234,3.419,0.626,4.675-1.025c1.139,0,2.276,0,3.415,0
			c0.188,0.647,0.679,0.814,1.284,0.833c10.274,0.313,18.464,5.068,25.517,12.118c60.577,60.559,121.137,121.135,181.706,181.701
			c7.147,7.147,11.63,15.634,13.29,25.646c0.233,1.406-0.639,3.191,1.054,4.26c0,2.846,0,5.692,0,8.538
			c-1.322,0.479-0.789,1.67-0.921,2.556c-1.008,6.787-2.852,13.299-5.799,19.527c-0.988,2.086-2.131,3.001-4.5,2.874
			c-3.746-0.202-7.511-0.054-11.486-0.054c0.946,3.145,5.206,3.998,3.717,7.628c-1.066,2.596-0.899,4.642,1.283,6.877
			c1.748,1.792,1.128,4.754,0.457,6.934c-0.484,1.571-2.801,0.539-4.286,0.752c-1.698,0.243-3.548-0.485-5.883,0.967
			c3.994,1.595,3.323,4.305,2.367,6.911c-0.824,2.244-0.705,3.971,1.192,5.705c2.203,2.015,1.561,4.924,0.915,7.228
			c-0.641,2.283-3.2,0.827-4.885,1.141c-1.544,0.288-3.262-0.431-5.13,0.787c3.381,1.861,3.074,4.463,2.051,7.094
			c-0.855,2.196-0.793,3.896,1.026,5.743c2.009,2.04,1.286,4.992,0.688,7.288c-0.484,1.861-2.987,0.9-4.577,0.934
			c-5.213,0.109-10.428,0.041-16.021,0.041c4.292,5.95,4.24,6.633-0.392,12.22c-2.207,2.663-4.802,4.861-7.934,6.33
			c-2.498,1.173-5.083,2.157-7.629,3.226c-2.847,0-5.692,0-8.539,0c-10.669-3.2-17.681-11.293-25.016-18.886
			c-2.053-2.126-4.166-3.306-7.096-2.88c-2.472,0.359-4.185-0.7-5.936-2.461c-20.038-20.158-40.162-40.229-60.271-60.318
			c-40.518-40.478-81.043-80.949-121.559-121.428c-3.208-3.206-3.263-6.604-0.097-9.804c0.909-0.918,0.457-1.817,0.373-2.748
			c-0.418-4.581-4.069-6.968-6.831-9.931c-3.469-3.722-2.732-8.108,1.565-9.631c-0.015-5.052-3.087-8.267-6.523-11.402
			c-3.865-3.524-3.657-6.862,0.322-10.108c0.986-0.804,0.444-1.522-0.098-2.128c-1.137-1.268-2.374-2.445-3.567-3.665
			c-4.83-4.943-10.12-9.394-12.368-16.462C79.128,125.765,78.838,121.441,76.46,117.852z"/>
	</g>
</g>
<g>
	<path fill="#FFFFFF" d="M206.391,136.511c3.986-7.614,7.566-17.182,7.566-29.603c0-23.862-15.499-41.179-36.855-41.179
		c-12.813,0-20.08,3.876-25.386,6.707c-6.426,3.428-7.336,3.428-13.76,0c-5.309-2.831-12.576-6.707-25.389-6.707
		c-21.355,0-36.854,17.317-36.854,41.179c0,12.42,3.58,21.988,7.567,29.603H206.391z"/>
	<g>
		<polygon fill="#FFFFFF" points="193.507,151.566 196.153,141.689 94.229,141.689 96.755,151.566 92.741,151.566 92.741,158.812 
			197.641,158.812 197.641,151.566 		"/>
		<polygon fill="#FFFFFF" points="190.594,162.435 99.535,162.435 102.342,173.409 98.419,173.409 98.419,180.656 191.961,180.656 
			191.961,173.409 187.653,173.409 		"/>
		<path fill="#FFFFFF" d="M182.276,193.469l2.464-9.19h-79.617l2.35,9.19c0,0.599,0.021,1.193,0.049,1.785h-2.95v7.246h81.237
			v-7.246h-3.58C182.257,194.663,182.276,194.068,182.276,193.469z"/>
		<path fill="#FFFFFF" d="M144.875,223.939c10.984,0,20.335-6.991,23.848-16.766h-47.697
			C124.541,216.948,133.891,223.939,144.875,223.939z"/>
	</g>
</g>
<g>
	<path fill="#FFFFFF" d="M206.391,136.511c3.986-7.614,7.566-17.182,7.566-29.603c0-23.862-15.499-41.179-36.855-41.179
		c-12.813,0-20.08,3.876-25.386,6.707c-6.426,3.428-7.336,3.428-13.76,0c-5.309-2.831-12.576-6.707-25.389-6.707
		c-21.355,0-36.854,17.317-36.854,41.179c0,12.42,3.58,21.988,7.567,29.603H206.391z"/>
	<g>
		<polygon fill="#FFFFFF" points="193.507,151.566 196.153,141.689 94.229,141.689 96.755,151.566 92.741,151.566 92.741,158.812 
			197.641,158.812 197.641,151.566 		"/>
		<polygon fill="#FFFFFF" points="190.594,162.435 99.535,162.435 102.342,173.409 98.419,173.409 98.419,180.656 191.961,180.656 
			191.961,173.409 187.653,173.409 		"/>
		<path fill="#FFFFFF" d="M182.276,193.469l2.464-9.19h-79.617l2.35,9.19c0,0.599,0.021,1.193,0.049,1.785h-2.95v7.246h81.237
			v-7.246h-3.58C182.257,194.663,182.276,194.068,182.276,193.469z"/>
		<path fill="#FFFFFF" d="M144.875,223.939c10.984,0,20.335-6.991,23.848-16.766h-47.697
			C124.541,216.948,133.891,223.939,144.875,223.939z"/>
	</g>
</g>
</svg>
