<?xml version="1.0" encoding="utf-8"?>
<!-- Generator: Adobe Illustrator 16.0.3, SVG Export Plug-In . SVG Version: 6.00 Build 0)  -->
<!DOCTYPE svg PUBLIC "-//W3C//DTD SVG 1.1//EN" "http://www.w3.org/Graphics/SVG/1.1/DTD/svg11.dtd">
<svg version="1.1" id="Layer_1" xmlns="http://www.w3.org/2000/svg" xmlns:xlink="http://www.w3.org/1999/xlink" x="0px" y="0px"
	 width="289.67px" height="289.669px" viewBox="0 0 289.67 289.669" enable-background="new 0 0 289.67 289.669"
	 xml:space="preserve">
<circle fill="#EE7D00" cx="144.835" cy="144.835" r="144.835"/>
<g>
	<defs>
		<circle id="SVGID_1_" cx="144.835" cy="144.835" r="144.835"/>
	</defs>
	<clipPath id="SVGID_2_">
		<use xlink:href="#SVGID_1_"  overflow="visible"/>
	</clipPath>
	<g clip-path="url(#SVGID_2_)">
		<path fill="#C16000" d="M174.72,102.483c2.276,0,4.555,0,6.831,0c0.542,1.231,1.697,0.771,2.606,0.904
			c7.562,1.103,14.078,4.288,19.496,9.69c1.714,1.708,3.509,3.342,5.115,5.146c1.806,2.028,2.761,2.573,4.282-0.551
			c4.32-8.881,11.854-13.114,21.6-13.457c8.849-0.31,16.172,2.803,22.526,9.175c59.775,59.941,119.64,119.792,179.577,179.572
			c4.713,4.7,8.559,9.697,10.339,16.149c0,3.984,0,7.969,0,11.954c-2.521,0.227-4.92,0.847-7.627,2.188
			c2.716,2.566,5.172,4.885,7.627,7.205c0,5.408,0,10.815,0,16.223c-2.213,4.92-4.813,9.459-9.655,12.421
			c-9.986,6.106-29.921,8.037-39.681-3.577c-0.408-0.486-0.92-1.117-1.749-0.631c-1.556,12.163-5.538,16.356-17.642,18.823
			c-1.283,0.261-2.916-0.375-3.85,1.141c-7.115,0-14.229,0-21.346,0c-0.299-0.841-1.048-0.825-1.737-0.909
			c-7.373-0.886-13.515-4.07-18.403-9.698c-0.678-0.781-1.281-1.878-2.695-1.843c-2.662,6.377-7.872,9.342-14.304,10.87
			c-2.133,0.507-4.528,0.051-6.406,1.58c-6.83,0-13.661,0-20.491,0c-0.174-0.211-0.334-0.596-0.521-0.607
			c-9.956-0.696-17.115-6.229-23.321-13.426c-1.259-1.459-2.224-2.323-4.528-0.964c-12.365,7.286-29.799,4.973-40.178-5.394
			c-61.062-60.977-122.06-122.018-183.078-183.039c-3.288-3.288-5.661-7.088-6.506-11.733c-0.044-3.975,0.03-7.956-0.171-11.922
			c-0.169-3.333,1.079-3.823,4.046-2.869c2.247,0.724,4.583,1.693,7.529,1.428c-2.32-2.407-4.389-4.334-6.19-6.485
			c-1.714-2.047-4.407-3.354-5.188-6.078c-3.351-11.7,3.272-24.354,14.906-28.01c10.118-3.18,19.663-2.087,27.89,5.227
			c2.65,2.355,5.177,4.859,7.649,7.402c1.461,1.504,2.245,2.072,3.524-0.372c4.083-7.803,10.865-12.042,19.295-14.087
			c1.837-0.445,4.018,0.231,5.535-1.443c2.277,0,4.554,0,6.831,0c0.233,0.608,0.724,0.775,1.322,0.829
			c7.691,0.687,14.057,4.223,19.479,9.469c3.44,3.329,6.535,7.015,10.148,10.936c5.483-12.401,14.108-19.109,26.612-20.615
			C174.409,103.079,174.555,102.697,174.72,102.483z"/>
	</g>
</g>
<g>
	<path fill="#FFFFFF" d="M123.065,157.737c0,4.181-3.39,7.571-7.571,7.571h-5.679c-4.182,0-7.572-3.39-7.572-7.571v-2.19
		c-7.511-0.649-14.544-1.434-21.06-2.291v14.417c0,16.728,13.561,19.629,30.287,19.629h2.367c16.728,0,30.288-2.902,30.288-19.629
		v-10.302c-7.285-0.011-14.317-0.177-21.06-0.472V157.737z"/>
	<path fill="#FFFFFF" d="M102.243,144.486c0-4.183,3.39-7.572,7.572-7.572h5.679c4.182,0,7.571,3.39,7.571,7.572v3.165
		c6.725,0.305,13.763,0.481,21.06,0.493v-15.49c0-16.727-13.561-30.288-30.288-30.288h-2.367c-16.727,0-30.287,10.718-30.287,27.445
		v14.097c6.386,0.858,13.431,1.668,21.06,2.346V144.486z"/>
	<path fill="#FFFFFF" d="M57.877,158.203h-5.679c-4.182,0-7.572-3.39-7.572-7.572v-3.795c-7.302-1.646-12.268-3.021-14.553-3.688
		v12.18c0,13.269,11.297,19.652,24.024,21.255c10.048,1.266,25.903-2.302,25.903-15.57V153.1
		c-5.206-0.698-10.071-1.441-14.567-2.198C65.291,154.958,61.967,158.203,57.877,158.203z"/>
	<path fill="#FFFFFF" d="M31.448,133.928c0.12,0.038,4.795,1.475,13.181,3.415c0.021-4.165,3.4-7.533,7.569-7.533h5.679
		c4.182,0,7.571,3.39,7.571,7.571v4.127c4.329,0.743,9.2,1.507,14.553,2.24v-16.199c0-13.269-10.757-24.025-24.026-24.025h-1.877
		c-13.268,0-24.024,8.501-24.024,21.771v8.422C30.529,133.717,30.991,133.785,31.448,133.928z"/>
	<path fill="#FFFFFF" d="M187.428,157.737c0,4.181-3.389,7.571-7.57,7.571h-5.68c-4.183,0-7.572-3.39-7.572-7.571V156.9
		c-6.742,0.295-13.774,0.461-21.06,0.472v10.302c0,16.728,13.561,19.629,30.288,19.629h2.367c16.727,0,30.287-2.902,30.287-19.629
		v-14.417c-6.516,0.857-13.549,1.642-21.061,2.291V157.737z"/>
	<path fill="#FFFFFF" d="M166.605,144.486c0-4.183,3.39-7.572,7.572-7.572h5.68c4.182,0,7.57,3.39,7.57,7.572v1.767
		c7.63-0.677,14.675-1.488,21.061-2.346v-14.097c0-16.727-13.561-27.445-30.287-27.445h-2.367
		c-16.728,0-30.288,13.561-30.288,30.288v15.49c7.298-0.011,14.335-0.188,21.06-0.493V144.486z"/>
	<path fill="#FFFFFF" d="M245.044,150.631c0,4.182-3.389,7.572-7.57,7.572h-5.68c-4.09,0-7.414-3.246-7.558-7.301
		c-4.496,0.756-9.361,1.5-14.566,2.198v7.913c0,13.269,15.854,16.836,25.903,15.57c12.728-1.603,24.023-7.986,24.023-21.255v-12.18
		c-2.284,0.666-7.25,2.042-14.553,3.688V150.631z"/>
	<path fill="#FFFFFF" d="M224.223,137.38c0-4.182,3.39-7.571,7.571-7.571h5.68c4.168,0,7.548,3.369,7.569,7.532
		c8.43-1.949,13.109-3.392,13.182-3.414c0.457-0.142,0.919-0.209,1.372-0.209v-8.423c0-13.269-10.756-21.771-24.023-21.771h-1.877
		c-13.27,0-24.026,10.756-24.026,24.025v16.199c5.353-0.733,10.224-1.497,14.553-2.24V137.38z"/>
</g>
<g>
	<path fill="#FFFFFF" d="M123.065,157.737c0,4.181-3.39,7.571-7.571,7.571h-5.679c-4.182,0-7.572-3.39-7.572-7.571v-2.19
		c-7.511-0.649-14.544-1.434-21.06-2.291v14.417c0,16.728,13.561,19.629,30.287,19.629h2.367c16.728,0,30.288-2.902,30.288-19.629
		v-10.302c-7.285-0.011-14.317-0.177-21.06-0.472V157.737z"/>
	<path fill="#FFFFFF" d="M102.243,144.486c0-4.183,3.39-7.572,7.572-7.572h5.679c4.182,0,7.571,3.39,7.571,7.572v3.165
		c6.725,0.305,13.763,0.481,21.06,0.493v-15.49c0-16.727-13.561-30.288-30.288-30.288h-2.367c-16.727,0-30.287,10.718-30.287,27.445
		v14.097c6.386,0.858,13.431,1.668,21.06,2.346V144.486z"/>
	<path fill="#FFFFFF" d="M57.877,158.203h-5.679c-4.182,0-7.572-3.39-7.572-7.572v-3.795c-7.302-1.646-12.268-3.021-14.553-3.688
		v12.18c0,13.269,11.297,19.652,24.024,21.255c10.048,1.266,25.903-2.302,25.903-15.57V153.1
		c-5.206-0.698-10.071-1.441-14.567-2.198C65.291,154.958,61.967,158.203,57.877,158.203z"/>
	<path fill="#FFFFFF" d="M31.448,133.928c0.12,0.038,4.795,1.475,13.181,3.415c0.021-4.165,3.4-7.533,7.569-7.533h5.679
		c4.182,0,7.571,3.39,7.571,7.571v4.127c4.329,0.743,9.2,1.507,14.553,2.24v-16.199c0-13.269-10.757-24.025-24.026-24.025h-1.877
		c-13.268,0-24.024,8.501-24.024,21.771v8.422C30.529,133.717,30.991,133.785,31.448,133.928z"/>
	<path fill="#FFFFFF" d="M187.428,157.737c0,4.181-3.389,7.571-7.57,7.571h-5.68c-4.183,0-7.572-3.39-7.572-7.571V156.9
		c-6.742,0.295-13.774,0.461-21.06,0.472v10.302c0,16.728,13.561,19.629,30.288,19.629h2.367c16.727,0,30.287-2.902,30.287-19.629
		v-14.417c-6.516,0.857-13.549,1.642-21.061,2.291V157.737z"/>
	<path fill="#FFFFFF" d="M166.605,144.486c0-4.183,3.39-7.572,7.572-7.572h5.68c4.182,0,7.57,3.39,7.57,7.572v1.767
		c7.63-0.677,14.675-1.488,21.061-2.346v-14.097c0-16.727-13.561-27.445-30.287-27.445h-2.367
		c-16.728,0-30.288,13.561-30.288,30.288v15.49c7.298-0.011,14.335-0.188,21.06-0.493V144.486z"/>
	<path fill="#FFFFFF" d="M245.044,150.631c0,4.182-3.389,7.572-7.57,7.572h-5.68c-4.09,0-7.414-3.246-7.558-7.301
		c-4.496,0.756-9.361,1.5-14.566,2.198v7.913c0,13.269,15.854,16.836,25.903,15.57c12.728-1.603,24.023-7.986,24.023-21.255v-12.18
		c-2.284,0.666-7.25,2.042-14.553,3.688V150.631z"/>
	<path fill="#FFFFFF" d="M224.223,137.38c0-4.182,3.39-7.571,7.571-7.571h5.68c4.168,0,7.548,3.369,7.569,7.532
		c8.43-1.949,13.109-3.392,13.182-3.414c0.457-0.142,0.919-0.209,1.372-0.209v-8.423c0-13.269-10.756-21.771-24.023-21.771h-1.877
		c-13.27,0-24.026,10.756-24.026,24.025v16.199c5.353-0.733,10.224-1.497,14.553-2.24V137.38z"/>
</g>
</svg>
