<?xml version="1.0" encoding="utf-8"?>
<!-- Generator: Adobe Illustrator 16.0.3, SVG Export Plug-In . SVG Version: 6.00 Build 0)  -->
<!DOCTYPE svg PUBLIC "-//W3C//DTD SVG 1.1//EN" "http://www.w3.org/Graphics/SVG/1.1/DTD/svg11.dtd">
<svg version="1.1" id="Layer_1" xmlns="http://www.w3.org/2000/svg" xmlns:xlink="http://www.w3.org/1999/xlink" x="0px" y="0px"
	 width="289.67px" height="289.669px" viewBox="0 0 289.67 289.669" enable-background="new 0 0 289.67 289.669"
	 xml:space="preserve">
<circle fill="#EE7D00" cx="144.835" cy="144.835" r="144.835"/>
<g>
	<defs>
		<circle id="SVGID_1_" cx="144.835" cy="144.835" r="144.835"/>
	</defs>
	<clipPath id="SVGID_2_">
		<use xlink:href="#SVGID_1_"  overflow="visible"/>
	</clipPath>
	<g clip-path="url(#SVGID_2_)">
		<path fill="#C16000" d="M116.59,64.235c1.993,0,3.984,0,5.977,0c6.41,1.729,12.092,4.662,16.33,9.946
			c1.176,1.465,2.788,1.144,4.315,1.146c8.107,0.014,16.217,0.112,24.32-0.047c3.104-0.062,5.374,0.978,7.525,3.154
			c10.895,11.027,21.896,21.95,32.857,32.91c49.782,49.779,99.554,99.57,149.383,149.303c2.396,2.39,3.502,4.876,3.41,8.281
			c-0.198,7.392,0.069,14.794-0.125,22.185c-0.079,2.957,0.877,5.018,2.951,7.078c19.979,19.847,39.853,39.798,59.797,59.679
			c2.604,2.595,5.066,5.242,6.615,8.621c0,1.139,0,2.276,0,3.415c-4.596,6.998-7.833,7.738-15.271,3.511
			c-2.435-1.384-4.884-2.742-7.325-4.111c-0.384-0.208-0.796-0.443-1.057,0.109c-0.036,0.076,0.354,0.354,0.548,0.538
			c4.839,4.949,9.675,9.901,14.518,14.847c3.219,3.289,6.893,6.212,8.587,10.722c0,1.139,0,2.276,0,3.415
			c-5.242,7.027-8.071,7.537-15.661,2.945c-16.768-10.146-33.55-20.267-50.335-30.383c-0.921-0.556-1.727-1.55-3.304-0.974
			c0,3.604,0.385,7.342-0.072,10.973c-1.296,10.258,0.813,18.927,9.853,25.151c2.917,2.009,2.765,4.638-0.248,6.803
			c-9.393,0-18.784,0-28.177,0c-1.813-1.767-3.646-3.513-5.435-5.304c-62.224-62.271-124.437-124.55-186.661-186.818
			c-30.661-30.683-61.345-61.344-92.016-92.018c-3.787-3.787-7.646-7.515-10.461-12.141c0-1.139,0-2.276,0-3.415
			c6.348-8.19,9.63-8.487,17.405-1.194c6.514,6.11,12.876,12.384,19.243,18.649c7.269,7.152,14.31,14.543,22.192,21.048
			c0.289,0.276,0.578,0.552,0.867,0.828c0.288,0.284,0.578,0.568,0.867,0.853c0.289,0.279,0.577,0.56,0.865,0.84
			c0.287,0.282,0.574,0.564,0.86,0.848c0.287,0.281,0.575,0.563,0.863,0.845c0.284,0.283,0.569,0.567,0.855,0.851
			c0.282,0.287,0.564,0.574,0.848,0.861c0.297,0.269,0.595,0.538,0.893,0.809c0.158,0.168,0.317,0.338,0.476,0.507
			c0.052-0.191,0.208-0.465,0.135-0.563c-0.259-0.347-0.568-0.476-0.71,0.12c0.634-0.612,0.034-0.963-0.292-1.371
			c-0.313-0.295-0.628-0.589-0.942-0.884c-0.287-0.286-0.575-0.572-0.863-0.858c-0.281-0.282-0.563-0.565-0.844-0.848
			c-0.28-0.282-0.563-0.565-0.843-0.849c-0.271-0.287-0.54-0.574-0.811-0.862c-0.271-0.269-0.544-0.538-0.815-0.807
			c-0.284-0.289-0.568-0.579-0.854-0.869c-0.883-0.926-1.747-1.869-2.65-2.774c-11.65-11.686-23.459-23.221-34.912-35.098
			c-8.922-9.252-5.618-24.11,6.153-28.412c7.788-2.847,14.474-0.492,20.189,5.234c12.462,12.487,25.557,24.411,37.21,37.61
			c7.882,8.931,16.388,13.231,28.033,11.224c1.519-0.262,3.76,1.002,4.369-1.313c0.535-2.03,0.417-4.142-1.491-5.844
			c-2.543-2.27-4.823-4.829-7.279-7.199c-17.207-16.604-33.332-34.214-49.037-52.231c-2.413-2.77-1.485-3.774,1.042-5.332
			C111.019,65.993,114.083,65.828,116.59,64.235z"/>
		<path fill-rule="evenodd" clip-rule="evenodd" fill="#C16000" d="M406.842,369.954c-0.193-0.185-0.584-0.462-0.548-0.538
			c0.261-0.553,0.673-0.317,1.057-0.109C407.191,369.529,407.021,369.746,406.842,369.954z"/>
	</g>
</g>
<g>
	<g>
		<path fill="#FFFFFF" d="M169.015,225.858c-2.394,0-4.331-1.938-4.331-4.33V83.3h-33.205c-2.394,0-4.331-1.938-4.331-4.331
			s1.938-4.33,4.331-4.33h37.536c2.395,0,4.332,1.937,4.332,4.33v142.559C173.347,223.92,171.409,225.858,169.015,225.858z"/>
	</g>
	<g>
		<path fill="#FFFFFF" d="M134.135,102.447c4.34-4.081,7.089-9.832,7.089-16.258c0-12.358-10.021-22.377-22.374-22.377
			c-5.498,0-10.468,2.059-14.363,5.349L134.135,102.447z"/>
	</g>
	<g>
		<g>
			<path fill="#FFFFFF" d="M80.694,117.875c9.495,0,17.194-7.697,17.194-17.194c0-9.49-7.699-17.188-17.194-17.188
				c-9.492,0-17.189,7.698-17.189,17.188C63.505,110.178,71.202,117.875,80.694,117.875z"/>
		</g>
		<g>
			<path fill="#FFFFFF" d="M91.406,117.592c-3.026,3.172-2.905,8.194,0.264,11.219l24.871,23.73
				c1.477,1.405,3.441,2.192,5.479,2.192h50.786l57.68,33.005c1.243,0.708,2.595,1.046,3.931,1.046c2.755,0,5.429-1.434,6.896-3.994
				c2.174-3.805,0.856-8.651-2.948-10.828l-59.512-34.052c-1.2-0.686-2.557-1.046-3.94-1.046h-49.717l-22.57-21.537
				C99.457,114.306,94.437,114.427,91.406,117.592z"/>
		</g>
		<g>
			<path fill="#FFFFFF" d="M238.528,202.821l-70.584-42.648c-1.371-0.823-2.928-1.158-4.474-1.084l0.038-0.14h-51.685
				l-51.036-49.887c-3.134-3.064-8.151-3.006-11.22,0.123c-3.063,3.135-3.006,8.158,0.124,11.219l73.723,72.069
				c2.529,2.472,6.393,2.974,9.469,1.224l30.838-17.535l66.602,40.241c1.28,0.775,2.696,1.144,4.094,1.144
				c2.689,0,5.309-1.364,6.8-3.832C243.483,209.964,242.279,205.086,238.528,202.821z"/>
		</g>
	</g>
	<path fill="#FFFFFF" d="M185.268,223.035c0,1.56-1.263,2.823-2.822,2.823h-26.536c-1.56,0-2.823-1.264-2.823-2.823l0,0
		c0-1.558,1.264-2.821,2.823-2.821h26.536C184.005,220.213,185.268,221.477,185.268,223.035L185.268,223.035z"/>
</g>
<g>
	<g>
		<path fill="#FFFFFF" d="M169.015,225.858c-2.394,0-4.331-1.938-4.331-4.33V83.3h-33.205c-2.394,0-4.331-1.938-4.331-4.331
			s1.938-4.33,4.331-4.33h37.536c2.395,0,4.332,1.937,4.332,4.33v142.559C173.347,223.92,171.409,225.858,169.015,225.858z"/>
	</g>
	<g>
		<path fill="#FFFFFF" d="M134.135,102.447c4.34-4.081,7.089-9.832,7.089-16.258c0-12.358-10.021-22.377-22.374-22.377
			c-5.498,0-10.468,2.059-14.363,5.349L134.135,102.447z"/>
	</g>
	<g>
		<g>
			<path fill="#FFFFFF" d="M80.694,117.875c9.495,0,17.194-7.697,17.194-17.194c0-9.49-7.699-17.188-17.194-17.188
				c-9.492,0-17.189,7.698-17.189,17.188C63.505,110.178,71.202,117.875,80.694,117.875z"/>
		</g>
		<g>
			<path fill="#FFFFFF" d="M91.406,117.592c-3.026,3.172-2.905,8.194,0.264,11.219l24.871,23.73
				c1.477,1.405,3.441,2.192,5.479,2.192h50.786l57.68,33.005c1.243,0.708,2.595,1.046,3.931,1.046c2.755,0,5.429-1.434,6.896-3.994
				c2.174-3.805,0.856-8.651-2.948-10.828l-59.512-34.052c-1.2-0.686-2.557-1.046-3.94-1.046h-49.717l-22.57-21.537
				C99.457,114.306,94.437,114.427,91.406,117.592z"/>
		</g>
		<g>
			<path fill="#FFFFFF" d="M238.528,202.821l-70.584-42.648c-1.371-0.823-2.928-1.158-4.474-1.084l0.038-0.14h-51.685
				l-51.036-49.887c-3.134-3.064-8.151-3.006-11.22,0.123c-3.063,3.135-3.006,8.158,0.124,11.219l73.723,72.069
				c2.529,2.472,6.393,2.974,9.469,1.224l30.838-17.535l66.602,40.241c1.28,0.775,2.696,1.144,4.094,1.144
				c2.689,0,5.309-1.364,6.8-3.832C243.483,209.964,242.279,205.086,238.528,202.821z"/>
		</g>
	</g>
	<path fill="#FFFFFF" d="M185.268,223.035c0,1.56-1.263,2.823-2.822,2.823h-26.536c-1.56,0-2.823-1.264-2.823-2.823l0,0
		c0-1.558,1.264-2.821,2.823-2.821h26.536C184.005,220.213,185.268,221.477,185.268,223.035L185.268,223.035z"/>
</g>
</svg>
