<?xml version="1.0" encoding="utf-8"?>
<!-- Generator: Adobe Illustrator 16.0.3, SVG Export Plug-In . SVG Version: 6.00 Build 0)  -->
<!DOCTYPE svg PUBLIC "-//W3C//DTD SVG 1.1//EN" "http://www.w3.org/Graphics/SVG/1.1/DTD/svg11.dtd">
<svg version="1.1" id="Camada_1" xmlns="http://www.w3.org/2000/svg" xmlns:xlink="http://www.w3.org/1999/xlink" x="0px" y="0px"
	 width="50px" height="50px" viewBox="0 0 50 50" enable-background="new 0 0 50 50" xml:space="preserve">
<g>
	<path fill="#47303B" d="M50.227,25.157c0,13.115-10.08,23.906-22.875,24.935c-0.705,0.129-1.424,0.129-2.128,0.129
		c-1.872,0-3.686-0.188-5.425-0.584C8.556,47.115,0.155,37.105,0.155,25.157c0-13.826,11.248-25.003,25.067-25.003
		C39.049,0.154,50.227,11.332,50.227,25.157z"/>
	<g>
		<path fill="#FFFFFF" d="M28.064,19.93c0.385-0.455,1.16-0.781,2.263-0.781c1.021,0,2.258,0.14,3.425,0.466l0.969-5.25
			c-1.996-0.712-4.066-0.91-6.201-0.91s-3.815,0.327-5.168,1.109c-1.359,0.77-2.264,1.622-2.778,2.847
			c-0.519,1.098-0.775,2.963-0.775,5.286v2.076h-4.142v6.008h4.142v18.855c1.739,0.396,3.553,0.584,5.425,0.584
			c0.707,0,1.423,0,2.128-0.129V30.781h5.49v-6.009h-5.49v-1.948C27.352,21.342,27.551,20.444,28.064,19.93z"/>
	</g>
</g>
</svg>
