<?xml version="1.0" encoding="utf-8"?>
<!-- Generator: Adobe Illustrator 23.0.1, SVG Export Plug-In . SVG Version: 6.00 Build 0)  -->
<svg version="1.1" id="Camada_1" xmlns="http://www.w3.org/2000/svg" xmlns:xlink="http://www.w3.org/1999/xlink" x="0px" y="0px"
	 viewBox="0 0 17 17" style="enable-background:new 0 0 17 17;" xml:space="preserve">
<style type="text/css">
	.st0{fill:#FFFFFF;}
</style>
<path class="st0" d="M15.76,4.23C15.02,3.31,14,2.59,12.71,2.05c-1.28-0.53-2.69-0.8-4.21-0.8c-1.14,0-2.22,0.16-3.26,0.47
	C4.21,2.04,3.32,2.47,2.57,3C1.82,3.54,1.22,4.18,0.78,4.92C0.34,5.66,0.12,6.43,0.12,7.24c0,0.94,0.28,1.81,0.85,2.63
	c0.57,0.82,1.34,1.5,2.32,2.06c-0.07,0.25-0.15,0.49-0.24,0.71c-0.09,0.22-0.18,0.41-0.25,0.55c-0.07,0.14-0.18,0.3-0.3,0.48
	c-0.13,0.17-0.22,0.3-0.29,0.37c-0.07,0.07-0.17,0.19-0.32,0.36c-0.15,0.17-0.25,0.27-0.29,0.32c-0.01,0-0.03,0.03-0.07,0.08
	c-0.04,0.05-0.06,0.08-0.06,0.08l-0.06,0.08c-0.03,0.05-0.04,0.08-0.04,0.09c0,0.01,0,0.04-0.02,0.09c-0.02,0.05-0.02,0.09,0,0.11
	v0.01c0.02,0.11,0.08,0.2,0.16,0.27c0.09,0.07,0.18,0.1,0.29,0.08c0.41-0.05,0.76-0.12,1.07-0.21c1.64-0.42,3.07-1.17,4.3-2.26
	c0.47,0.05,0.92,0.08,1.36,0.08c1.52,0,2.93-0.27,4.21-0.8c1.28-0.53,2.3-1.26,3.05-2.18s1.12-1.92,1.12-3.01
	C16.88,6.16,16.51,5.15,15.76,4.23z"/>
</svg>
