<?xml version="1.0" encoding="utf-8"?>
<!-- Generator: Adobe Illustrator 23.0.1, SVG Export Plug-In . SVG Version: 6.00 Build 0)  -->
<svg version="1.1" id="Camada_1" xmlns="http://www.w3.org/2000/svg" xmlns:xlink="http://www.w3.org/1999/xlink" x="0px" y="0px"
	 viewBox="0 0 17 17" style="enable-background:new 0 0 17 17;" xml:space="preserve">
<style type="text/css">
	.st0{fill:#FFFFFF;}
</style>
<g>
	<path class="st0" d="M16.37,1.71H0.62c-0.19,0-0.34,0.15-0.34,0.34V4.1c0,0.19,0.15,0.34,0.34,0.34h15.75
		c0.19,0,0.34-0.15,0.34-0.34V2.05C16.72,1.86,16.56,1.71,16.37,1.71z"/>
	<path class="st0" d="M16.37,7.21H0.62c-0.19,0-0.34,0.15-0.34,0.34V9.6c0,0.19,0.15,0.34,0.34,0.34h15.75
		c0.19,0,0.34-0.15,0.34-0.34V7.55C16.72,7.36,16.56,7.21,16.37,7.21z"/>
	<path class="st0" d="M16.37,12.69H0.62c-0.19,0-0.34,0.15-0.34,0.34v2.05c0,0.19,0.15,0.34,0.34,0.34h15.75
		c0.19,0,0.34-0.15,0.34-0.34v-2.05C16.72,12.84,16.56,12.69,16.37,12.69z"/>
</g>
</svg>
