<?xml version="1.0" encoding="utf-8"?>
<!-- Generator: Adobe Illustrator 23.0.1, SVG Export Plug-In . SVG Version: 6.00 Build 0)  -->
<svg version="1.1" id="Camada_1" xmlns="http://www.w3.org/2000/svg" xmlns:xlink="http://www.w3.org/1999/xlink" x="0px" y="0px"
	 viewBox="0 0 17 17" style="enable-background:new 0 0 17 17;" xml:space="preserve">
<style type="text/css">
	.st0{fill:#8A9EB9;}
</style>
<path class="st0" d="M8.51,0.11c-4.64,0-8.4,3.76-8.4,8.4c0,4.64,3.76,8.4,8.4,8.4c4.64,0,8.4-3.76,8.4-8.4
	C16.91,3.87,13.15,0.11,8.51,0.11z M8.39,8.12c-0.02,2.04-1.8,3.12-1.8,3.12c-0.62-0.38-1.1-0.93-1.1-0.93
	c1.12-0.66,1.28-1.07,1.28-1.07c-0.95,0-1.72-0.77-1.72-1.72c0-0.95,0.77-1.72,1.72-1.72c0.95,0,1.72,0.77,1.72,1.72
	C8.49,7.74,8.45,7.94,8.39,8.12z M12.1,8.12c-0.02,2.04-1.8,3.12-1.8,3.12c-0.62-0.38-1.1-0.93-1.1-0.93
	c1.12-0.66,1.28-1.07,1.28-1.07c-0.95,0-1.72-0.77-1.72-1.72c0-0.95,0.77-1.72,1.72-1.72c0.95,0,1.72,0.77,1.72,1.72
	C12.21,7.74,12.17,7.94,12.1,8.12z"/>
</svg>
