<?xml version="1.0" encoding="utf-8"?>
<!-- Generator: Adobe Illustrator 16.0.3, SVG Export Plug-In . SVG Version: 6.00 Build 0)  -->
<!DOCTYPE svg PUBLIC "-//W3C//DTD SVG 1.1//EN" "http://www.w3.org/Graphics/SVG/1.1/DTD/svg11.dtd">
<svg version="1.1" id="Camada_1" xmlns="http://www.w3.org/2000/svg" xmlns:xlink="http://www.w3.org/1999/xlink" x="0px" y="0px"
	 width="3061.192px" height="782.056px" viewBox="0 0 3061.192 782.056" enable-background="new 0 0 3061.192 782.056"
	 xml:space="preserve">
<g>
	
		<path fill-rule="evenodd" clip-rule="evenodd" fill="none" stroke="#FFFFFF" stroke-width="5.3858" stroke-miterlimit="22.9256" d="
		M170.739,258.54c60.828,103.449,131.669,255.796,223.271,337.797c15.637,14.001,33.874,24.474,53.842,30.533
		c113.133,34.379,208.317-72.801,160.924-181.115c-8.554-19.563-21.031-39.088-35.262-61.576l-88.779-140.277"/>
	<path fill-rule="evenodd" clip-rule="evenodd" fill="#FFFFFF" d="M164.747,207.972c26.088,0,47.228,20.253,47.228,45.244
		c0,24.986-21.139,45.228-47.228,45.228c-26.078,0-47.228-20.241-47.228-45.228C117.52,228.226,138.669,207.972,164.747,207.972z"/>
	<path fill-rule="evenodd" clip-rule="evenodd" fill="#FFFFFF" d="M482.733,207.972c26.078,0,47.228,20.253,47.228,45.244
		c0,24.986-21.149,45.228-47.228,45.228s-47.228-20.241-47.228-45.228C435.506,228.226,456.655,207.972,482.733,207.972z"/>
	
		<path fill-rule="evenodd" clip-rule="evenodd" fill="none" stroke="#FFFFFF" stroke-width="5.3858" stroke-miterlimit="22.9256" d="
		M474.875,492.37c-60.828-103.45-131.669-255.807-223.278-337.809c-15.63-13.99-33.868-24.465-53.842-30.527
		C84.622,89.656-10.563,196.839,36.842,305.155c8.543,19.558,21.021,39.084,35.25,61.575l88.779,140.274"/>
	<path fill-rule="evenodd" clip-rule="evenodd" fill="#FFFFFF" d="M480.859,542.926c-26.077,0-47.228-20.241-47.228-45.235
		c0-24.982,21.15-45.229,47.228-45.229c26.079,0,47.228,20.246,47.228,45.229C528.087,522.685,506.938,542.926,480.859,542.926z"/>
	<path fill-rule="evenodd" clip-rule="evenodd" fill="#FFFFFF" d="M162.874,542.926c-26.078,0-47.228-20.241-47.228-45.235
		c0-24.982,21.149-45.229,47.228-45.229c26.085,0,47.228,20.246,47.228,45.229C210.101,522.685,188.958,542.926,162.874,542.926z"/>
	
		<path fill-rule="evenodd" clip-rule="evenodd" fill="none" stroke="#FFFFFF" stroke-width="5.3858" stroke-miterlimit="22.9256" d="
		M335.33,245.206c15.244-86.084,92.877-148.181,188.757-125.943c107.812,24.993,139.906,184.851,24.507,233.735"/>
	
		<path fill-rule="evenodd" clip-rule="evenodd" fill="none" stroke="#FFFFFF" stroke-width="5.3858" stroke-miterlimit="22.9256" d="
		M311.379,501.942c-15.244,86.096-92.877,148.191-188.757,125.953c-107.812-25-139.907-184.849-24.504-233.741"/>
	<path fill-rule="evenodd" clip-rule="evenodd" fill="#231F20" d="M784.037,564.102c0,3.721-1.977,7.124-5.898,10.21
		c-3.944,3.073-8.835,4.607-14.701,4.607c-5.323,0-9.915-1.213-13.789-3.656c-4.395-2.74-6.602-6.435-6.602-11.134v-75.608
		c0-4.1,1.616-7.455,4.823-10.094c3.749-3.127,8.973-4.704,15.667-4.704h20.498v14.831h-10.646v-7.338h-9.853
		c-2.274,0-4.554,0.727-6.825,2.197c-2.274,1.467-3.421,3.175-3.421,5.141v75.548c0,1.867,1.042,3.498,3.116,4.915
		c2.076,1.42,4.448,2.136,7.13,2.136c2.549,0,4.823-0.633,6.833-1.912c2.009-1.269,3.019-2.985,3.019-5.139v-3.958h10.646V564.102
		L784.037,564.102z M891.938,577.461h-35.962V473.723h10.248v95.96h25.714V577.461L891.938,577.461z M973.125,577.461h-10.248
		V473.723h10.248V577.461L973.125,577.461z M983.368,456.416l-15.092,11.257l-5.192-3.478l15.669-11.444L983.368,456.416
		L983.368,456.416z M1099.72,577.461h-10.664v-39.179l-20.08-24.644v63.822h-10.254V473.723h10.254v24.431l20.08,24.066v-48.497
		h10.664V577.461L1099.72,577.461z M1191.534,577.461h-10.244V473.723h10.244V577.461L1191.534,577.461z M1312.095,564.102
		c0,3.721-1.971,7.124-5.893,10.21c-3.951,3.073-8.84,4.607-14.696,4.607c-5.334,0-9.911-1.213-13.798-3.656
		c-4.389-2.74-6.595-6.435-6.595-11.134v-75.608c0-4.1,1.607-7.455,4.823-10.094c3.746-3.127,8.973-4.704,15.668-4.704h20.49v14.831
		h-10.647v-7.338h-9.843c-2.273,0-4.555,0.727-6.835,2.197c-2.271,1.467-3.414,3.175-3.414,5.141v75.548
		c0,1.867,1.036,3.498,3.11,4.915c2.082,1.42,4.463,2.136,7.139,2.136c2.541,0,4.822-0.633,6.823-1.912
		c2.011-1.269,3.02-2.985,3.02-5.139v-3.958h10.647V564.102L1312.095,564.102z M1423.21,577.461h-10.844V536.97h-20.09v40.491
		h-10.246v-90.38c0-4.006,1.841-7.506,5.531-10.494c3.674-2.977,8.662-4.472,14.963-4.472c5.627,0,10.484,1.347,14.568,4.038
		c4.082,2.69,6.117,6.332,6.117,10.928V577.461L1423.21,577.461z M1412.366,529.48v-42.379c0-1.466-1.004-3.072-3.021-4.861
		c-1.999-1.757-4.278-2.641-6.821-2.641c-2.545,0-4.893,0.884-7.032,2.641c-2.137,1.789-3.216,3.396-3.216,4.861v42.379H1412.366
		L1412.366,529.48z M1707.509,564.129c0,4.011-1.943,7.459-5.813,10.395c-3.897,2.938-8.843,4.396-14.882,4.396
		c-5.621,0-10.442-1.363-14.463-4.1c-4.018-2.737-6.027-6.284-6.027-10.69v-77.075c0-3.912,1.878-7.356,5.626-10.394
		c3.75-3.024,8.705-4.545,14.864-4.545c5.627,0,10.493,1.372,14.57,4.103c4.083,2.741,6.125,6.333,6.125,10.836V564.129
		L1707.509,564.129z M1696.656,564.102v-77.021c0-1.66-1.002-3.332-3.011-4.991c-2.01-1.654-4.281-2.49-6.832-2.49
		c-2.541,0-4.892,0.836-7.022,2.49c-2.151,1.659-3.221,3.331-3.221,4.991v77.021c0,1.964,1.107,3.623,3.319,4.993
		c2.208,1.376,4.519,2.058,6.924,2.058c2.551,0,4.822-0.633,6.832-1.912C1695.654,567.972,1696.656,566.255,1696.656,564.102
		L1696.656,564.102z M1831.888,562.786c0,4.402-2.104,7.945-6.326,10.637c-4.222,2.691-9.003,4.038-14.365,4.038h-20.49V473.723
		h20.49c5.627,0,10.481,1.329,14.565,3.972c4.085,2.64,6.126,6.251,6.126,10.859V562.786L1831.888,562.786z M1821.036,562.638
		v-74.084c0-1.966-0.932-3.674-2.813-5.141c-1.866-1.471-4.216-2.197-7.026-2.197h-10.247v88.467h10.247
		c2.549,0,4.822-0.688,6.824-2.049C1820.03,566.255,1821.036,564.596,1821.036,562.638L1821.036,562.638z M1956.265,564.129
		c0,4.011-1.937,7.459-5.826,10.395c-3.887,2.938-8.834,4.396-14.87,4.396c-5.62,0-10.436-1.363-14.46-4.1
		c-4.02-2.737-6.021-6.284-6.021-10.69v-77.075c0-3.912,1.859-7.356,5.617-10.394c3.749-3.024,8.701-4.545,14.864-4.545
		c5.626,0,10.482,1.372,14.577,4.103c4.084,2.741,6.119,6.333,6.119,10.836V564.129L1956.265,564.129z M1945.421,564.102v-77.021
		c0-1.66-1.01-3.332-3.021-4.991c-2.011-1.654-4.282-2.49-6.832-2.49c-2.54,0-4.888,0.836-7.03,2.49
		c-2.142,1.659-3.207,3.331-3.207,4.991v77.021c0,1.964,1.098,3.623,3.313,4.993c2.207,1.376,4.521,2.058,6.925,2.058
		c2.55,0,4.821-0.633,6.832-1.912C1944.411,567.972,1945.421,566.255,1945.421,564.102L1945.421,564.102z M2080.45,577.461h-10.656
		v-39.179l-20.088-24.644v63.822h-10.248V473.723h10.248v24.431l20.088,24.066v-48.497h10.656V577.461L2080.45,577.461z
		 M2199.8,481.216h-15.266v96.245h-10.859v-96.245h-15.063v-7.493h41.188V481.216L2199.8,481.216z M2318.752,564.129
		c0,4.011-1.944,7.459-5.834,10.395c-3.876,2.938-8.833,4.396-14.869,4.396c-5.62,0-10.442-1.363-14.462-4.1
		c-4.019-2.737-6.021-6.284-6.021-10.69v-77.075c0-3.912,1.872-7.356,5.619-10.394c3.747-3.024,8.713-4.545,14.864-4.545
		c5.634,0,10.495,1.372,14.571,4.103c4.09,2.741,6.132,6.333,6.132,10.836V564.129L2318.752,564.129z M2307.894,564.102v-77.021
		c0-1.66-1.005-3.332-3.013-4.991c-2.009-1.654-4.282-2.49-6.832-2.49c-2.542,0-4.889,0.836-7.022,2.49
		c-2.14,1.659-3.227,3.331-3.227,4.991v77.021c0,1.964,1.12,3.623,3.324,4.993c2.205,1.376,4.521,2.058,6.925,2.058
		c2.55,0,4.823-0.633,6.832-1.912C2306.889,567.972,2307.894,566.255,2307.894,564.102L2307.894,564.102z M2437.9,577.461h-35.963
		V473.723h10.247v95.96h25.716V577.461L2437.9,577.461z M2551.829,564.129c0,4.011-1.945,7.459-5.82,10.395
		c-3.891,2.938-8.844,4.396-14.863,4.396c-5.628,0-10.443-1.363-14.472-4.1c-4.022-2.737-6.032-6.284-6.032-10.69v-77.075
		c0-3.912,1.881-7.356,5.631-10.394c3.748-3.024,8.701-4.545,14.873-4.545c5.619,0,10.48,1.372,14.564,4.103
		c4.076,2.741,6.119,6.333,6.119,10.836V564.129L2551.829,564.129z M2540.985,564.102v-77.021c0-1.66-1.006-3.332-3.017-4.991
		c-2.001-1.654-4.281-2.49-6.823-2.49c-2.555,0-4.891,0.836-7.033,2.49c-2.146,1.659-3.223,3.331-3.223,4.991v77.021
		c0,1.964,1.107,3.623,3.325,4.993c2.202,1.376,4.517,2.058,6.931,2.058c2.542,0,4.822-0.633,6.823-1.912
		C2539.979,567.972,2540.985,566.255,2540.985,564.102L2540.985,564.102z M2541.989,456.122l-15.102,11.254l-5.186-3.48
		l15.666-11.434L2541.989,456.122L2541.989,456.122z M2676.007,577.461h-20.488c-5.621,0-10.314-1.231-14.064-3.676
		c-4.289-2.733-6.427-6.398-6.427-10.999v-74.232c0-4.117,1.605-7.488,4.819-10.127c3.75-3.127,8.977-4.704,15.672-4.704h20.488
		v14.831h-10.644v-7.338h-9.845c-2.414,0-4.721,0.763-6.932,2.271c-2.209,1.516-3.317,3.207-3.317,5.067v74.084
		c0,1.859,1.174,3.5,3.519,4.911c2.34,1.429,4.849,2.134,7.533,2.134h9.042V536.97h-5.836v-7.489h16.479V577.461L2676.007,577.461z
		 M2771.86,577.461h-10.244V473.723h10.244V577.461L2771.86,577.461z M2898.447,564.102c0,3.721-1.977,7.124-5.9,10.21
		c-3.942,3.073-8.84,4.607-14.695,4.607c-5.327,0-9.911-1.213-13.8-3.656c-4.379-2.74-6.592-6.435-6.592-11.134v-75.608
		c0-4.1,1.606-7.455,4.822-10.094c3.755-3.127,8.973-4.704,15.668-4.704h20.497v14.831h-10.646v-7.338h-9.851
		c-2.275,0-4.555,0.727-6.827,2.197c-2.28,1.467-3.414,3.175-3.414,5.141v75.548c0,1.867,1.036,3.498,3.11,4.915
		c2.074,1.42,4.455,2.136,7.131,2.136c2.548,0,4.822-0.633,6.832-1.912c2.01-1.269,3.019-2.985,3.019-5.139v-3.958h10.646V564.102
		L2898.447,564.102z M3017.595,577.461h-10.844V536.97h-20.09v40.491h-10.244v-90.38c0-4.006,1.838-7.506,5.529-10.494
		c3.674-2.977,8.663-4.472,14.963-4.472c5.627,0,10.48,1.347,14.566,4.038c4.084,2.69,6.119,6.332,6.119,10.928V577.461
		L3017.595,577.461z M3006.751,529.48v-42.379c0-1.466-1.006-3.072-3.008-4.861c-2.013-1.757-4.292-2.641-6.834-2.641
		c-2.545,0-4.893,0.884-7.031,2.641c-2.141,1.789-3.217,3.396-3.217,4.861v42.379H3006.751z"/>
	<g>
		<path fill-rule="evenodd" clip-rule="evenodd" fill="#FFFFFF" d="M732.581,376.512l13.32-47.297l2.288,0.319
			c2.821,17.832,11.631,32.409,26.415,43.721c14.739,11.304,32.353,16.965,52.86,16.965c19.129,0,34.895-4.953,47.296-14.896
			c12.452-9.903,18.655-22.245,18.655-37.03c0-8.053-1.906-14.896-5.66-20.448c-3.759-5.604-9.515-10.162-17.243-13.807
			c-6.521-2.935-17.39-5.438-32.778-7.4c-15.342-1.952-26.429-3.748-33.337-5.33c-20.22-4.231-35.225-10.927-45.182-19.997
			c-9.943-9.093-14.897-20.671-14.897-34.8c0-17.734,8.654-32.573,25.994-44.592c17.283-12.005,39.522-17.995,66.599-17.995
			c14.414,0,28.054,1.36,40.786,4.134c12.715,2.712,25.823,7.12,39.195,13.155l-12.126,38.819l-2.871-0.321
			c-2.672-15.271-9.744-27.241-21.211-35.771c-11.467-8.542-26.15-12.833-44.098-12.833c-17.605,0-32.24,4.399-43.819,13.208
			c-11.634,8.811-17.455,19.785-17.455,32.846c0,6.793,1.795,12.828,5.329,18.148c3.537,5.329,8.646,9.459,15.225,12.396
			c9.022,4.299,25.166,8.057,48.448,11.313c9.842,1.421,17.457,2.553,22.779,3.537c19.842,3.373,34.575,9.401,44.206,17.995
			c9.621,8.602,14.405,19.952,14.405,34.096c0,20.873-9.132,38.329-27.4,52.194c-18.274,13.917-41.751,20.877-70.414,20.877
			c-18.372,0-35.771-1.854-52.195-5.491C759.281,388.528,744.924,383.312,732.581,376.512L732.581,376.512z M985.074,304.696
			c0,26.529,5.495,47.084,16.527,61.65c11.046,14.618,26.538,21.902,46.489,21.902c19.959,0,35.348-7.169,46.115-21.573
			c10.764-14.356,16.146-34.913,16.146-61.661c0-26.256-5.498-46.595-16.472-61.063c-10.994-14.51-26.316-21.748-46.061-21.748
			c-19.795,0-35.172,7.238-46.218,21.748C990.569,258.42,985.074,278.7,985.074,304.696L985.074,304.696z M954.742,304.364
			c0-25.664,8.694-46.658,26.045-62.962c17.397-16.261,39.791-24.411,67.304-24.411c27.512,0,49.855,8.209,66.935,24.678
			c17.127,16.425,25.659,37.9,25.659,64.27c0,26.646-8.532,48.171-25.659,64.593c-17.079,16.362-39.8,24.576-68.017,24.576
			c-27.301,0-49.53-8.367-66.609-25.165C963.271,353.191,954.742,331.331,954.742,304.364L954.742,304.364z M1158.954,392.17v-2.607
			c7.998-2.336,13.426-6.955,16.42-13.922c2.996-7.013,4.465-22.024,4.465-45.179v-13.594v-43.113
			c0-17.622-1.256-28.333-3.752-32.145c-2.508-3.804-7.35-5.802-14.519-6.025l-0.161-2.609c5.759-1.255,12.016-2.831,18.699-4.62
			c6.688-1.797,14.357-4.025,22.841-6.806l-0.608,49.479c7.136-16.306,15.717-28.757,25.78-37.288
			c10.118-8.54,21.304-12.84,33.603-12.84c1.68,0,3.039,0,3.969,0.059c0.977,0.05,1.797,0.163,2.551,0.271l-12.45,35.888h-1.577
			c-2.116-2.771-4.511-4.837-7.169-6.152c-2.675-1.354-5.659-2.003-8.924-2.003c-10.763,0-18.975,4.997-24.626,14.997
			c-5.709,10.009-8.539,24.477-8.539,43.557v18.983c0,25.768,1.417,42.129,4.299,49.037c2.877,6.906,8.422,11.584,16.576,14.026
			l-0.163,2.607c-5.701-0.328-11.36-0.598-16.963-0.763c-5.548-0.156-11.034-0.213-16.472-0.213c-4.57,0-9.631,0.057-15.108,0.213
			C1171.576,391.572,1165.54,391.842,1158.954,392.17L1158.954,392.17z M1274.442,392.17v-2.607
			c7.99-2.336,13.428-6.955,16.423-13.922c2.986-7.013,4.461-22.024,4.461-45.179v-13.594v-43.113
			c0-17.622-1.263-28.333-3.755-32.145c-2.502-3.804-7.344-5.802-14.521-6.025l-0.16-2.609c5.765-1.255,12.023-2.831,18.707-4.62
			c6.685-1.797,14.347-4.025,22.83-6.806l-0.591,49.479c7.12-16.306,15.708-28.757,25.775-37.288
			c10.104-8.54,21.311-12.84,33.597-12.84c1.674,0,3.038,0,3.971,0.059c0.975,0.05,1.789,0.163,2.55,0.271l-12.458,35.888h-1.569
			c-2.12-2.771-4.52-4.837-7.177-6.152c-2.664-1.354-5.658-2.003-8.912-2.003c-10.773,0-18.978,4.997-24.636,14.997
			c-5.71,10.009-8.532,24.477-8.532,43.557v18.983c0,25.768,1.41,42.129,4.297,49.037c2.873,6.906,8.419,11.584,16.581,14.026
			l-0.163,2.607c-5.702-0.328-11.362-0.598-16.975-0.763c-5.535-0.156-11.025-0.213-16.465-0.213c-4.564,0-9.621,0.057-15.117,0.213
			C1287.061,391.572,1281.021,391.842,1274.442,392.17L1274.442,392.17z M1390.909,392.17v-2.607
			c8.104-2.442,13.646-7.499,16.634-15.224c3.044-7.779,4.569-23.707,4.569-47.955v-25.389v-34.254
			c0-12.782-1.256-20.935-3.746-24.584c-2.5-3.645-7.238-5.596-14.194-5.925l-0.165-2.606c5.924-0.757,12.291-2.011,19.083-3.915
			c6.8-1.843,15.175-4.569,25.066-8.161c-0.327,8.761-0.542,17.521-0.703,26.315c-0.165,8.759-0.214,17.514-0.214,26.267v20.063
			v24.463c0,28.884,1.457,47.255,4.453,55.305c2.994,7.986,8.696,13.158,17.07,15.601v2.607c-4.463-0.328-9.188-0.598-14.193-0.763
			c-5.002-0.156-11.791-0.213-20.393-0.213c-6.572,0-12.451,0.057-17.553,0.213C1401.456,391.572,1396.239,391.842,1390.909,392.17
			L1390.909,392.17z M1407.872,181.431c0-4.455,1.468-8.213,4.346-11.199c2.938-2.995,6.579-4.461,11.09-4.461
			c4.357,0,8.059,1.525,11.046,4.56c2.983,3.051,4.511,6.744,4.511,11.101c0,4.356-1.527,7.998-4.511,10.923
			c-2.987,2.946-6.688,4.407-11.046,4.407c-4.674,0-8.421-1.412-11.252-4.233C1409.28,189.689,1407.872,185.999,1407.872,181.431
			L1407.872,181.431z M1469.253,392.17v-2.607c7.998-2.336,13.432-6.955,16.426-13.922c2.994-7.013,4.453-22.024,4.453-45.179
			v-13.594v-43.113c0-17.622-1.246-28.333-3.748-32.145c-2.501-3.804-7.342-5.802-14.51-6.025l-0.166-2.609
			c5.757-1.255,12.008-2.831,18.702-4.62c6.685-1.797,14.355-4.025,22.837-6.806l-0.607,49.479
			c7.127-16.306,15.716-28.757,25.783-37.288c10.105-8.54,21.3-12.84,33.598-12.84c1.684,0,3.046,0,3.971,0.059
			c0.975,0.05,1.797,0.163,2.551,0.271l-12.453,35.888h-1.574c-2.125-2.771-4.511-4.837-7.176-6.152
			c-2.665-1.354-5.66-2.003-8.92-2.003c-10.761,0-18.973,4.997-24.634,14.997c-5.708,10.009-8.527,24.477-8.527,43.557v18.983
			c0,25.768,1.411,42.129,4.296,49.037c2.878,6.906,8.42,11.584,16.579,14.026l-0.165,2.607c-5.706-0.328-11.359-0.598-16.963-0.763
			c-5.545-0.156-11.035-0.213-16.472-0.213c-4.572,0-9.628,0.057-15.118,0.213C1481.879,391.572,1475.833,391.842,1469.253,392.17
			L1469.253,392.17z M1775.915,275.442c11.796-5.939,20.49-12.681,25.985-20.121c5.545-7.506,8.315-16.251,8.315-26.26
			c0-9.516-2.721-17.455-8.151-23.822c-5.389-6.299-12.123-9.457-20.226-9.457c-8.537,0-15.498,2.715-20.879,8.212
			c-5.438,5.496-8.162,12.452-8.162,20.935c0,7.774,1.856,15.656,5.497,23.647C1761.994,256.624,1767.865,265.601,1775.915,275.442
			L1775.915,275.442z M1758.082,290.495c-9.034,5.604-15.767,11.802-20.171,18.547c-4.41,6.686-6.638,14.19-6.638,22.509
			c0,14.404,5.71,26.914,17.177,37.519c11.473,10.598,24.961,15.926,40.455,15.926c9.459,0,17.943-1.568,25.496-4.669
			c7.506-3.157,14.355-7.998,20.557-14.585c-15.004-12.282-28.875-24.674-41.645-37.126
			C1780.53,316.103,1768.784,303.432,1758.082,290.495L1758.082,290.495z M1913.089,391.842h-0.926
			c-14.248-0.435-24.845-0.647-31.752-0.647h-11.795l-26.48-19.578c-10.771,8.596-21.697,14.903-32.891,18.979
			c-11.207,4.076-23.168,6.146-35.889,6.146c-20.666,0-37.844-5.005-51.385-15.06c-13.595-10.01-20.388-22.404-20.388-37.137
			c0-12.503,4.294-23.764,12.94-33.661c8.645-9.948,21.531-18.378,38.609-25.384c-6.59-9.795-11.428-18.539-14.576-26.324
			c-3.1-7.719-4.675-14.955-4.675-21.639c0-13.693,5.052-25.225,15.224-34.575c10.104-9.353,22.887-14.028,38.219-14.028
			c12.346,0,22.789,3.748,31.43,11.253c8.649,7.448,12.996,16.47,12.996,26.973c0,10.104-4.299,19.621-12.886,28.547
			c-8.597,8.907-21.371,17.224-38.335,25.002c7.336,8.479,16.587,18.051,27.68,28.651c11.149,10.656,25.065,23.107,41.702,37.465
			c3.208-5.332,5.545-10.271,7.015-14.899c1.468-4.625,2.225-9.079,2.225-13.428c0-9.138-2.775-16.482-8.369-22.076
			c-5.553-5.543-13.102-8.537-22.672-8.972v-2.281l55.835,0.163c-0.975,13.372-3.584,25.824-7.831,37.408
			c-4.29,11.583-10.059,21.804-17.287,30.612c8.758,6.956,17.565,13.426,26.479,19.357c8.967,5.924,18.215,11.414,27.783,16.523
			V391.842L1913.089,391.842z M2025.308,376.512l13.322-47.297l2.287,0.319c2.824,17.832,11.635,32.409,26.422,43.721
			c14.732,11.304,32.355,16.965,52.854,16.965c19.13,0,34.903-4.953,47.298-14.896c12.451-9.903,18.652-22.245,18.652-37.03
			c0-8.053-1.902-14.896-5.66-20.448c-3.748-5.604-9.516-10.162-17.235-13.807c-6.528-2.935-17.399-5.438-32.788-7.4
			c-15.33-1.952-26.42-3.748-33.326-5.33c-20.229-4.231-35.233-10.927-45.183-19.997c-9.95-9.093-14.898-20.671-14.898-34.8
			c0-17.734,8.647-32.573,25.988-44.592c17.293-12.005,39.532-17.995,66.608-17.995c14.405,0,28.055,1.36,40.777,4.134
			c12.724,2.712,25.821,7.12,39.202,13.155l-12.123,38.819l-2.88-0.321c-2.667-15.271-9.738-27.241-21.205-35.771
			c-11.479-8.542-26.16-12.833-44.1-12.833c-17.612,0-32.238,4.399-43.82,13.208c-11.637,8.811-17.457,19.785-17.457,32.846
			c0,6.793,1.797,12.828,5.328,18.148c3.533,5.329,8.653,9.459,15.221,12.396c9.033,4.299,25.174,8.057,48.447,11.313
			c9.844,1.421,17.455,2.553,22.778,3.537c19.845,3.373,34.586,9.401,44.208,17.995c9.623,8.602,14.415,19.952,14.415,34.096
			c0,20.873-9.14,38.329-27.407,52.194c-18.273,13.917-41.756,20.877-70.408,20.877c-18.384,0-35.779-1.854-52.202-5.491
			C2052.009,388.528,2037.657,383.312,2025.308,376.512L2025.308,376.512z M2425.259,391.842h-0.979
			c-11.578-0.435-19.953-0.647-25.113-0.647h-8.76c-2.764-4.897-5.104-9.95-7.067-15.119c-1.957-5.218-3.532-10.598-4.731-16.256
			c-6.354,11.629-15.059,20.507-26.092,26.536c-11.098,6.035-24.087,9.081-39.097,9.081c-20.497,0-36.698-4.841-48.659-14.519
			c-11.971-9.624-17.939-22.676-17.939-38.983c0-18.158,10.54-31.976,31.697-41.376c21.144-9.406,52.135-14.084,92.973-14.084
			l8.104-0.163c-0.553-21.747-5.17-37.733-13.874-48.014c-8.691-10.267-22.013-15.435-40.013-15.435
			c-16.529,0-29.956,3.805-40.128,11.357c-10.212,7.566-16.577,18.495-19.132,32.684h-1.744l-10.057-33.228
			c10.605-5.705,22.074-10.001,34.307-12.834c12.283-2.77,25.336-4.184,39.141-4.184c13.604,0,25.676,1.74,36.219,5.279
			c10.604,3.475,19.026,8.479,25.396,14.951c5.32,5.493,9.07,12.072,11.3,19.785c2.236,7.67,3.373,20.23,3.373,37.577v23.484
			c0,26.973,1.527,45.183,4.511,54.65c3.046,9.4,8.488,15.167,16.365,17.176V391.842L2425.259,391.842z M2379.595,293.325
			c-1.578-0.115-3.371-0.213-5.332-0.271c-1.955-0.058-4.898-0.058-8.695-0.058c-28.441,0-50.405,4.463-65.905,13.325
			c-15.446,8.856-23.162,21.475-23.162,37.894c0,12.725,4.132,22.948,12.454,30.616c8.265,7.663,19.249,11.466,32.948,11.466
			c17.95,0,32.081-5.709,42.303-17.125c10.281-11.467,15.39-27.237,15.39-47.462v-17.729V293.325L2379.595,293.325z
			 M2583.864,360.098c-6.146,12.122-14.404,21.099-24.846,26.913c-10.385,5.815-23.213,8.753-38.498,8.753
			c-14.246,0-26.316-2.123-36.268-6.316c-9.897-4.232-17.878-10.648-23.974-19.243c-3.808-5.381-6.53-11.903-8.106-19.514
			c-1.574-7.614-2.385-19.846-2.385-36.7v-8.868v-36.806c0-13.483-1.258-22.076-3.76-25.832c-2.441-3.751-7.176-5.81-14.189-6.252
			v-2.606c6.035-0.757,12.614-2.068,19.795-4.02c7.125-2.018,15.33-4.676,24.517-8.057c-0.378,9.195-0.706,18.111-0.925,26.807
			c-0.215,8.648-0.32,16.868-0.32,24.692v26.199c0,36.044,3.856,59.76,11.525,71.232c7.72,11.41,21.15,17.129,40.234,17.129
			c20.23,0,34.96-6.645,44.263-19.851c9.294-13.204,13.915-34.205,13.915-62.966v-27.186c0-18.645-1.25-30.07-3.693-34.351
			c-2.453-4.251-7.294-6.582-14.578-7.024l-0.164-2.606c7.13-1.141,14.356-2.774,21.594-4.784
			c7.283-2.011,14.836-4.403,22.555-7.292c-0.376,8.647-0.706,17.293-0.926,25.83c-0.215,8.537-0.317,17.127-0.317,25.669v31.418
			c0,35.289,1.466,57.861,4.459,67.753c2.987,9.896,8.425,15.652,16.413,17.343v2.279c-0.869,0-2.173-0.048-3.968-0.163
			c-10.714-0.326-18.324-0.484-22.779-0.484h-8.261c-2.445-4.733-4.628-9.62-6.529-14.683
			C2586.743,371.448,2585.167,366.021,2583.864,360.098L2583.864,360.098z M2521.175,199.042h-7.772l38.485-48.499
			c2.457-3.1,4.523-5.217,6.201-6.412c1.742-1.249,3.432-1.848,5.109-1.848c2.445,0,4.57,0.863,6.314,2.601
			c1.736,1.749,2.613,3.758,2.613,5.989c0,1.576-0.501,3.1-1.418,4.512c-0.977,1.477-2.986,3.476-6.09,6.134L2521.175,199.042
			L2521.175,199.042z M2743.551,224.486c-19.407,0-34.747,7.187-45.942,21.589c-11.205,14.355-16.799,34.033-16.799,58.939
			c0,26.418,5.436,46.921,16.305,61.441c10.877,14.509,26.157,21.793,45.781,21.793c19.029,0,33.599-7.053,43.713-21.146
			c10.173-14.123,15.223-34.519,15.223-61.111c0-26.096-5.05-46.217-15.117-60.35
			C2776.61,231.558,2762.251,224.486,2743.551,224.486L2743.551,224.486z M2801.831,213.182v-3.371
			c0-18.923-1.244-30.507-3.747-34.796c-2.503-4.349-7.343-6.638-14.52-6.964v-2.61c8-1.129,15.61-2.77,22.946-4.771
			c7.338-2.022,14.352-4.415,21.038-7.293c-0.38,7.661-0.697,15.272-0.919,22.779c-0.211,7.564-0.328,16.471-0.328,26.809v9.893
			V317.41c0,27.628,1.471,46.108,4.453,55.404c2.995,9.349,8.328,14.952,16.105,16.748v2.279c-3.701-0.21-7.558-0.378-11.524-0.489
			c-4.03-0.102-9.411-0.158-16.212-0.158h-7.118c-2.668-4.354-4.949-8.812-6.91-13.379c-1.956-4.617-3.583-9.304-4.841-14.074
			c-7.666,10.434-16.795,18.322-27.404,23.645c-10.65,5.383-22.507,8.051-35.55,8.051c-24.741,0-45.347-8.27-61.827-24.845
			c-16.471-16.53-24.684-37.63-24.684-63.181c0-25.281,8.436-46.651,25.234-64.154c16.847-17.508,37.733-26.266,62.581-26.266
			c14.183,0,26.854,3.205,38.005,9.621c11.09,6.414,19.515,15.445,25.221,27.028V213.182L2801.831,213.182z M3031.876,321.051
			l4.949,6.532c-6.629,22.506-17.072,39.52-31.314,51.002c-14.307,11.471-32.301,17.179-53.933,17.179
			c-26.263,0-47.74-8.433-64.54-25.341c-16.809-16.853-25.185-38.445-25.185-64.76c0-25.988,8.269-47.296,24.854-63.826
			c16.578-16.58,38.005-24.846,64.213-24.846c23.159,0,42.08,5.986,56.814,17.994c14.682,12.012,23.271,28.384,25.714,49.202
			h-140.596c-0.222,3.215-0.386,6.308-0.493,9.302c-0.106,3.044-0.161,6.695-0.161,10.927c0,25.067,6.093,44.967,18.323,59.759
			c12.18,14.733,28.488,22.122,48.881,22.122c17.614,0,32.566-5.542,44.855-16.587
			C3016.487,358.62,3025.733,342.426,3031.876,321.051L3031.876,321.051z M2893.937,277.346h107.549
			c-0.648-16.703-5.489-29.907-14.576-39.754c-9.075-9.839-20.926-14.729-35.611-14.729c-14.73,0-27.135,4.726-37.133,14.19
			C2904.214,246.513,2897.472,259.941,2893.937,277.346z"/>
		<path fill-rule="evenodd" clip-rule="evenodd" fill="#FFFFFF" d="M2947.716,395.697v-10.276c3.729,0.582,7.628,0.876,11.688,0.876
			c17.614,0,32.566-5.542,44.855-16.587c12.229-11.09,21.475-27.284,27.617-48.659l4.949,6.532
			c-6.629,22.506-17.072,39.52-31.314,51.002c-14.307,11.471-32.301,17.179-53.933,17.179
			C2950.272,395.764,2948.987,395.74,2947.716,395.697L2947.716,395.697z M2947.716,284.188v-6.842h53.77
			c-0.648-16.703-5.489-29.907-14.576-39.754c-9.075-9.839-20.926-14.729-35.611-14.729c-1.215,0-2.4,0.034-3.582,0.098v-5.931
			c1.058-0.025,2.121-0.039,3.205-0.039c23.159,0,42.08,5.986,56.814,17.994c14.682,12.012,23.271,28.384,25.714,49.202H2947.716z
			 M2947.716,217.03v5.931c-13.176,0.706-24.371,5.413-33.551,14.093c-9.951,9.459-16.693,22.888-20.229,40.292h53.779v6.842
			h-54.862c-0.222,3.215-0.386,6.308-0.493,9.302c-0.106,3.044-0.161,6.695-0.161,10.927c0,25.067,6.093,44.967,18.323,59.759
			c9.754,11.805,22.164,18.891,37.193,21.246v10.276c-24.52-0.784-44.72-9.205-60.678-25.274
			c-16.809-16.853-25.185-38.445-25.185-64.76c0-25.988,8.269-47.296,24.854-63.826
			C2902.608,225.931,2922.966,217.678,2947.716,217.03L2947.716,217.03z M2741.321,395.354v-7.118l1.574,0.014
			c19.029,0,33.599-7.053,43.713-21.146c10.173-14.123,15.223-34.519,15.223-61.111c0-26.096-5.05-46.217-15.117-60.35
			c-10.104-14.084-24.463-21.155-43.163-21.155c-0.753,0-1.491,0.019-2.229,0.032v-7.488c13.092,0.383,24.865,3.578,35.289,9.582
			c11.09,6.414,19.515,15.445,25.221,27.028v-40.459v-3.371c0-18.923-1.244-30.507-3.747-34.796
			c-2.503-4.349-7.343-6.638-14.52-6.964v-2.61c8-1.129,15.61-2.77,22.946-4.771c7.338-2.022,14.352-4.415,21.038-7.293
			c-0.38,7.661-0.697,15.272-0.919,22.779c-0.211,7.564-0.328,16.471-0.328,26.809v9.893V317.41c0,27.628,1.471,46.108,4.453,55.404
			c2.995,9.349,8.328,14.952,16.105,16.748v2.279c-3.701-0.21-7.558-0.378-11.524-0.489c-4.03-0.102-9.411-0.158-16.212-0.158
			h-7.118c-2.668-4.354-4.949-8.812-6.91-13.379c-1.956-4.617-3.583-9.304-4.841-14.074c-7.666,10.434-16.795,18.322-27.404,23.645
			C2763.302,392.211,2752.794,394.854,2741.321,395.354z M2741.321,217.03v7.488c-18.357,0.542-32.945,7.711-43.713,21.557
			c-11.205,14.355-16.799,34.033-16.799,58.939c0,26.418,5.436,46.921,16.305,61.441c10.584,14.126,25.336,21.398,44.207,21.779
			v7.118c-1.33,0.052-2.666,0.083-4.021,0.083c-24.741,0-45.347-8.27-61.827-24.845c-16.471-16.53-24.684-37.63-24.684-63.181
			c0-25.281,8.436-46.651,25.234-64.154c16.847-17.508,37.733-26.266,62.581-26.266
			C2739.517,216.991,2740.418,217.005,2741.321,217.03L2741.321,217.03z M2328.046,394.377v-8.306
			c15.054-1.187,27.133-6.812,36.159-16.899c10.281-11.467,15.39-27.237,15.39-47.462v-17.729v-10.656
			c-1.578-0.115-3.371-0.213-5.332-0.271c-1.955-0.058-4.898-0.058-8.695-0.058c-14.1,0-26.604,1.101-37.521,3.283v-7.647
			c12.972-1.445,27.453-2.157,43.445-2.157l8.104-0.163c-0.553-21.747-5.17-37.733-13.874-48.014
			c-8.315-9.826-20.858-14.978-37.675-15.413v-6.226h0.049c13.604,0,25.676,1.74,36.219,5.279
			c10.604,3.475,19.026,8.479,25.396,14.951c5.32,5.493,9.07,12.072,11.3,19.785c2.236,7.67,3.373,20.23,3.373,37.577v23.484
			c0,26.973,1.527,45.183,4.511,54.65c3.046,9.4,8.488,15.167,16.365,17.176v2.279h-0.979c-11.578-0.435-19.953-0.647-25.113-0.647
			h-8.76c-2.764-4.897-5.104-9.95-7.067-15.119c-1.957-5.218-3.532-10.598-4.731-16.256c-6.354,11.629-15.059,20.507-26.092,26.536
			C2345.2,390.335,2337.052,393.015,2328.046,394.377L2328.046,394.377z M2583.864,360.098
			c-6.146,12.122-14.404,21.099-24.846,26.913c-10.385,5.815-23.213,8.753-38.498,8.753c-14.246,0-26.316-2.123-36.268-6.316
			c-9.897-4.232-17.878-10.648-23.974-19.243c-3.808-5.381-6.53-11.903-8.106-19.514c-1.574-7.614-2.385-19.846-2.385-36.7v-8.868
			v-36.806c0-13.483-1.258-22.076-3.76-25.832c-2.441-3.751-7.176-5.81-14.189-6.252v-2.606c6.035-0.757,12.614-2.068,19.795-4.02
			c7.125-2.018,15.33-4.676,24.517-8.057c-0.378,9.195-0.706,18.111-0.925,26.807c-0.215,8.648-0.32,16.868-0.32,24.692v26.199
			c0,36.044,3.856,59.76,11.525,71.232c7.72,11.41,21.15,17.129,40.234,17.129c20.23,0,34.96-6.645,44.263-19.851
			c9.294-13.204,13.915-34.205,13.915-62.966v-27.186c0-18.645-1.25-30.07-3.693-34.351c-2.453-4.251-7.294-6.582-14.578-7.024
			l-0.164-2.606c7.13-1.141,14.356-2.774,21.594-4.784c7.283-2.011,14.836-4.403,22.555-7.292
			c-0.376,8.647-0.706,17.293-0.926,25.83c-0.215,8.537-0.317,17.127-0.317,25.669v31.418c0,35.289,1.466,57.861,4.459,67.753
			c2.987,9.896,8.425,15.652,16.413,17.343v2.279c-0.869,0-2.173-0.048-3.968-0.163c-10.714-0.326-18.324-0.484-22.779-0.484h-8.261
			c-2.445-4.733-4.628-9.62-6.529-14.683C2586.743,371.448,2585.167,366.021,2583.864,360.098L2583.864,360.098z M2521.175,199.042
			h-7.772l38.485-48.499c2.457-3.1,4.523-5.217,6.201-6.412c1.742-1.249,3.432-1.848,5.109-1.848c2.445,0,4.57,0.863,6.314,2.601
			c1.736,1.749,2.613,3.758,2.613,5.989c0,1.576-0.501,3.1-1.418,4.512c-0.977,1.477-2.986,3.476-6.09,6.134L2521.175,199.042z
			 M2328.046,216.659v6.226c-0.771-0.013-1.548-0.021-2.338-0.021c-16.529,0-29.956,3.805-40.128,11.357
			c-10.212,7.566-16.577,18.495-19.132,32.684h-1.744l-10.057-33.228c10.605-5.705,22.074-10.001,34.307-12.834
			C2301.224,218.079,2314.259,216.669,2328.046,216.659L2328.046,216.659z M2328.046,288.632v7.647
			c-11.109,2.231-20.564,5.576-28.384,10.042c-15.446,8.856-23.162,21.475-23.162,37.894c0,12.725,4.132,22.948,12.454,30.616
			c8.265,7.663,19.249,11.466,32.948,11.466c2.1,0,4.149-0.084,6.144-0.226v8.306c-4.641,0.705-9.516,1.06-14.626,1.06
			c-20.497,0-36.698-4.841-48.659-14.519c-11.971-9.624-17.939-22.676-17.939-38.983c0-18.158,10.54-31.976,31.697-41.376
			C2291.384,294.836,2307.894,290.863,2328.046,288.632L2328.046,288.632z M1781.509,396.456v-11.881
			c2.411,0.278,4.88,0.42,7.396,0.42c9.459,0,17.943-1.568,25.496-4.669c7.506-3.157,14.355-7.998,20.557-14.585
			c-15.004-12.282-28.875-24.674-41.645-37.126c-4.037-3.954-7.975-7.926-11.805-11.91v-34.873
			c7.175,8.206,16.095,17.397,26.701,27.53c11.149,10.656,25.065,23.107,41.702,37.465c3.208-5.332,5.545-10.271,7.015-14.899
			c1.468-4.625,2.225-9.079,2.225-13.428c0-9.138-2.775-16.482-8.369-22.076c-5.553-5.543-13.102-8.537-22.672-8.972v-2.281
			l55.835,0.163c-0.975,13.372-3.584,25.824-7.831,37.408c-4.29,11.583-10.059,21.804-17.287,30.612
			c8.758,6.956,17.565,13.426,26.479,19.357c8.967,5.924,18.215,11.414,27.783,16.523v2.606h-0.926
			c-14.248-0.435-24.845-0.647-31.752-0.647h-11.795l-26.48-19.578c-10.771,8.596-21.697,14.903-32.891,18.979
			C1800.462,393.796,1791.218,395.749,1781.509,396.456L1781.509,396.456z M1781.509,280.265v-7.831
			c8.99-5.179,15.81-10.904,20.392-17.112c5.545-7.506,8.315-16.251,8.315-26.26c0-9.516-2.721-17.455-8.151-23.822
			c-5.389-6.299-12.123-9.457-20.226-9.457l-0.33,0.012v-6.631c1.893-0.147,3.837-0.228,5.816-0.228
			c12.346,0,22.789,3.748,31.43,11.253c8.649,7.448,12.996,16.47,12.996,26.973c0,10.104-4.299,19.621-12.886,28.547
			C1810.44,264.453,1797.986,272.615,1781.509,280.265L1781.509,280.265z M2025.308,376.512l13.322-47.297l2.287,0.319
			c2.824,17.832,11.635,32.409,26.422,43.721c14.732,11.304,32.355,16.965,52.854,16.965c19.13,0,34.903-4.953,47.298-14.896
			c12.451-9.903,18.652-22.245,18.652-37.03c0-8.053-1.902-14.896-5.66-20.448c-3.748-5.604-9.516-10.162-17.235-13.807
			c-6.528-2.935-17.399-5.438-32.788-7.4c-15.33-1.952-26.42-3.748-33.326-5.33c-20.229-4.231-35.233-10.927-45.183-19.997
			c-9.95-9.093-14.898-20.671-14.898-34.8c0-17.734,8.647-32.573,25.988-44.592c17.293-12.005,39.532-17.995,66.608-17.995
			c14.405,0,28.055,1.36,40.777,4.134c12.724,2.712,25.821,7.12,39.202,13.155l-12.123,38.819l-2.88-0.321
			c-2.667-15.271-9.738-27.241-21.205-35.771c-11.479-8.542-26.16-12.833-44.1-12.833c-17.612,0-32.238,4.399-43.82,13.208
			c-11.637,8.811-17.457,19.785-17.457,32.846c0,6.793,1.797,12.828,5.328,18.148c3.533,5.329,8.653,9.459,15.221,12.396
			c9.033,4.299,25.174,8.057,48.447,11.313c9.844,1.421,17.455,2.553,22.778,3.537c19.845,3.373,34.586,9.401,44.208,17.995
			c9.623,8.602,14.415,19.952,14.415,34.096c0,20.873-9.14,38.329-27.407,52.194c-18.273,13.917-41.756,20.877-70.408,20.877
			c-18.384,0-35.779-1.854-52.202-5.491C2052.009,388.528,2037.657,383.312,2025.308,376.512z M1781.509,189.164v6.631
			c-8.382,0.064-15.239,2.78-20.549,8.201c-5.438,5.496-8.162,12.452-8.162,20.935c0,7.774,1.856,15.656,5.497,23.647
			c3.699,8.046,9.57,17.022,17.62,26.864c1.951-0.984,3.813-1.985,5.594-3.009v7.831l-0.979,0.446l0.979,1.121v34.873
			c-8.293-8.633-16.104-17.359-23.427-26.21c-9.034,5.604-15.767,11.802-20.171,18.547c-4.41,6.686-6.638,14.19-6.638,22.509
			c0,14.404,5.71,26.914,17.177,37.519c9.613,8.879,20.632,14.053,33.059,15.506v11.881c-2.684,0.185-5.398,0.286-8.152,0.286
			c-20.666,0-37.844-5.005-51.385-15.06c-13.595-10.01-20.388-22.404-20.388-37.137c0-12.503,4.294-23.764,12.94-33.661
			c8.645-9.948,21.531-18.378,38.609-25.384c-6.59-9.795-11.428-18.539-14.576-26.324c-3.1-7.719-4.675-14.955-4.675-21.639
			c0-13.693,5.052-25.225,15.224-34.575C1757.907,194.816,1768.736,190.222,1781.509,189.164L1781.509,189.164z M1047.714,395.107
			v-6.858h0.377c19.959,0,35.348-7.169,46.115-21.573c10.764-14.356,16.146-34.913,16.146-61.661
			c0-26.256-5.498-46.595-16.472-61.063c-10.994-14.51-26.316-21.748-46.061-21.748h-0.105v-5.213h0.377
			c27.512,0,49.855,8.209,66.935,24.678c17.127,16.425,25.659,37.9,25.659,64.27c0,26.646-8.532,48.171-25.659,64.593
			C1098.095,386.759,1075.603,394.969,1047.714,395.107L1047.714,395.107z M1158.954,392.17v-2.607
			c7.998-2.336,13.426-6.955,16.42-13.922c2.996-7.013,4.465-22.024,4.465-45.179v-13.594v-43.113
			c0-17.622-1.256-28.333-3.752-32.145c-2.508-3.804-7.35-5.802-14.519-6.025l-0.161-2.609c5.759-1.255,12.016-2.831,18.699-4.62
			c6.688-1.797,14.357-4.025,22.841-6.806l-0.608,49.479c7.136-16.306,15.717-28.757,25.78-37.288
			c10.118-8.54,21.304-12.84,33.603-12.84c1.68,0,3.039,0,3.969,0.059c0.977,0.05,1.797,0.163,2.551,0.271l-12.45,35.888h-1.577
			c-2.116-2.771-4.511-4.837-7.169-6.152c-2.675-1.354-5.659-2.003-8.924-2.003c-10.763,0-18.975,4.997-24.626,14.997
			c-5.709,10.009-8.539,24.477-8.539,43.557v18.983c0,25.768,1.417,42.129,4.299,49.037c2.877,6.906,8.422,11.584,16.576,14.026
			l-0.163,2.607c-5.701-0.328-11.36-0.598-16.963-0.763c-5.548-0.156-11.034-0.213-16.472-0.213c-4.57,0-9.631,0.057-15.108,0.213
			C1171.576,391.572,1165.54,391.842,1158.954,392.17L1158.954,392.17z M1274.442,392.17v-2.607
			c7.99-2.336,13.428-6.955,16.423-13.922c2.986-7.013,4.461-22.024,4.461-45.179v-13.594v-43.113
			c0-17.622-1.263-28.333-3.755-32.145c-2.502-3.804-7.344-5.802-14.521-6.025l-0.16-2.609c5.765-1.255,12.023-2.831,18.707-4.62
			c6.685-1.797,14.347-4.025,22.83-6.806l-0.591,49.479c7.12-16.306,15.708-28.757,25.775-37.288
			c10.104-8.54,21.311-12.84,33.597-12.84c1.674,0,3.038,0,3.971,0.059c0.975,0.05,1.789,0.163,2.55,0.271l-12.458,35.888h-1.569
			c-2.12-2.771-4.52-4.837-7.177-6.152c-2.664-1.354-5.658-2.003-8.912-2.003c-10.773,0-18.978,4.997-24.636,14.997
			c-5.71,10.009-8.532,24.477-8.532,43.557v18.983c0,25.768,1.41,42.129,4.297,49.037c2.873,6.906,8.419,11.584,16.581,14.026
			l-0.163,2.607c-5.702-0.328-11.362-0.598-16.975-0.763c-5.535-0.156-11.025-0.213-16.465-0.213c-4.564,0-9.621,0.057-15.117,0.213
			C1287.061,391.572,1281.021,391.842,1274.442,392.17L1274.442,392.17z M1390.909,392.17v-2.607
			c8.104-2.442,13.646-7.499,16.634-15.224c3.044-7.779,4.569-23.707,4.569-47.955v-25.389v-34.254
			c0-12.782-1.256-20.935-3.746-24.584c-2.5-3.645-7.238-5.596-14.194-5.925l-0.165-2.606c5.924-0.757,12.291-2.011,19.083-3.915
			c6.8-1.843,15.175-4.569,25.066-8.161c-0.327,8.761-0.542,17.521-0.703,26.315c-0.165,8.759-0.214,17.514-0.214,26.267v20.063
			v24.463c0,28.884,1.457,47.255,4.453,55.305c2.994,7.986,8.696,13.158,17.07,15.601v2.607c-4.463-0.328-9.188-0.598-14.193-0.763
			c-5.002-0.156-11.791-0.213-20.393-0.213c-6.572,0-12.451,0.057-17.553,0.213C1401.456,391.572,1396.239,391.842,1390.909,392.17
			L1390.909,392.17z M1407.872,181.431c0-4.455,1.468-8.213,4.346-11.199c2.938-2.995,6.579-4.461,11.09-4.461
			c4.357,0,8.059,1.525,11.046,4.56c2.983,3.051,4.511,6.744,4.511,11.101c0,4.356-1.527,7.998-4.511,10.923
			c-2.987,2.946-6.688,4.407-11.046,4.407c-4.674,0-8.421-1.412-11.252-4.233C1409.28,189.689,1407.872,185.999,1407.872,181.431
			L1407.872,181.431z M1469.253,392.17v-2.607c7.998-2.336,13.432-6.955,16.426-13.922c2.994-7.013,4.453-22.024,4.453-45.179
			v-13.594v-43.113c0-17.622-1.246-28.333-3.748-32.145c-2.501-3.804-7.342-5.802-14.51-6.025l-0.166-2.609
			c5.757-1.255,12.008-2.831,18.702-4.62c6.685-1.797,14.355-4.025,22.837-6.806l-0.607,49.479
			c7.127-16.306,15.716-28.757,25.783-37.288c10.105-8.54,21.3-12.84,33.598-12.84c1.684,0,3.046,0,3.971,0.059
			c0.975,0.05,1.797,0.163,2.551,0.271l-12.453,35.888h-1.574c-2.125-2.771-4.511-4.837-7.176-6.152
			c-2.665-1.354-5.66-2.003-8.92-2.003c-10.761,0-18.973,4.997-24.634,14.997c-5.708,10.009-8.527,24.477-8.527,43.557v18.983
			c0,25.768,1.411,42.129,4.296,49.037c2.878,6.906,8.42,11.584,16.579,14.026l-0.165,2.607c-5.706-0.328-11.359-0.598-16.963-0.763
			c-5.545-0.156-11.035-0.213-16.472-0.213c-4.572,0-9.628,0.057-15.118,0.213C1481.879,391.572,1475.833,391.842,1469.253,392.17z
			 M732.581,376.512l13.32-47.297l2.288,0.319c2.821,17.832,11.631,32.409,26.415,43.721c14.739,11.304,32.353,16.965,52.86,16.965
			c19.129,0,34.895-4.953,47.296-14.896c12.452-9.903,18.655-22.245,18.655-37.03c0-8.053-1.906-14.896-5.66-20.448
			c-3.759-5.604-9.515-10.162-17.243-13.807c-6.521-2.935-17.39-5.438-32.778-7.4c-15.342-1.952-26.429-3.748-33.337-5.33
			c-20.22-4.231-35.225-10.927-45.182-19.997c-9.943-9.093-14.897-20.671-14.897-34.8c0-17.734,8.654-32.573,25.994-44.592
			c17.283-12.005,39.522-17.995,66.599-17.995c14.414,0,28.054,1.36,40.786,4.134c12.715,2.712,25.823,7.12,39.195,13.155
			l-12.126,38.819l-2.871-0.321c-2.672-15.271-9.744-27.241-21.211-35.771c-11.467-8.542-26.15-12.833-44.098-12.833
			c-17.605,0-32.24,4.399-43.819,13.208c-11.634,8.811-17.455,19.785-17.455,32.846c0,6.793,1.795,12.828,5.329,18.148
			c3.537,5.329,8.646,9.459,15.225,12.396c9.022,4.299,25.166,8.057,48.448,11.313c9.842,1.421,17.457,2.553,22.779,3.537
			c19.842,3.373,34.575,9.401,44.206,17.995c9.621,8.602,14.405,19.952,14.405,34.096c0,20.873-9.132,38.329-27.4,52.194
			c-18.274,13.917-41.751,20.877-70.414,20.877c-18.372,0-35.771-1.854-52.195-5.491
			C759.281,388.528,744.924,383.312,732.581,376.512L732.581,376.512z M1047.714,216.991v5.213
			c-19.737,0.033-35.095,7.26-46.112,21.748c-11.032,14.468-16.527,34.748-16.527,60.744c0,26.529,5.495,47.084,16.527,61.65
			c10.969,14.538,26.344,21.813,46.112,21.902v6.858h-0.705c-27.301,0-49.53-8.367-66.609-25.165
			c-17.128-16.751-25.658-38.611-25.658-65.578c0-25.664,8.694-46.658,26.045-62.962
			C998.101,225.217,1020.373,217.07,1047.714,216.991z"/>
	</g>
</g>
</svg>
