<?xml version="1.0" encoding="utf-8"?>
<!-- Generator: Adobe Illustrator 16.0.3, SVG Export Plug-In . SVG Version: 6.00 Build 0)  -->
<!DOCTYPE svg PUBLIC "-//W3C//DTD SVG 1.1//EN" "http://www.w3.org/Graphics/SVG/1.1/DTD/svg11.dtd">
<svg version="1.1" id="Camada_1" xmlns="http://www.w3.org/2000/svg" xmlns:xlink="http://www.w3.org/1999/xlink" x="0px" y="0px"
	 width="228.837px" height="334.979px" viewBox="0 0 228.837 334.979" enable-background="new 0 0 228.837 334.979"
	 xml:space="preserve">
<g>
	<path fill="#47303B" d="M35.989,321.472c-1.776,2.228-4.495,3.342-8.156,3.342c-1.963,0-3.666-0.713-5.106-2.139
		c-1.441-1.426-2.162-3.197-2.162-5.316c0-2.539,1.11-4.686,3.33-6.438c2.22-1.753,5.051-2.63,8.494-2.63
		c0.935,0,1.994,0.203,3.178,0.608c0-4.051-1.807-6.076-5.421-6.076c-2.773,0-4.907,0.748-6.403,2.243l-1.87-3.716
		c0.841-0.685,2.005-1.273,3.494-1.764c1.487-0.491,2.909-0.736,4.265-0.736c3.63,0,6.267,0.826,7.91,2.477
		c1.644,1.652,2.465,4.277,2.465,7.876v8.974c0,2.196,0.654,3.661,1.963,4.393v2.221c-1.808,0-3.159-0.258-4.055-0.771
		C37.021,323.505,36.378,322.655,35.989,321.472z M35.568,312.054c-1.402-0.312-2.383-0.468-2.944-0.468
		c-2.243,0-4.074,0.577-5.492,1.729c-1.418,1.153-2.126,2.517-2.126,4.09c0,2.602,1.534,3.902,4.604,3.902
		c2.244,0,4.23-1.066,5.959-3.201V312.054z"/>
</g>
<g>
	<path fill="#47303B" d="M106.122,301.351l-2.197,3.132c-0.452-0.452-1.25-0.88-2.395-1.285s-2.271-0.607-3.377-0.607
		c-2.415,0-4.331,0.845-5.749,2.535c-1.418,1.69-2.126,4.008-2.126,6.952c0,2.929,0.724,5.161,2.173,6.695
		c1.449,1.534,3.458,2.302,6.029,2.302c1.994,0,4.004-0.771,6.029-2.313l1.752,3.739c-2.383,1.542-5.336,2.313-8.856,2.313
		c-3.412,0-6.232-1.146-8.459-3.436c-2.228-2.29-3.342-5.391-3.342-9.301c0-3.988,1.157-7.189,3.47-9.604s5.48-3.622,9.5-3.622
		c1.293,0,2.695,0.272,4.206,0.817C104.291,300.214,105.405,300.774,106.122,301.351z M93.596,334.979l-0.561-2.313
		c1.215,0,2.228-0.21,3.038-0.631c0.81-0.421,1.215-1.005,1.215-1.753c0-1.153-0.701-1.729-2.103-1.729v-2.78
		c1.542,0,2.742,0.436,3.599,1.309c0.857,0.872,1.286,1.939,1.286,3.201c0,1.464-0.569,2.613-1.706,3.447
		C97.226,334.562,95.637,334.979,93.596,334.979z"/>
</g>
<g>
	<path fill="#47303B" d="M165.323,321.472c-1.776,2.228-4.495,3.342-8.156,3.342c-1.963,0-3.666-0.713-5.106-2.139
		c-1.441-1.426-2.162-3.197-2.162-5.316c0-2.539,1.11-4.686,3.33-6.438c2.22-1.753,5.051-2.63,8.494-2.63
		c0.935,0,1.994,0.203,3.178,0.608c0-4.051-1.807-6.076-5.421-6.076c-2.773,0-4.907,0.748-6.403,2.243l-1.87-3.716
		c0.841-0.685,2.005-1.273,3.494-1.764c1.487-0.491,2.909-0.736,4.265-0.736c3.63,0,6.267,0.826,7.91,2.477
		c1.644,1.652,2.465,4.277,2.465,7.876v8.974c0,2.196,0.654,3.661,1.963,4.393v2.221c-1.808,0-3.159-0.258-4.055-0.771
		C166.355,323.505,165.712,322.655,165.323,321.472z M164.902,312.054c-1.402-0.312-2.383-0.468-2.944-0.468
		c-2.243,0-4.074,0.577-5.492,1.729c-1.418,1.153-2.126,2.517-2.126,4.09c0,2.602,1.534,3.902,4.604,3.902
		c2.244,0,4.23-1.066,5.959-3.201V312.054z"/>
</g>
<g>
	<path fill="#47303B" d="M218.724,324.346v-21.289h-3.435v-3.738h7.945v25.027H218.724z M226.038,286.535l-5.281,7.782h-3.272
		l3.95-7.782H226.038z"/>
</g>
<path fill-rule="evenodd" clip-rule="evenodd" fill="#47303B" d="M112.272,151.453c-38.21-1.116-69.31-31.909-70.924-69.998h68.899
	v25.539l2.024,4.203V151.453z M187.489,81.455c-1.614,38.089-32.713,68.881-70.923,69.998v-40.256l2.024-4.203V81.455H187.489z"/>
<path fill-rule="evenodd" clip-rule="evenodd" fill="#365B40" d="M187.685,5.483c0.003,0.269,0.01,0.536,0.01,0.804v12.816
	c-0.18-0.001-0.36-0.006-0.541-0.006c-33.218,0-61.135,23.021-68.469,54.037c12.567-27.135,40.703-42.264,69.009-39.486v13.168
	c-25.987-4.879-52.755,5.348-68.819,26.384c19.418-17.198,45.936-21.449,68.819-13.233v13.655
	c-21.257-12-47.616-12.166-69.154-0.006h-0.059c0-0.032,0-0.063,0-0.094c0.343-37.636,30.954-68.044,68.671-68.044
	C187.332,5.477,187.508,5.482,187.685,5.483 M112.881,0h3.075v60.075h-3.075V0z M41.152,5.483c-0.002,0.269-0.01,0.536-0.01,0.804
	v12.816c0.18-0.001,0.361-0.006,0.541-0.006c33.218,0,61.135,23.021,68.468,54.037C97.583,45.999,69.449,30.87,41.142,33.648v13.168
	c25.988-4.879,52.756,5.348,68.819,26.384C90.542,56.001,64.025,51.75,41.142,59.966v13.655c21.257-12,47.616-12.166,69.154-0.006
	h0.059c0-0.032,0-0.063,0-0.094C110.011,35.885,79.4,5.477,41.683,5.477C41.505,5.477,41.329,5.482,41.152,5.483z"/>
<path fill-rule="evenodd" clip-rule="evenodd" fill="#47303B" d="M115.558,175.716c0.612,0,1.206,0.079,1.771,0.226
	c-0.823,0.584-1.36,1.545-1.36,2.631c0,1.781,1.444,3.225,3.225,3.225c1.239,0,2.315-0.7,2.855-1.725
	c0.336,0.819,0.521,1.716,0.521,2.657c0,3.874-3.14,7.014-7.014,7.014s-7.013-3.14-7.013-7.014S111.684,175.716,115.558,175.716"/>
<path fill="#365B40" d="M228.817,222.994c0.012,0.35,0.019,0.705,0.02,1.065v0.013v0.005v0.019l0,0.019v0.019v0.019v0.02v0.019
	v47.072h-11.354h-13.905c-2.624,0-5.74-0.233-9.312-0.701s-6.953-1.467-10.142-2.998c-3.189-1.53-5.896-3.77-8.101-6.697
	s-3.267-6.916-3.189-11.927c0.08-5.182,1.473-9.404,4.146-12.629c2.673-3.226,6.13-5.747,10.333-7.526
	c4.204-1.78,8.958-2.919,14.224-3.38c5.266-0.462,10.587-0.532,15.945-0.191v-0.511v-0.083c-0.001-0.558-0.017-1.1-0.045-1.625h0.02
	c-0.11-2.714-0.582-4.981-1.569-6.775c-1.144-2.079-2.641-3.746-4.464-4.975c-1.825-1.229-3.874-2.109-6.124-2.615
	c-2.249-0.506-4.406-0.857-6.442-1.021c-3.143-0.253-5.618-0.515-7.399-0.766s-3.274-0.681-4.465-1.276v-3.955h11.864
	c6.293,0,11.4,0.706,15.308,2.105c3.907,1.399,6.957,3.215,9.121,5.421c2.165,2.207,3.636,4.635,4.401,7.271
	c0.646,2.225,1.019,4.42,1.12,6.584H228.817z M217.484,231.335c-4.337-0.255-8.489-0.228-12.438,0.063
	c-3.948,0.292-7.469,1.07-10.524,2.296c-3.055,1.227-5.528,3.041-7.398,5.422c-1.871,2.381-2.856,5.534-2.935,9.44
	c-0.079,3.905,0.666,6.979,2.232,9.185s3.551,3.869,5.932,4.975c2.381,1.105,4.896,1.793,7.526,2.042
	c2.63,0.248,4.975,0.382,7.016,0.382h10.588V231.335z M162.219,201.612h11.863v3.955c-1.19,0.595-2.683,1.025-4.465,1.276
	c-1.781,0.25-4.255,0.513-7.398,0.766c-2.036,0.164-4.193,0.514-6.442,1.021c-2.25,0.505-4.299,1.386-6.123,2.615
	c-1.824,1.229-3.321,2.896-4.465,4.975c-1.144,2.079-1.595,4.792-1.595,8.1v46.944H132.24v-47.072c0-2.551,0.383-5.145,1.148-7.781
	c0.765-2.636,2.237-5.064,4.401-7.271c2.165-2.207,5.213-4.022,9.121-5.421S155.925,201.612,162.219,201.612z M121.234,201.612
	h-11.353v69.651h11.353V201.612z M87.671,201.612h11.354v49.113c0,3.479-0.791,6.595-2.36,9.313s-3.64,5.043-6.188,6.952
	c-2.547,1.91-5.485,3.381-8.802,4.401s-6.761,1.53-10.333,1.53c-3.572,0-7.016-0.51-10.333-1.53s-6.255-2.491-8.802-4.401
	c-2.547-1.909-4.596-4.234-6.123-6.952s-2.296-5.825-2.296-9.313v-49.113h11.354v48.603c0,4.839,1.386,8.827,4.146,11.927
	c2.76,3.101,6.783,4.656,12.056,4.656c5.272,0,9.316-1.556,12.119-4.656c2.802-3.1,4.209-7.079,4.209-11.927V201.612z M0,175.716
	h54.437v6.124H32.831v89.423H21.605v-89.423H0V175.716z"/>
</svg>
