<?xml version="1.0" encoding="utf-8"?>
<!-- Generator: Adobe Illustrator 16.0.3, SVG Export Plug-In . SVG Version: 6.00 Build 0)  -->
<!DOCTYPE svg PUBLIC "-//W3C//DTD SVG 1.1//EN" "http://www.w3.org/Graphics/SVG/1.1/DTD/svg11.dtd">
<svg version="1.1" id="Camada_1" xmlns="http://www.w3.org/2000/svg" xmlns:xlink="http://www.w3.org/1999/xlink" x="0px" y="0px"
	 width="3061.191px" height="782.057px" viewBox="0 0 3061.191 782.057" enable-background="new 0 0 3061.191 782.057"
	 xml:space="preserve">
<g>
	<path fill="none" stroke="#FFFFFF" stroke-width="5.3858" stroke-miterlimit="22.9256" d="M170.739,258.54
		c60.828,103.449,131.669,255.797,223.271,337.798c15.637,14.001,33.874,24.474,53.842,30.532
		c113.133,34.38,208.317-72.801,160.924-181.114c-8.554-19.563-21.031-39.089-35.262-61.576l-88.779-140.277"/>
	<path fill="#FFFFFF" d="M164.747,207.972c26.088,0,47.228,20.253,47.228,45.243c0,24.986-21.139,45.229-47.228,45.229
		c-26.078,0-47.229-20.241-47.229-45.229C117.52,228.226,138.669,207.972,164.747,207.972z"/>
	<path fill="#FFFFFF" d="M482.733,207.972c26.078,0,47.229,20.253,47.229,45.243c0,24.986-21.149,45.229-47.229,45.229
		s-47.228-20.241-47.228-45.229C435.506,228.226,456.655,207.972,482.733,207.972z"/>
	<path fill="none" stroke="#FFFFFF" stroke-width="5.3858" stroke-miterlimit="22.9256" d="M474.874,492.37
		c-60.827-103.45-131.669-255.807-223.277-337.809c-15.63-13.99-33.868-24.465-53.842-30.527
		C84.622,89.656-10.563,196.839,36.842,305.155c8.543,19.558,21.021,39.084,35.25,61.575l88.779,140.274"/>
	<path fill="#FFFFFF" d="M480.859,542.927c-26.077,0-47.228-20.241-47.228-45.235c0-24.981,21.149-45.229,47.228-45.229
		c26.079,0,47.229,20.245,47.229,45.229C528.087,522.685,506.938,542.927,480.859,542.927z"/>
	<path fill="#FFFFFF" d="M162.874,542.927c-26.078,0-47.229-20.241-47.229-45.235c0-24.981,21.149-45.229,47.229-45.229
		c26.085,0,47.228,20.245,47.228,45.229C210.101,522.685,188.958,542.927,162.874,542.927z"/>
	<path fill="none" stroke="#FFFFFF" stroke-width="5.3858" stroke-miterlimit="22.9256" d="M335.329,245.206
		c15.244-86.084,92.877-148.181,188.758-125.942c107.812,24.992,139.905,184.851,24.507,233.734"/>
	<path fill="none" stroke="#FFFFFF" stroke-width="5.3858" stroke-miterlimit="22.9256" d="M311.379,501.942
		c-15.244,86.096-92.877,148.191-188.757,125.953c-107.813-25-139.907-184.849-24.504-233.741"/>
	<path fill="#FFFFFF" d="M784.036,564.102c0,3.721-1.977,7.124-5.897,10.21c-3.944,3.073-8.835,4.607-14.701,4.607
		c-5.323,0-9.915-1.214-13.789-3.656c-4.396-2.74-6.602-6.436-6.602-11.134v-75.608c0-4.1,1.616-7.455,4.822-10.094
		c3.749-3.127,8.974-4.704,15.667-4.704h20.498v14.831h-10.646v-7.338h-9.854c-2.273,0-4.554,0.727-6.825,2.196
		c-2.273,1.468-3.421,3.176-3.421,5.142v75.548c0,1.867,1.042,3.498,3.116,4.915c2.076,1.42,4.448,2.136,7.13,2.136
		c2.55,0,4.823-0.633,6.833-1.912c2.01-1.269,3.02-2.984,3.02-5.139v-3.958h10.646v3.958H784.036z M891.938,577.462h-35.962V473.723
		h10.248v95.96h25.714V577.462L891.938,577.462z M973.124,577.462h-10.248V473.723h10.248V577.462L973.124,577.462z
		 M983.367,456.417l-15.092,11.257l-5.192-3.479l15.67-11.444L983.367,456.417L983.367,456.417z M1099.72,577.462h-10.664v-39.18
		l-20.08-24.644v63.822h-10.254V473.723h10.254v24.431l20.08,24.066v-48.497h10.664V577.462L1099.72,577.462z M1191.533,577.462
		h-10.243V473.723h10.243V577.462L1191.533,577.462z M1312.095,564.102c0,3.721-1.971,7.124-5.894,10.21
		c-3.95,3.073-8.84,4.607-14.695,4.607c-5.334,0-9.911-1.214-13.798-3.656c-4.39-2.74-6.596-6.436-6.596-11.134v-75.608
		c0-4.1,1.607-7.455,4.823-10.094c3.746-3.127,8.973-4.704,15.668-4.704h20.49v14.831h-10.647v-7.338h-9.843
		c-2.272,0-4.555,0.727-6.835,2.196c-2.271,1.468-3.414,3.176-3.414,5.142v75.548c0,1.867,1.036,3.498,3.11,4.915
		c2.082,1.42,4.463,2.136,7.139,2.136c2.541,0,4.822-0.633,6.823-1.912c2.011-1.269,3.02-2.984,3.02-5.139v-3.958h10.647
		L1312.095,564.102L1312.095,564.102z M1423.21,577.462h-10.845V536.97h-20.09v40.491h-10.246v-90.381
		c0-4.006,1.841-7.506,5.531-10.493c3.674-2.978,8.662-4.473,14.963-4.473c5.627,0,10.484,1.348,14.568,4.038
		c4.082,2.69,6.116,6.332,6.116,10.928v90.381H1423.21z M1412.365,529.48v-42.379c0-1.466-1.004-3.072-3.021-4.861
		c-1.999-1.757-4.278-2.641-6.821-2.641c-2.545,0-4.893,0.884-7.032,2.641c-2.137,1.789-3.216,3.396-3.216,4.861v42.379H1412.365
		L1412.365,529.48z M1707.509,564.13c0,4.011-1.943,7.459-5.813,10.395c-3.896,2.938-8.843,4.396-14.882,4.396
		c-5.621,0-10.441-1.363-14.463-4.101c-4.018-2.736-6.027-6.284-6.027-10.689v-77.075c0-3.912,1.879-7.356,5.626-10.395
		c3.75-3.023,8.705-4.545,14.864-4.545c5.627,0,10.493,1.372,14.57,4.104c4.083,2.741,6.125,6.333,6.125,10.836V564.13
		L1707.509,564.13z M1696.656,564.102v-77.021c0-1.659-1.002-3.332-3.011-4.99c-2.01-1.654-4.281-2.49-6.832-2.49
		c-2.541,0-4.892,0.836-7.022,2.49c-2.15,1.658-3.221,3.331-3.221,4.99v77.021c0,1.964,1.107,3.623,3.319,4.993
		c2.208,1.376,4.519,2.058,6.924,2.058c2.551,0,4.822-0.633,6.832-1.912C1695.654,567.972,1696.656,566.256,1696.656,564.102
		L1696.656,564.102z M1831.888,562.786c0,4.402-2.104,7.945-6.326,10.638c-4.223,2.69-9.003,4.038-14.365,4.038h-20.49V473.723
		h20.49c5.627,0,10.48,1.329,14.564,3.972c4.086,2.64,6.127,6.251,6.127,10.859V562.786L1831.888,562.786z M1821.036,562.638
		v-74.084c0-1.966-0.933-3.674-2.813-5.142c-1.866-1.471-4.216-2.196-7.026-2.196h-10.246v88.467h10.246
		c2.549,0,4.822-0.688,6.824-2.049C1820.03,566.256,1821.036,564.596,1821.036,562.638L1821.036,562.638z M1956.265,564.13
		c0,4.011-1.938,7.459-5.826,10.395c-3.887,2.938-8.834,4.396-14.87,4.396c-5.62,0-10.437-1.363-14.46-4.101
		c-4.02-2.736-6.021-6.284-6.021-10.689v-77.075c0-3.912,1.859-7.356,5.617-10.395c3.75-3.023,8.701-4.545,14.864-4.545
		c5.626,0,10.482,1.372,14.577,4.104c4.084,2.741,6.119,6.333,6.119,10.836V564.13L1956.265,564.13z M1945.421,564.102v-77.021
		c0-1.659-1.01-3.332-3.021-4.99c-2.011-1.654-4.281-2.49-6.832-2.49c-2.54,0-4.888,0.836-7.029,2.49
		c-2.143,1.658-3.207,3.331-3.207,4.99v77.021c0,1.964,1.098,3.623,3.313,4.993c2.207,1.376,4.521,2.058,6.925,2.058
		c2.55,0,4.821-0.633,6.832-1.912C1944.411,567.972,1945.421,566.256,1945.421,564.102L1945.421,564.102z M2080.449,577.462h-10.655
		v-39.18l-20.088-24.644v63.822h-10.248V473.723h10.248v24.431l20.088,24.066v-48.497h10.655V577.462L2080.449,577.462z
		 M2199.8,481.217h-15.267v96.245h-10.858v-96.245h-15.063v-7.493h41.188V481.217L2199.8,481.217z M2318.751,564.13
		c0,4.011-1.943,7.459-5.834,10.395c-3.875,2.938-8.832,4.396-14.868,4.396c-5.62,0-10.442-1.363-14.462-4.101
		c-4.02-2.736-6.021-6.284-6.021-10.689v-77.075c0-3.912,1.872-7.356,5.619-10.395c3.747-3.023,8.713-4.545,14.864-4.545
		c5.634,0,10.495,1.372,14.571,4.104c4.09,2.741,6.132,6.333,6.132,10.836L2318.751,564.13L2318.751,564.13z M2307.894,564.102
		v-77.021c0-1.659-1.005-3.332-3.013-4.99c-2.009-1.654-4.282-2.49-6.832-2.49c-2.542,0-4.89,0.836-7.022,2.49
		c-2.14,1.658-3.227,3.331-3.227,4.99v77.021c0,1.964,1.12,3.623,3.324,4.993c2.205,1.376,4.521,2.058,6.925,2.058
		c2.55,0,4.823-0.633,6.832-1.912C2306.889,567.972,2307.894,566.256,2307.894,564.102L2307.894,564.102z M2437.9,577.462h-35.963
		V473.723h10.247v95.96h25.716V577.462L2437.9,577.462z M2551.829,564.13c0,4.011-1.945,7.459-5.82,10.395
		c-3.892,2.938-8.844,4.396-14.863,4.396c-5.628,0-10.443-1.363-14.472-4.101c-4.022-2.736-6.032-6.284-6.032-10.689v-77.075
		c0-3.912,1.881-7.356,5.631-10.395c3.748-3.023,8.701-4.545,14.873-4.545c5.619,0,10.48,1.372,14.564,4.104
		c4.076,2.741,6.119,6.333,6.119,10.836V564.13L2551.829,564.13z M2540.985,564.102v-77.021c0-1.659-1.006-3.332-3.017-4.99
		c-2.001-1.654-4.281-2.49-6.823-2.49c-2.555,0-4.892,0.836-7.033,2.49c-2.146,1.658-3.223,3.331-3.223,4.99v77.021
		c0,1.964,1.106,3.623,3.325,4.993c2.201,1.376,4.517,2.058,6.931,2.058c2.542,0,4.822-0.633,6.823-1.912
		C2539.979,567.972,2540.985,566.256,2540.985,564.102L2540.985,564.102z M2541.989,456.122l-15.102,11.254l-5.187-3.479
		l15.666-11.434L2541.989,456.122L2541.989,456.122z M2676.007,577.462h-20.488c-5.621,0-10.314-1.231-14.064-3.677
		c-4.289-2.732-6.427-6.397-6.427-10.999v-74.231c0-4.117,1.605-7.488,4.819-10.127c3.75-3.127,8.977-4.704,15.672-4.704h20.488
		v14.831h-10.645v-7.338h-9.845c-2.414,0-4.721,0.763-6.932,2.271c-2.209,1.516-3.317,3.207-3.317,5.067v74.084
		c0,1.858,1.175,3.5,3.52,4.911c2.34,1.429,4.85,2.134,7.533,2.134h9.042V536.97h-5.836v-7.489h16.479L2676.007,577.462
		L2676.007,577.462z M2771.86,577.462h-10.243V473.723h10.243V577.462L2771.86,577.462z M2898.447,564.102
		c0,3.721-1.977,7.124-5.899,10.21c-3.942,3.073-8.841,4.607-14.695,4.607c-5.327,0-9.911-1.214-13.8-3.656
		c-4.379-2.74-6.592-6.436-6.592-11.134v-75.608c0-4.1,1.605-7.455,4.821-10.094c3.755-3.127,8.974-4.704,15.668-4.704h20.497
		v14.831h-10.646v-7.338h-9.852c-2.274,0-4.555,0.727-6.827,2.196c-2.279,1.468-3.414,3.176-3.414,5.142v75.548
		c0,1.867,1.036,3.498,3.11,4.915c2.074,1.42,4.455,2.136,7.132,2.136c2.548,0,4.821-0.633,6.832-1.912
		c2.01-1.269,3.019-2.984,3.019-5.139v-3.958h10.646V564.102L2898.447,564.102z M3017.595,577.462h-10.844V536.97h-20.091v40.491
		h-10.243v-90.381c0-4.006,1.838-7.506,5.528-10.493c3.675-2.978,8.663-4.473,14.963-4.473c5.627,0,10.48,1.348,14.566,4.038
		c4.084,2.69,6.118,6.332,6.118,10.928v90.381H3017.595z M3006.751,529.48v-42.379c0-1.466-1.007-3.072-3.009-4.861
		c-2.013-1.757-4.292-2.641-6.834-2.641c-2.545,0-4.893,0.884-7.03,2.641c-2.142,1.789-3.218,3.396-3.218,4.861v42.379H3006.751z"/>
	<g>
		<path fill="#FFFFFF" d="M732.581,376.512l13.319-47.298l2.288,0.319c2.821,17.832,11.631,32.409,26.415,43.721
			c14.739,11.305,32.353,16.966,52.86,16.966c19.129,0,34.895-4.953,47.296-14.896c12.452-9.903,18.655-22.245,18.655-37.03
			c0-8.053-1.906-14.896-5.66-20.447c-3.76-5.604-9.516-10.162-17.243-13.808c-6.521-2.935-17.39-5.438-32.778-7.399
			c-15.342-1.952-26.429-3.748-33.337-5.33c-20.22-4.231-35.225-10.928-45.182-19.997c-9.943-9.093-14.897-20.671-14.897-34.8
			c0-17.734,8.654-32.573,25.994-44.593c17.283-12.005,39.522-17.994,66.6-17.994c14.414,0,28.054,1.359,40.785,4.134
			c12.715,2.712,25.823,7.12,39.195,13.154l-12.126,38.819l-2.871-0.321c-2.672-15.271-9.744-27.24-21.211-35.771
			c-11.467-8.542-26.149-12.833-44.098-12.833c-17.605,0-32.24,4.398-43.819,13.208c-11.634,8.811-17.455,19.785-17.455,32.846
			c0,6.793,1.795,12.828,5.329,18.148c3.537,5.329,8.646,9.459,15.226,12.396c9.021,4.299,25.166,8.058,48.447,11.313
			c9.842,1.421,17.457,2.553,22.779,3.537c19.842,3.373,34.575,9.4,44.206,17.995c9.621,8.602,14.405,19.951,14.405,34.096
			c0,20.873-9.133,38.329-27.4,52.194c-18.274,13.917-41.751,20.877-70.414,20.877c-18.372,0-35.771-1.854-52.195-5.491
			C759.281,388.528,744.924,383.312,732.581,376.512L732.581,376.512z M985.073,304.696c0,26.529,5.495,47.084,16.527,61.65
			c11.046,14.617,26.538,21.901,46.489,21.901c19.959,0,35.348-7.169,46.114-21.572c10.765-14.356,16.146-34.913,16.146-61.661
			c0-26.257-5.498-46.596-16.473-61.063c-10.993-14.51-26.315-21.748-46.061-21.748c-19.795,0-35.172,7.238-46.218,21.748
			C990.569,258.42,985.073,278.7,985.073,304.696L985.073,304.696z M954.741,304.364c0-25.664,8.694-46.658,26.045-62.962
			c17.397-16.261,39.791-24.411,67.305-24.411c27.512,0,49.854,8.209,66.935,24.678c17.127,16.426,25.659,37.9,25.659,64.271
			c0,26.646-8.532,48.171-25.659,64.593c-17.079,16.362-39.8,24.576-68.017,24.576c-27.302,0-49.53-8.367-66.609-25.165
			C963.271,353.191,954.741,331.331,954.741,304.364L954.741,304.364z M1158.953,392.17v-2.606
			c7.998-2.336,13.427-6.955,16.421-13.922c2.995-7.014,4.465-22.024,4.465-45.18v-13.594v-43.113
			c0-17.621-1.256-28.333-3.752-32.145c-2.509-3.804-7.351-5.802-14.52-6.025l-0.161-2.608c5.759-1.255,12.017-2.831,18.699-4.62
			c6.688-1.797,14.357-4.025,22.841-6.806l-0.607,49.479c7.136-16.306,15.717-28.757,25.779-37.288
			c10.118-8.54,21.305-12.84,33.604-12.84c1.68,0,3.039,0,3.969,0.059c0.977,0.051,1.797,0.163,2.551,0.271l-12.449,35.888h-1.577
			c-2.116-2.771-4.512-4.837-7.169-6.151c-2.676-1.354-5.659-2.003-8.924-2.003c-10.764,0-18.976,4.996-24.627,14.996
			c-5.709,10.01-8.538,24.478-8.538,43.558v18.982c0,25.769,1.417,42.13,4.299,49.037c2.877,6.906,8.422,11.584,16.576,14.026
			l-0.163,2.606c-5.701-0.327-11.36-0.598-16.963-0.763c-5.549-0.156-11.034-0.213-16.473-0.213c-4.569,0-9.631,0.057-15.107,0.213
			C1171.575,391.572,1165.54,391.843,1158.953,392.17L1158.953,392.17z M1274.442,392.17v-2.606
			c7.99-2.336,13.428-6.955,16.423-13.922c2.986-7.014,4.461-22.024,4.461-45.18v-13.594v-43.113
			c0-17.621-1.263-28.333-3.755-32.145c-2.502-3.804-7.344-5.802-14.521-6.025l-0.16-2.608c5.765-1.255,12.022-2.831,18.707-4.62
			c6.685-1.797,14.347-4.025,22.83-6.806l-0.591,49.479c7.12-16.306,15.708-28.757,25.774-37.288
			c10.104-8.54,21.312-12.84,33.598-12.84c1.674,0,3.037,0,3.971,0.059c0.975,0.051,1.789,0.163,2.55,0.271l-12.458,35.888h-1.568
			c-2.12-2.771-4.521-4.837-7.178-6.151c-2.664-1.354-5.658-2.003-8.912-2.003c-10.772,0-18.978,4.996-24.636,14.996
			c-5.71,10.01-8.532,24.478-8.532,43.558v18.982c0,25.769,1.41,42.13,4.297,49.037c2.873,6.906,8.42,11.584,16.582,14.026
			l-0.163,2.606c-5.702-0.327-11.362-0.598-16.976-0.763c-5.535-0.156-11.024-0.213-16.465-0.213c-4.563,0-9.621,0.057-15.117,0.213
			C1287.061,391.572,1281.021,391.843,1274.442,392.17L1274.442,392.17z M1390.908,392.17v-2.606
			c8.104-2.442,13.646-7.499,16.635-15.225c3.044-7.778,4.568-23.707,4.568-47.954v-25.39v-34.254
			c0-12.782-1.256-20.935-3.746-24.584c-2.5-3.645-7.237-5.596-14.193-5.925l-0.165-2.606c5.924-0.757,12.291-2.011,19.083-3.915
			c6.8-1.843,15.175-4.568,25.065-8.16c-0.326,8.761-0.542,17.521-0.703,26.314c-0.164,8.759-0.214,17.514-0.214,26.268v20.063
			v24.463c0,28.884,1.457,47.255,4.453,55.305c2.994,7.986,8.696,13.158,17.07,15.602v2.606c-4.463-0.327-9.188-0.598-14.193-0.763
			c-5.002-0.156-11.791-0.213-20.393-0.213c-6.572,0-12.451,0.057-17.553,0.213C1401.456,391.572,1396.239,391.843,1390.908,392.17
			L1390.908,392.17z M1407.871,181.431c0-4.455,1.469-8.213,4.347-11.199c2.938-2.995,6.578-4.461,11.09-4.461
			c4.356,0,8.059,1.524,11.046,4.56c2.983,3.051,4.511,6.744,4.511,11.102c0,4.355-1.527,7.998-4.511,10.923
			c-2.987,2.946-6.688,4.407-11.046,4.407c-4.674,0-8.421-1.412-11.252-4.233C1409.28,189.689,1407.871,185.999,1407.871,181.431
			L1407.871,181.431z M1469.253,392.17v-2.606c7.998-2.336,13.432-6.955,16.426-13.922c2.994-7.014,4.453-22.024,4.453-45.18
			v-13.594v-43.113c0-17.621-1.246-28.333-3.748-32.145c-2.501-3.804-7.342-5.802-14.51-6.025l-0.166-2.608
			c5.757-1.255,12.008-2.831,18.701-4.62c6.686-1.797,14.355-4.025,22.838-6.806l-0.607,49.479
			c7.127-16.306,15.716-28.757,25.783-37.288c10.104-8.54,21.3-12.84,33.598-12.84c1.684,0,3.046,0,3.971,0.059
			c0.976,0.051,1.797,0.163,2.551,0.271l-12.452,35.888h-1.574c-2.125-2.771-4.511-4.837-7.176-6.151
			c-2.665-1.354-5.66-2.003-8.921-2.003c-10.761,0-18.973,4.996-24.634,14.996c-5.708,10.01-8.526,24.478-8.526,43.558v18.982
			c0,25.769,1.41,42.13,4.296,49.037c2.878,6.906,8.42,11.584,16.579,14.026l-0.165,2.606c-5.706-0.327-11.359-0.598-16.964-0.763
			c-5.545-0.156-11.034-0.213-16.472-0.213c-4.572,0-9.628,0.057-15.118,0.213C1481.879,391.572,1475.833,391.843,1469.253,392.17
			L1469.253,392.17z M1775.915,275.442c11.795-5.939,20.489-12.681,25.984-20.121c5.545-7.506,8.314-16.251,8.314-26.26
			c0-9.517-2.721-17.455-8.15-23.822c-5.389-6.299-12.123-9.457-20.227-9.457c-8.536,0-15.498,2.715-20.879,8.212
			c-5.438,5.496-8.162,12.452-8.162,20.936c0,7.773,1.856,15.655,5.498,23.646C1761.993,256.624,1767.865,265.601,1775.915,275.442
			L1775.915,275.442z M1758.081,290.495c-9.033,5.604-15.767,11.802-20.171,18.547c-4.409,6.687-6.638,14.19-6.638,22.51
			c0,14.403,5.71,26.913,17.178,37.519c11.473,10.598,24.961,15.926,40.454,15.926c9.459,0,17.943-1.567,25.496-4.669
			c7.506-3.157,14.354-7.998,20.558-14.585c-15.004-12.282-28.875-24.674-41.646-37.126
			C1780.53,316.103,1768.784,303.432,1758.081,290.495L1758.081,290.495z M1913.089,391.843h-0.926
			c-14.248-0.436-24.846-0.647-31.752-0.647h-11.796l-26.479-19.578c-10.771,8.596-21.697,14.903-32.891,18.979
			c-11.207,4.075-23.168,6.146-35.89,6.146c-20.666,0-37.844-5.005-51.385-15.06c-13.595-10.011-20.388-22.404-20.388-37.138
			c0-12.503,4.293-23.764,12.939-33.66c8.645-9.948,21.531-18.379,38.609-25.385c-6.59-9.795-11.429-18.539-14.576-26.323
			c-3.101-7.72-4.676-14.955-4.676-21.64c0-13.692,5.053-25.225,15.225-34.575c10.104-9.353,22.887-14.027,38.219-14.027
			c12.346,0,22.789,3.748,31.43,11.253c8.649,7.448,12.996,16.47,12.996,26.973c0,10.104-4.299,19.621-12.886,28.547
			c-8.597,8.907-21.371,17.225-38.335,25.002c7.336,8.479,16.587,18.052,27.68,28.651c11.149,10.656,25.065,23.107,41.703,37.465
			c3.207-5.332,5.545-10.271,7.015-14.898c1.468-4.625,2.225-9.079,2.225-13.429c0-9.138-2.774-16.481-8.369-22.076
			c-5.553-5.543-13.102-8.536-22.672-8.972v-2.281l55.835,0.163c-0.975,13.372-3.584,25.824-7.831,37.408
			c-4.29,11.583-10.059,21.804-17.287,30.612c8.759,6.956,17.565,13.426,26.479,19.356c8.967,5.924,18.215,11.414,27.783,16.523
			V391.843L1913.089,391.843z M2025.308,376.512l13.322-47.298l2.287,0.319c2.823,17.832,11.635,32.409,26.422,43.721
			c14.731,11.305,32.354,16.966,52.854,16.966c19.13,0,34.903-4.953,47.299-14.896c12.45-9.903,18.651-22.245,18.651-37.03
			c0-8.053-1.901-14.896-5.659-20.447c-3.748-5.604-9.517-10.162-17.235-13.808c-6.528-2.935-17.399-5.438-32.788-7.399
			c-15.33-1.952-26.42-3.748-33.326-5.33c-20.229-4.231-35.232-10.928-45.184-19.997c-9.949-9.093-14.897-20.671-14.897-34.8
			c0-17.734,8.647-32.573,25.988-44.593c17.293-12.005,39.532-17.994,66.607-17.994c14.405,0,28.056,1.359,40.777,4.134
			c12.724,2.712,25.821,7.12,39.202,13.154l-12.123,38.819l-2.88-0.321c-2.667-15.271-9.738-27.24-21.205-35.771
			c-11.479-8.542-26.16-12.833-44.101-12.833c-17.611,0-32.238,4.398-43.82,13.208c-11.637,8.811-17.457,19.785-17.457,32.846
			c0,6.793,1.798,12.828,5.328,18.148c3.533,5.329,8.653,9.459,15.221,12.396c9.033,4.299,25.175,8.058,48.447,11.313
			c9.844,1.421,17.455,2.553,22.778,3.537c19.845,3.373,34.586,9.4,44.208,17.995c9.623,8.602,14.415,19.951,14.415,34.096
			c0,20.873-9.14,38.329-27.407,52.194c-18.272,13.917-41.756,20.877-70.408,20.877c-18.384,0-35.778-1.854-52.201-5.491
			C2052.009,388.528,2037.656,383.312,2025.308,376.512L2025.308,376.512z M2425.259,391.843h-0.979
			c-11.577-0.436-19.952-0.647-25.112-0.647h-8.761c-2.764-4.897-5.104-9.95-7.066-15.119c-1.957-5.218-3.532-10.598-4.731-16.256
			c-6.354,11.629-15.059,20.507-26.092,26.536c-11.098,6.035-24.087,9.081-39.097,9.081c-20.497,0-36.698-4.841-48.659-14.52
			c-11.971-9.624-17.939-22.676-17.939-38.982c0-18.158,10.541-31.977,31.697-41.376c21.145-9.406,52.135-14.084,92.973-14.084
			l8.104-0.163c-0.553-21.747-5.17-37.733-13.874-48.015c-8.691-10.267-22.013-15.435-40.013-15.435
			c-16.529,0-29.956,3.805-40.128,11.357c-10.212,7.565-16.577,18.494-19.133,32.684h-1.743l-10.058-33.229
			c10.605-5.704,22.074-10.001,34.308-12.834c12.282-2.77,25.336-4.184,39.141-4.184c13.604,0,25.677,1.74,36.22,5.279
			c10.604,3.475,19.025,8.479,25.396,14.951c5.32,5.492,9.07,12.071,11.3,19.784c2.236,7.671,3.373,20.23,3.373,37.577v23.484
			c0,26.973,1.527,45.183,4.512,54.649c3.045,9.4,8.487,15.167,16.364,17.177L2425.259,391.843L2425.259,391.843z M2379.595,293.325
			c-1.578-0.115-3.371-0.213-5.332-0.271c-1.955-0.059-4.898-0.059-8.695-0.059c-28.441,0-50.405,4.463-65.905,13.325
			c-15.446,8.856-23.162,21.475-23.162,37.894c0,12.726,4.132,22.948,12.454,30.616c8.266,7.663,19.249,11.466,32.948,11.466
			c17.95,0,32.081-5.709,42.303-17.125c10.281-11.467,15.39-27.236,15.39-47.462v-17.729V293.325L2379.595,293.325z
			 M2583.864,360.098c-6.146,12.122-14.403,21.099-24.846,26.913c-10.385,5.814-23.213,8.753-38.498,8.753
			c-14.246,0-26.315-2.123-36.269-6.316c-9.896-4.232-17.877-10.648-23.974-19.243c-3.808-5.381-6.53-11.903-8.106-19.514
			c-1.573-7.614-2.385-19.846-2.385-36.7v-8.868v-36.806c0-13.483-1.258-22.076-3.76-25.832c-2.441-3.751-7.176-5.811-14.189-6.252
			v-2.606c6.035-0.757,12.614-2.067,19.795-4.02c7.125-2.019,15.33-4.676,24.518-8.058c-0.378,9.195-0.706,18.111-0.925,26.808
			c-0.216,8.647-0.32,16.868-0.32,24.691v26.199c0,36.044,3.856,59.76,11.524,71.232c7.721,11.41,21.15,17.129,40.234,17.129
			c20.23,0,34.96-6.646,44.263-19.852c9.294-13.204,13.915-34.205,13.915-62.966v-27.186c0-18.646-1.25-30.07-3.693-34.352
			c-2.452-4.251-7.293-6.582-14.577-7.023l-0.164-2.606c7.13-1.141,14.355-2.773,21.594-4.784
			c7.283-2.011,14.836-4.402,22.555-7.292c-0.376,8.647-0.706,17.293-0.926,25.83c-0.215,8.537-0.317,17.127-0.317,25.669v31.418
			c0,35.289,1.467,57.861,4.459,67.753c2.987,9.896,8.426,15.652,16.414,17.344v2.278c-0.869,0-2.174-0.048-3.969-0.163
			c-10.714-0.325-18.324-0.483-22.779-0.483h-8.261c-2.444-4.733-4.628-9.62-6.528-14.684
			C2586.742,371.448,2585.167,366.021,2583.864,360.098L2583.864,360.098z M2521.175,199.042h-7.772l38.485-48.499
			c2.457-3.1,4.523-5.217,6.201-6.412c1.742-1.249,3.432-1.848,5.108-1.848c2.445,0,4.57,0.863,6.314,2.601
			c1.735,1.749,2.612,3.759,2.612,5.989c0,1.576-0.5,3.101-1.418,4.513c-0.977,1.477-2.985,3.476-6.09,6.134L2521.175,199.042
			L2521.175,199.042z M2743.551,224.486c-19.407,0-34.747,7.187-45.942,21.589c-11.205,14.355-16.799,34.033-16.799,58.939
			c0,26.418,5.436,46.921,16.305,61.44c10.877,14.509,26.157,21.793,45.781,21.793c19.029,0,33.6-7.053,43.713-21.146
			c10.173-14.123,15.223-34.52,15.223-61.111c0-26.096-5.05-46.217-15.117-60.35C2776.61,231.558,2762.251,224.486,2743.551,224.486
			L2743.551,224.486z M2801.831,213.182v-3.371c0-18.923-1.244-30.507-3.748-34.796c-2.502-4.35-7.343-6.639-14.52-6.964v-2.61
			c8-1.129,15.61-2.771,22.946-4.771c7.338-2.021,14.352-4.415,21.038-7.293c-0.38,7.661-0.697,15.272-0.919,22.779
			c-0.211,7.564-0.328,16.471-0.328,26.809v9.894V317.41c0,27.628,1.471,46.108,4.453,55.404
			c2.995,9.349,8.327,14.952,16.104,16.748v2.278c-3.701-0.21-7.558-0.378-11.523-0.488c-4.03-0.103-9.411-0.158-16.212-0.158
			h-7.118c-2.668-4.354-4.949-8.813-6.91-13.379c-1.956-4.617-3.583-9.304-4.841-14.074c-7.666,10.434-16.795,18.322-27.404,23.646
			c-10.649,5.383-22.507,8.051-35.55,8.051c-24.741,0-45.347-8.271-61.827-24.846c-16.471-16.529-24.684-37.63-24.684-63.181
			c0-25.281,8.436-46.651,25.233-64.154c16.848-17.508,37.733-26.266,62.581-26.266c14.184,0,26.854,3.205,38.005,9.621
			c11.09,6.414,19.516,15.445,25.221,27.028v-40.458H2801.831z M3031.876,321.052l4.948,6.531
			c-6.629,22.506-17.071,39.521-31.313,51.002c-14.307,11.472-32.301,17.18-53.934,17.18c-26.263,0-47.74-8.434-64.54-25.342
			c-16.809-16.853-25.185-38.444-25.185-64.76c0-25.987,8.269-47.296,24.854-63.826c16.578-16.58,38.005-24.846,64.213-24.846
			c23.159,0,42.08,5.986,56.814,17.994c14.682,12.012,23.271,28.384,25.714,49.202h-140.596c-0.222,3.215-0.386,6.308-0.493,9.302
			c-0.105,3.044-0.161,6.695-0.161,10.927c0,25.067,6.093,44.968,18.323,59.76c12.18,14.732,28.488,22.121,48.881,22.121
			c17.614,0,32.566-5.542,44.855-16.587C3016.487,358.62,3025.733,342.427,3031.876,321.052L3031.876,321.052z M2893.937,277.346
			h107.549c-0.647-16.703-5.488-29.907-14.576-39.754c-9.074-9.84-20.926-14.729-35.61-14.729c-14.73,0-27.136,4.726-37.134,14.19
			C2904.214,246.513,2897.472,259.941,2893.937,277.346z"/>
		<path fill="#FFFFFF" d="M2947.716,395.697v-10.276c3.729,0.582,7.628,0.876,11.688,0.876c17.614,0,32.566-5.542,44.855-16.587
			c12.229-11.09,21.475-27.283,27.617-48.658l4.948,6.531c-6.629,22.506-17.071,39.521-31.313,51.002
			c-14.307,11.472-32.301,17.18-53.934,17.18C2950.272,395.764,2948.987,395.74,2947.716,395.697L2947.716,395.697z
			 M2947.716,284.188v-6.842h53.77c-0.647-16.703-5.488-29.907-14.576-39.755c-9.074-9.839-20.926-14.729-35.61-14.729
			c-1.216,0-2.4,0.034-3.582,0.098v-5.931c1.058-0.025,2.121-0.039,3.205-0.039c23.159,0,42.08,5.986,56.813,17.994
			c14.682,12.012,23.271,28.384,25.715,49.202L2947.716,284.188L2947.716,284.188z M2947.716,217.03v5.931
			c-13.176,0.706-24.371,5.413-33.551,14.094c-9.951,9.459-16.693,22.888-20.229,40.292h53.779v6.842h-54.862
			c-0.222,3.215-0.386,6.308-0.493,9.302c-0.105,3.044-0.161,6.695-0.161,10.927c0,25.067,6.094,44.968,18.323,59.76
			c9.754,11.805,22.164,18.891,37.193,21.245v10.276c-24.521-0.784-44.72-9.205-60.678-25.273
			c-16.81-16.854-25.186-38.445-25.186-64.761c0-25.987,8.27-47.296,24.854-63.826
			C2902.608,225.931,2922.966,217.678,2947.716,217.03L2947.716,217.03z M2741.321,395.354v-7.118l1.574,0.014
			c19.029,0,33.599-7.053,43.713-21.146c10.173-14.123,15.223-34.52,15.223-61.111c0-26.096-5.05-46.217-15.116-60.35
			c-10.104-14.084-24.463-21.155-43.164-21.155c-0.752,0-1.49,0.019-2.229,0.032v-7.488c13.092,0.383,24.865,3.578,35.289,9.582
			c11.09,6.414,19.515,15.445,25.221,27.028v-40.459v-3.371c0-18.923-1.244-30.507-3.747-34.796
			c-2.503-4.35-7.343-6.639-14.52-6.964v-2.61c8-1.129,15.61-2.771,22.946-4.771c7.338-2.021,14.352-4.415,21.037-7.293
			c-0.379,7.661-0.696,15.272-0.918,22.779c-0.211,7.564-0.328,16.471-0.328,26.809v9.894V317.41
			c0,27.628,1.471,46.108,4.453,55.404c2.994,9.349,8.327,14.952,16.104,16.748v2.278c-3.701-0.21-7.558-0.378-11.524-0.488
			c-4.029-0.103-9.41-0.158-16.211-0.158h-7.118c-2.668-4.354-4.949-8.813-6.91-13.379c-1.956-4.617-3.583-9.304-4.841-14.074
			c-7.666,10.434-16.795,18.322-27.404,23.646C2763.302,392.211,2752.794,394.854,2741.321,395.354z M2741.321,217.03v7.488
			c-18.356,0.542-32.944,7.711-43.713,21.557c-11.205,14.355-16.799,34.033-16.799,58.939c0,26.418,5.437,46.921,16.305,61.44
			c10.584,14.126,25.336,21.398,44.207,21.779v7.118c-1.33,0.052-2.666,0.083-4.021,0.083c-24.741,0-45.348-8.271-61.827-24.846
			c-16.471-16.529-24.685-37.63-24.685-63.181c0-25.281,8.437-46.65,25.234-64.154c16.847-17.508,37.732-26.266,62.581-26.266
			C2739.517,216.991,2740.417,217.005,2741.321,217.03L2741.321,217.03z M2328.046,394.377v-8.306
			c15.054-1.187,27.133-6.812,36.158-16.899c10.281-11.467,15.391-27.236,15.391-47.462v-17.729v-10.656
			c-1.578-0.115-3.371-0.213-5.332-0.271c-1.955-0.059-4.898-0.059-8.695-0.059c-14.101,0-26.604,1.102-37.521,3.283v-7.647
			c12.973-1.444,27.453-2.156,43.445-2.156l8.104-0.163c-0.553-21.747-5.17-37.733-13.873-48.015
			c-8.315-9.825-20.858-14.978-37.676-15.412v-6.227h0.049c13.604,0,25.677,1.74,36.22,5.279
			c10.604,3.475,19.025,8.479,25.396,14.951c5.32,5.492,9.07,12.071,11.301,19.784c2.235,7.671,3.373,20.23,3.373,37.577v23.484
			c0,26.973,1.526,45.183,4.511,54.65c3.046,9.399,8.487,15.167,16.364,17.176v2.278h-0.979
			c-11.578-0.435-19.953-0.646-25.113-0.646h-8.76c-2.764-4.897-5.104-9.95-7.066-15.119c-1.957-5.218-3.532-10.598-4.731-16.256
			c-6.354,11.629-15.06,20.507-26.092,26.536C2345.199,390.335,2337.052,393.015,2328.046,394.377L2328.046,394.377z
			 M2583.864,360.098c-6.146,12.122-14.403,21.099-24.846,26.913c-10.385,5.814-23.213,8.753-38.498,8.753
			c-14.246,0-26.315-2.123-36.269-6.316c-9.896-4.232-17.877-10.648-23.974-19.243c-3.808-5.381-6.53-11.903-8.106-19.514
			c-1.573-7.614-2.385-19.846-2.385-36.7v-8.868v-36.806c0-13.483-1.258-22.076-3.76-25.832c-2.441-3.751-7.176-5.811-14.189-6.252
			v-2.606c6.035-0.757,12.614-2.067,19.795-4.02c7.125-2.019,15.33-4.676,24.518-8.058c-0.378,9.195-0.706,18.111-0.925,26.808
			c-0.216,8.647-0.32,16.868-0.32,24.691v26.199c0,36.044,3.856,59.76,11.524,71.232c7.721,11.41,21.15,17.129,40.234,17.129
			c20.23,0,34.96-6.646,44.263-19.852c9.294-13.204,13.915-34.205,13.915-62.966v-27.186c0-18.646-1.25-30.07-3.693-34.352
			c-2.452-4.251-7.293-6.582-14.577-7.023l-0.164-2.606c7.13-1.141,14.355-2.773,21.594-4.784
			c7.283-2.011,14.836-4.402,22.555-7.292c-0.376,8.647-0.706,17.293-0.926,25.83c-0.215,8.537-0.317,17.127-0.317,25.669v31.418
			c0,35.289,1.467,57.861,4.459,67.753c2.987,9.896,8.426,15.652,16.414,17.344v2.278c-0.869,0-2.174-0.048-3.969-0.163
			c-10.714-0.325-18.324-0.483-22.779-0.483h-8.261c-2.444-4.733-4.628-9.62-6.528-14.684
			C2586.742,371.448,2585.167,366.021,2583.864,360.098L2583.864,360.098z M2521.175,199.042h-7.772l38.485-48.499
			c2.457-3.1,4.523-5.217,6.201-6.412c1.742-1.249,3.432-1.848,5.108-1.848c2.445,0,4.57,0.863,6.314,2.601
			c1.735,1.749,2.612,3.759,2.612,5.989c0,1.576-0.5,3.101-1.418,4.513c-0.977,1.477-2.985,3.476-6.09,6.134L2521.175,199.042z
			 M2328.046,216.659v6.227c-0.771-0.014-1.549-0.021-2.338-0.021c-16.529,0-29.957,3.805-40.129,11.357
			c-10.211,7.565-16.576,18.494-19.132,32.684h-1.743l-10.058-33.228c10.605-5.705,22.074-10.001,34.308-12.834
			C2301.224,218.079,2314.259,216.669,2328.046,216.659L2328.046,216.659z M2328.046,288.632v7.647
			c-11.109,2.231-20.564,5.576-28.385,10.042c-15.445,8.856-23.162,21.475-23.162,37.894c0,12.726,4.133,22.948,12.454,30.616
			c8.265,7.663,19.249,11.466,32.948,11.466c2.1,0,4.148-0.084,6.145-0.226v8.306c-4.642,0.705-9.517,1.061-14.627,1.061
			c-20.496,0-36.697-4.841-48.658-14.52c-11.971-9.624-17.939-22.676-17.939-38.982c0-18.158,10.54-31.977,31.697-41.376
			C2291.384,294.836,2307.894,290.863,2328.046,288.632L2328.046,288.632z M1781.509,396.456v-11.881
			c2.41,0.278,4.88,0.42,7.396,0.42c9.459,0,17.943-1.567,25.496-4.669c7.506-3.157,14.354-7.998,20.558-14.585
			c-15.004-12.282-28.875-24.674-41.646-37.126c-4.037-3.954-7.976-7.926-11.806-11.91v-34.873
			c7.176,8.206,16.096,17.397,26.701,27.53c11.149,10.656,25.065,23.107,41.703,37.465c3.207-5.332,5.545-10.271,7.015-14.898
			c1.468-4.625,2.225-9.079,2.225-13.429c0-9.138-2.774-16.481-8.369-22.076c-5.553-5.543-13.102-8.536-22.672-8.972v-2.281
			l55.835,0.163c-0.975,13.372-3.584,25.824-7.831,37.408c-4.29,11.583-10.059,21.804-17.287,30.612
			c8.759,6.956,17.565,13.426,26.479,19.356c8.967,5.924,18.215,11.414,27.783,16.523v2.605h-0.927
			c-14.248-0.435-24.845-0.646-31.752-0.646h-11.795l-26.479-19.578c-10.771,8.596-21.697,14.903-32.892,18.979
			C1800.462,393.796,1791.218,395.749,1781.509,396.456L1781.509,396.456z M1781.509,280.265v-7.831
			c8.99-5.18,15.81-10.904,20.392-17.112c5.545-7.506,8.315-16.251,8.315-26.26c0-9.517-2.721-17.455-8.151-23.822
			c-5.39-6.299-12.123-9.457-20.226-9.457l-0.33,0.012v-6.631c1.893-0.146,3.837-0.228,5.816-0.228
			c12.346,0,22.788,3.748,31.43,11.253c8.648,7.448,12.996,16.47,12.996,26.973c0,10.104-4.299,19.621-12.887,28.547
			C1810.44,264.453,1797.986,272.615,1781.509,280.265L1781.509,280.265z M2025.308,376.512l13.322-47.298l2.287,0.319
			c2.823,17.832,11.635,32.409,26.422,43.721c14.731,11.305,32.354,16.966,52.854,16.966c19.13,0,34.903-4.953,47.299-14.896
			c12.45-9.903,18.651-22.245,18.651-37.03c0-8.053-1.901-14.896-5.659-20.447c-3.748-5.604-9.517-10.162-17.235-13.808
			c-6.528-2.935-17.399-5.438-32.788-7.399c-15.33-1.952-26.42-3.748-33.326-5.33c-20.229-4.231-35.232-10.928-45.184-19.997
			c-9.949-9.093-14.897-20.671-14.897-34.8c0-17.734,8.647-32.573,25.988-44.593c17.293-12.005,39.532-17.994,66.607-17.994
			c14.405,0,28.056,1.359,40.777,4.134c12.724,2.712,25.821,7.12,39.202,13.154l-12.123,38.819l-2.88-0.321
			c-2.667-15.271-9.738-27.24-21.205-35.771c-11.479-8.542-26.16-12.833-44.101-12.833c-17.611,0-32.238,4.398-43.82,13.208
			c-11.637,8.811-17.457,19.785-17.457,32.846c0,6.793,1.798,12.828,5.328,18.148c3.533,5.329,8.653,9.459,15.221,12.396
			c9.033,4.299,25.175,8.058,48.447,11.313c9.844,1.421,17.455,2.553,22.778,3.537c19.845,3.373,34.586,9.4,44.208,17.995
			c9.623,8.602,14.415,19.951,14.415,34.096c0,20.873-9.14,38.329-27.407,52.194c-18.272,13.917-41.756,20.877-70.408,20.877
			c-18.384,0-35.778-1.854-52.201-5.491C2052.009,388.528,2037.656,383.312,2025.308,376.512z M1781.509,189.164v6.631
			c-8.383,0.064-15.239,2.78-20.549,8.201c-5.438,5.496-8.162,12.452-8.162,20.936c0,7.773,1.855,15.655,5.496,23.646
			c3.699,8.046,9.57,17.022,17.621,26.864c1.951-0.984,3.813-1.985,5.594-3.009v7.831l-0.979,0.445l0.979,1.121v34.873
			c-8.293-8.633-16.104-17.358-23.428-26.21c-9.033,5.604-15.767,11.802-20.171,18.547c-4.409,6.687-6.638,14.19-6.638,22.51
			c0,14.403,5.71,26.913,17.178,37.519c9.612,8.879,20.631,14.053,33.059,15.506v11.881c-2.684,0.186-5.398,0.286-8.152,0.286
			c-20.666,0-37.844-5.005-51.385-15.06c-13.595-10.01-20.389-22.404-20.389-37.138c0-12.503,4.295-23.764,12.94-33.66
			c8.646-9.948,21.531-18.378,38.608-25.385c-6.59-9.795-11.428-18.539-14.575-26.323c-3.101-7.72-4.675-14.955-4.675-21.64
			c0-13.692,5.052-25.225,15.224-34.575C1757.906,194.816,1768.736,190.222,1781.509,189.164L1781.509,189.164z M1047.714,395.107
			v-6.858h0.377c19.959,0,35.348-7.169,46.114-21.572c10.765-14.356,16.146-34.913,16.146-61.661
			c0-26.257-5.498-46.596-16.472-61.063c-10.994-14.51-26.316-21.748-46.062-21.748h-0.104v-5.213h0.377
			c27.512,0,49.854,8.209,66.935,24.678c17.127,16.426,25.659,37.9,25.659,64.271c0,26.646-8.532,48.171-25.659,64.593
			C1098.095,386.76,1075.603,394.969,1047.714,395.107L1047.714,395.107z M1158.953,392.17v-2.606
			c7.998-2.336,13.427-6.955,16.421-13.922c2.995-7.014,4.465-22.024,4.465-45.18v-13.594v-43.113
			c0-17.621-1.256-28.333-3.752-32.145c-2.509-3.804-7.351-5.802-14.52-6.025l-0.161-2.608c5.759-1.255,12.017-2.831,18.699-4.62
			c6.688-1.797,14.357-4.025,22.841-6.806l-0.607,49.479c7.136-16.306,15.717-28.757,25.779-37.288
			c10.118-8.54,21.305-12.84,33.604-12.84c1.68,0,3.039,0,3.969,0.059c0.977,0.051,1.797,0.163,2.551,0.271l-12.449,35.888h-1.577
			c-2.116-2.771-4.512-4.837-7.169-6.151c-2.676-1.354-5.659-2.003-8.924-2.003c-10.764,0-18.976,4.996-24.627,14.996
			c-5.709,10.01-8.538,24.478-8.538,43.558v18.982c0,25.769,1.417,42.13,4.299,49.037c2.877,6.906,8.422,11.584,16.576,14.026
			l-0.163,2.606c-5.701-0.327-11.36-0.598-16.963-0.763c-5.549-0.156-11.034-0.213-16.473-0.213c-4.569,0-9.631,0.057-15.107,0.213
			C1171.575,391.572,1165.54,391.843,1158.953,392.17L1158.953,392.17z M1274.442,392.17v-2.606
			c7.99-2.336,13.428-6.955,16.423-13.922c2.986-7.014,4.461-22.024,4.461-45.18v-13.594v-43.113
			c0-17.621-1.263-28.333-3.755-32.145c-2.502-3.804-7.344-5.802-14.521-6.025l-0.16-2.608c5.765-1.255,12.022-2.831,18.707-4.62
			c6.685-1.797,14.347-4.025,22.83-6.806l-0.591,49.479c7.12-16.306,15.708-28.757,25.774-37.288
			c10.104-8.54,21.312-12.84,33.598-12.84c1.674,0,3.037,0,3.971,0.059c0.975,0.051,1.789,0.163,2.55,0.271l-12.458,35.888h-1.568
			c-2.12-2.771-4.521-4.837-7.178-6.151c-2.664-1.354-5.658-2.003-8.912-2.003c-10.772,0-18.978,4.996-24.636,14.996
			c-5.71,10.01-8.532,24.478-8.532,43.558v18.982c0,25.769,1.41,42.13,4.297,49.037c2.873,6.906,8.42,11.584,16.582,14.026
			l-0.163,2.606c-5.702-0.327-11.362-0.598-16.976-0.763c-5.535-0.156-11.024-0.213-16.465-0.213c-4.563,0-9.621,0.057-15.117,0.213
			C1287.061,391.572,1281.021,391.843,1274.442,392.17L1274.442,392.17z M1390.908,392.17v-2.606
			c8.104-2.442,13.646-7.499,16.635-15.225c3.044-7.778,4.568-23.707,4.568-47.954v-25.39v-34.254
			c0-12.782-1.256-20.935-3.746-24.584c-2.5-3.645-7.237-5.596-14.193-5.925l-0.165-2.606c5.924-0.757,12.291-2.011,19.083-3.915
			c6.8-1.843,15.175-4.568,25.065-8.16c-0.326,8.761-0.542,17.521-0.703,26.314c-0.164,8.759-0.214,17.514-0.214,26.268v20.063
			v24.463c0,28.884,1.457,47.255,4.453,55.305c2.994,7.986,8.696,13.158,17.07,15.602v2.606c-4.463-0.327-9.188-0.598-14.193-0.763
			c-5.002-0.156-11.791-0.213-20.393-0.213c-6.572,0-12.451,0.057-17.553,0.213C1401.456,391.572,1396.239,391.843,1390.908,392.17
			L1390.908,392.17z M1407.871,181.431c0-4.455,1.469-8.213,4.347-11.199c2.938-2.995,6.578-4.461,11.09-4.461
			c4.356,0,8.059,1.524,11.046,4.56c2.983,3.051,4.511,6.744,4.511,11.102c0,4.355-1.527,7.998-4.511,10.923
			c-2.987,2.946-6.688,4.407-11.046,4.407c-4.674,0-8.421-1.412-11.252-4.233C1409.28,189.689,1407.871,185.999,1407.871,181.431
			L1407.871,181.431z M1469.253,392.17v-2.606c7.998-2.336,13.432-6.955,16.426-13.922c2.994-7.014,4.453-22.024,4.453-45.18
			v-13.594v-43.113c0-17.621-1.246-28.333-3.748-32.145c-2.501-3.804-7.342-5.802-14.51-6.025l-0.166-2.608
			c5.757-1.255,12.008-2.831,18.701-4.62c6.686-1.797,14.355-4.025,22.838-6.806l-0.607,49.479
			c7.127-16.306,15.716-28.757,25.783-37.288c10.104-8.54,21.3-12.84,33.598-12.84c1.684,0,3.046,0,3.971,0.059
			c0.976,0.051,1.797,0.163,2.551,0.271l-12.452,35.888h-1.574c-2.125-2.771-4.511-4.837-7.176-6.151
			c-2.665-1.354-5.66-2.003-8.921-2.003c-10.761,0-18.973,4.996-24.634,14.996c-5.708,10.01-8.526,24.478-8.526,43.558v18.982
			c0,25.769,1.41,42.13,4.296,49.037c2.878,6.906,8.42,11.584,16.579,14.026l-0.165,2.606c-5.706-0.327-11.359-0.598-16.964-0.763
			c-5.545-0.156-11.034-0.213-16.472-0.213c-4.572,0-9.628,0.057-15.118,0.213C1481.879,391.572,1475.833,391.843,1469.253,392.17z
			 M732.581,376.512l13.319-47.298l2.288,0.319c2.821,17.832,11.631,32.409,26.415,43.721c14.739,11.305,32.353,16.966,52.86,16.966
			c19.129,0,34.895-4.953,47.296-14.896c12.452-9.903,18.655-22.245,18.655-37.03c0-8.053-1.906-14.896-5.66-20.447
			c-3.76-5.604-9.516-10.162-17.243-13.808c-6.521-2.935-17.39-5.438-32.778-7.399c-15.342-1.952-26.429-3.748-33.337-5.33
			c-20.22-4.231-35.225-10.928-45.182-19.997c-9.943-9.093-14.897-20.671-14.897-34.8c0-17.734,8.654-32.573,25.994-44.593
			c17.283-12.005,39.522-17.994,66.6-17.994c14.414,0,28.054,1.359,40.785,4.134c12.715,2.712,25.823,7.12,39.195,13.154
			l-12.126,38.819l-2.871-0.321c-2.672-15.271-9.744-27.24-21.211-35.771c-11.467-8.542-26.149-12.833-44.098-12.833
			c-17.605,0-32.24,4.398-43.819,13.208c-11.634,8.811-17.455,19.785-17.455,32.846c0,6.793,1.795,12.828,5.329,18.148
			c3.537,5.329,8.646,9.459,15.226,12.396c9.021,4.299,25.166,8.058,48.447,11.313c9.842,1.421,17.457,2.553,22.779,3.537
			c19.842,3.373,34.575,9.4,44.206,17.995c9.621,8.602,14.405,19.951,14.405,34.096c0,20.873-9.133,38.329-27.4,52.194
			c-18.274,13.917-41.751,20.877-70.414,20.877c-18.372,0-35.771-1.854-52.195-5.491
			C759.281,388.528,744.924,383.312,732.581,376.512L732.581,376.512z M1047.714,216.991v5.213
			c-19.737,0.033-35.096,7.26-46.112,21.748c-11.032,14.468-16.527,34.748-16.527,60.744c0,26.529,5.495,47.084,16.527,61.65
			c10.969,14.537,26.344,21.813,46.112,21.901v6.858h-0.705c-27.301,0-49.53-8.367-66.609-25.165
			c-17.128-16.751-25.658-38.611-25.658-65.578c0-25.664,8.694-46.658,26.045-62.962
			C998.101,225.217,1020.372,217.07,1047.714,216.991z"/>
	</g>
</g>
</svg>
