<?xml version="1.0" encoding="utf-8"?>
<!-- Generator: Adobe Illustrator 16.0.3, SVG Export Plug-In . SVG Version: 6.00 Build 0)  -->
<!DOCTYPE svg PUBLIC "-//W3C//DTD SVG 1.1//EN" "http://www.w3.org/Graphics/SVG/1.1/DTD/svg11.dtd">
<svg version="1.1" id="Camada_1" xmlns="http://www.w3.org/2000/svg" xmlns:xlink="http://www.w3.org/1999/xlink" x="0px" y="0px"
	 width="390.566px" height="152.379px" viewBox="0 0 390.566 152.379" enable-background="new 0 0 390.566 152.379"
	 xml:space="preserve">
<path fill-rule="evenodd" clip-rule="evenodd" fill="#47303B" d="M70.924,152.379C32.714,151.263,1.614,120.471,0,82.382h68.899
	v25.539l2.024,4.203V152.379z M146.141,82.382c-1.614,38.089-32.714,68.881-70.924,69.998v-40.256l2.024-4.203V82.382H146.141z"/>
<path fill-rule="evenodd" clip-rule="evenodd" fill="#365B40" d="M146.337,6.41c0.002,0.269,0.01,0.536,0.01,0.804v12.816
	c-0.18-0.001-0.36-0.007-0.541-0.007c-33.218,0-61.135,23.021-68.468,54.037c12.567-27.135,40.702-42.264,69.009-39.486v13.168
	c-25.987-4.879-52.755,5.348-68.818,26.384c19.418-17.198,45.935-21.449,68.818-13.233v13.655
	c-21.257-12-47.616-12.166-69.154-0.006h-0.059c0-0.031,0-0.063,0-0.094c0.343-37.636,30.954-68.044,68.671-68.044
	C145.984,6.404,146.16,6.409,146.337,6.41 M71.533,0.927h3.075v60.075h-3.075V0.927z M-0.196,6.41
	c-0.003,0.269-0.01,0.536-0.01,0.804v12.816c0.18-0.001,0.36-0.007,0.541-0.007c33.218,0,61.135,23.021,68.469,54.037
	C56.236,46.925,28.101,31.796-0.206,34.575v13.168c25.988-4.879,52.755,5.348,68.819,26.384
	C49.195,56.928,22.677,52.678-0.206,60.893v13.655c21.257-12,47.616-12.166,69.154-0.006h0.059c0-0.031,0-0.063,0-0.094
	C68.663,36.812,38.052,6.404,0.334,6.404C0.157,6.404-0.019,6.409-0.196,6.41z"/>
<text transform="matrix(1 0 0 1 188.272 143.0791)" fill="#47303B" font-family="'TrebuchetMS'" font-size="46.071">a</text>
<text transform="matrix(1 0 0 1 251.2178 143.0791)" fill="#47303B" font-family="'TrebuchetMS'" font-size="46.071">ç</text>
<text transform="matrix(1 0 0 1 312.7739 143.0791)" fill="#47303B" font-family="'TrebuchetMS'" font-size="46.071">a</text>
<text transform="matrix(1 0 0 1 375.7202 143.0791)" fill="#47303B" font-family="'TrebuchetMS'" font-size="46.071">í</text>
<path fill-rule="evenodd" clip-rule="evenodd" fill="#47303B" d="M281.517,0c0.589,0,1.161,0.075,1.705,0.217
	c-0.792,0.563-1.309,1.487-1.309,2.533c0,1.714,1.39,3.104,3.105,3.104c1.193,0,2.229-0.673,2.749-1.661
	c0.323,0.789,0.502,1.652,0.502,2.558c0,3.729-3.023,6.751-6.751,6.751c-3.729,0-6.751-3.023-6.751-6.751
	C274.765,3.022,277.788,0,281.517,0"/>
<path fill="#365B40" d="M390.546,45.512c0.012,0.337,0.018,0.678,0.019,1.025v0.013v0.006v0.018l0.001,0.018v0.019v0.018v0.018
	v0.019v45.314h-10.93H366.25c-2.525,0-5.525-0.226-8.964-0.675c-3.438-0.45-6.693-1.412-9.763-2.886
	c-3.07-1.474-5.676-3.629-7.799-6.447c-2.122-2.818-3.145-6.658-3.069-11.482c0.076-4.988,1.418-9.053,3.99-12.157
	c2.573-3.105,5.901-5.532,9.947-7.246c4.047-1.713,8.623-2.81,13.692-3.254c5.07-0.444,10.192-0.512,15.351-0.184v-0.491v-0.08
	c-0.001-0.538-0.016-1.059-0.044-1.564h0.019c-0.106-2.613-0.56-4.795-1.51-6.522c-1.101-2.001-2.542-3.606-4.298-4.789
	s-3.729-2.031-5.895-2.518s-4.242-0.825-6.202-0.982c-3.025-0.243-5.407-0.496-7.122-0.737s-3.151-0.655-4.298-1.228v-3.807h11.42
	c6.059,0,10.975,0.68,14.737,2.026c3.762,1.347,6.696,3.095,8.779,5.219c2.084,2.125,3.501,4.462,4.237,7
	c0.622,2.142,0.981,4.255,1.078,6.338H390.546z M379.636,53.542c-4.175-0.246-8.172-0.219-11.973,0.062s-7.19,1.029-10.132,2.21
	c-2.941,1.182-5.321,2.927-7.122,5.22c-1.802,2.292-2.749,5.327-2.825,9.087c-0.075,3.76,0.641,6.72,2.149,8.842
	c1.509,2.123,3.418,3.725,5.711,4.79c2.292,1.064,4.713,1.725,7.245,1.965c2.531,0.24,4.789,0.368,6.754,0.368h10.192V53.542z
	 M326.435,24.929h11.42v3.807c-1.146,0.573-2.583,0.987-4.298,1.228s-4.097,0.494-7.122,0.737c-1.96,0.158-4.037,0.496-6.202,0.982
	s-4.139,1.334-5.895,2.518s-3.197,2.788-4.298,4.789s-1.535,4.613-1.535,7.798v45.191h-10.93V46.665
	c0-2.456,0.369-4.953,1.105-7.491c0.737-2.538,2.153-4.875,4.237-7c2.083-2.124,5.019-3.873,8.78-5.219
	C315.46,25.608,320.376,24.929,326.435,24.929z M286.981,24.929h-10.929v67.05h10.929V24.929z M254.672,24.929h10.929v47.279
	c0,3.349-0.761,6.349-2.272,8.964c-1.511,2.616-3.504,4.855-5.956,6.693c-2.453,1.838-5.281,3.254-8.474,4.237
	s-6.509,1.473-9.947,1.473c-3.439,0-6.754-0.491-9.947-1.473s-6.021-2.399-8.473-4.237s-4.425-4.077-5.895-6.693
	c-1.47-2.616-2.211-5.608-2.211-8.964V24.929h10.93v46.788c0,4.659,1.334,8.498,3.991,11.482c2.657,2.984,6.53,4.482,11.605,4.482
	s8.968-1.498,11.666-4.482s4.053-6.815,4.053-11.482V24.929z M170.274,0h52.404v5.894h-20.798v86.084h-10.807V5.894h-20.799V0z"/>
</svg>
