<?xml version="1.0" encoding="utf-8"?>
<!-- Generator: Adobe Illustrator 16.0.3, SVG Export Plug-In . SVG Version: 6.00 Build 0)  -->
<!DOCTYPE svg PUBLIC "-//W3C//DTD SVG 1.1//EN" "http://www.w3.org/Graphics/SVG/1.1/DTD/svg11.dtd">
<svg version="1.1" id="Camada_1" xmlns="http://www.w3.org/2000/svg" xmlns:xlink="http://www.w3.org/1999/xlink" x="0px" y="0px"
	 width="82.064px" height="68.02px" viewBox="0 0 82.064 68.02" enable-background="new 0 0 82.064 68.02" xml:space="preserve">
<g>
	<g opacity="0.3">
		
			<image overflow="visible" width="600" height="355" xlink:href="569A35EC.png"  transform="matrix(0.24 0 0 0.24 -30.1748 11.8813)">
		</image>
	</g>
	<g>
		
			<image overflow="visible" width="506" height="361" xlink:href="569A35ED.png"  transform="matrix(0.24 0 0 0.24 -22.4258 7.106)">
		</image>
	</g>
	<g>
		<path fill="#67505C" d="M37.845,43.614c-0.154,3.703,2.934,4.99,6.555,4.99c3.619,0,6.555-2.234,6.555-4.99
			s-2.936-4.989-6.555-4.989C40.778,38.625,37.845,40.858,37.845,43.614z"/>
		<path fill="#291822" d="M47.255,47.215c0,0,1.482-1.16,1.551-1.773s-0.152-0.682-0.375-0.955
			c-0.221-0.272-0.033-0.375,0.205-1.057s0.281-1.431,0.184-1.679c-0.099-0.247-0.818-2.322-0.547-2.162
			c0.273,0.16,2.018,1.317,2.205,2.818c0.188,1.5,0.188,2.284-0.563,3.341C49.164,46.806,47.169,47.948,47.255,47.215z"/>
		<path fill="#48323D" d="M38.935,42.731c0,0-0.256,0.973,0,1.62s0.336,0.904,0.336,0.904s-0.111-0.944,0.295-1.331
			c0,0,0,1.143,0.597,1.518s0.597,0.375,0.597,0.375s-0.273-0.341-0.238-0.613c0.033-0.273,0.033-0.273,0.033-0.273
			s0.41,1.416,2.199,1.467c1.791,0.051,2.627-0.205,3.649-0.904c1.022-0.698,1.517-0.801,1.79-0.323s-0.518,1.006-0.94,1.432
			c-0.423,0.427-1.241,1.415-2.69,1.415s-3.615-0.182-4.52-1.091C39.139,46.016,37.979,44.573,38.935,42.731z"/>
		<path fill="#48303A" d="M44.749,45.135c0,0,1.09,0.008,1.756-1.087c0.664-1.095,0.392-1.76-0.103-1.981
			c-0.495-0.223-0.751,0.101-1.398-0.257s-0.847-0.664-1.591-0.767s-1.494,0.419-1.699,0.832s0,0.498,0,0.498
			s0.152-0.293,0.341-0.087c0.188,0.206,0.235,0.82,0.237,0.905c0.001,0.085,0.785-0.281,0.871,0.081
			c0.085,0.362-0.358,0.703-0.358,0.703s1.022-0.307,0.478,0.358c-0.545,0.664-0.545,0.664-0.545,0.664s1.5-1.142,1.209-0.563
			c-0.289,0.58-0.426,0.784-0.426,0.784S44.665,44.036,44.749,45.135z"/>
		<path fill="#DCE6F4" d="M40.06,40.127c0,0-1.586,1.325-1.125,1.956c0.46,0.631,1.586,1.006,2.268,0.46
			c0.682-0.545,1.216-1.283,2.211-1.076c0.994,0.207,0.625,0.409,1.789,0.436c1.166,0.027,2.379,0.229,2.973-0.027
			c0.595-0.258,0.91-1.491,0.375-1.957c-0.533-0.466-2.242-0.95-3.854-1.072C43.087,38.725,40.69,39.296,40.06,40.127z"/>
		<path fill="#8A8778" d="M41.679,40.549c0,0,0.623,0.076,1.279,0.076s1.254,0.147,1.697,0.193c0.442,0.046,2.336,0.105,2.147-0.691
			c-0.188-0.797-1.56-0.814-2.336-0.652c-0.775,0.162-1.483,0.213-1.815,0.247S40.989,40.259,41.679,40.549z"/>
		<path fill="#251413" d="M43.274,40.127c0,0,0.332-0.68,1.517-0.547s1.048,0.67,0.622,0.772S43.632,40.362,43.274,40.127z"/>
		<path fill="#C18968" d="M43.632,40.119c0,0,0.238-0.294,0.865-0.269s1.373,0.375,1.045,0.454c-0.328,0.078-1.371,0.088-1.74-0.008
			C43.433,40.202,43.555,40.122,43.632,40.119z"/>
	</g>
	<g>
		<path fill="#6A505A" d="M19.916,41.545c0,0,4.109-2.028,6.478-0.272c2.371,1.756,3.24,4.825,2.371,7.194
			c-0.87,2.37-2.404,3.457-3.768,3.852c-1.365,0.395-3.043,0.483-4.042-0.021c-0.999-0.505-2.098-1.107-3.146-2.563
			c-1.048-1.456-1.27-4.115-0.758-5.735C17.563,42.381,19.916,41.545,19.916,41.545z"/>
		<path fill="#291722" d="M27.042,46.2c0,0,1.392,0.955,0.688,2.694c-0.705,1.739-2.034,2.558-3.244,2.933
			c-1.211,0.375-3.53,0.188-4.553-0.597s-3.278-2.981-3.135-4.894c0.142-1.911,1.157-3.563,1.601-3.818
			c0.443-0.256,1.143,0.188,1.296,0.408C19.847,43.149,26.138,47.292,27.042,46.2z"/>
		<path fill="#48303A" d="M24.485,41.409c0,0,1.465,0.257,1.893,1.262c0.426,1.007,0.886,3.428,0.563,4.791
			c-0.324,1.364-1.518,2.527-3.291,2.585c-1.773,0.058-4.007-0.948-4.126-3.932C19.404,43.131,18.791,42.21,24.485,41.409z"/>
		<path fill="#8C8485" d="M19.08,43.541c0,0-1.5,0.733-1.347,2.336c0.154,1.603,0.324,2.83,2.114,3.205s2.029-2.54,1.364-3.733
			S19.831,43.301,19.08,43.541z"/>
		<path fill="#E2E8F5" d="M23.786,42.44c0,0-0.358,0.794-1.16,0.93c-0.801,0.137-1.79,0.034-2.148-0.102
			c-0.358-0.137-0.358-0.137-0.358-0.137l0.222-0.194h-0.706l0.245-0.386l-0.635,0.034l0.198-0.323h-0.331
			c0,0,0.337-0.256,0.331-0.324s-0.191-0.124,0.547-0.429c0.738-0.305,1.851-0.737,2.676-0.837c0.825-0.1,1.907-0.188,2.537,0.04
			s1.312,0.691,1.845,1.191c0.531,0.5,1.48,1.709,1.793,2.9c0.313,1.191,0.365,2.449,0.027,3.341s-0.711,1.613-0.711,1.613
			s0.741-3.438,0.246-4.803c-0.494-1.364-2.059-2.942-3.16-3.304c-1.102-0.362-1.137-0.243-1.137-0.243S23.917,42.217,23.786,42.44z
			"/>
		<path fill="#1B1427" d="M23.95,41.17c0,0-1.738-0.25-2.534,0c-0.796,0.25-0.875,0.238-0.875,0.238s0.216,0.29,0.284,0.276
			c0.068-0.015-0.455,0.565-0.455,0.565s0.262-0.273,0.603-0.284c0.341-0.012,0.396,0.045,0.579,0.409
			c0.183,0.363,0.819,0.637,1.319,0.432C23.37,42.603,24.188,41.83,23.95,41.17z"/>
		<path fill="#BC8960" d="M23.837,41.685c0,0-0.267,0.705-0.988,0.918c-0.723,0.212-1.16,0.079-1.058-0.318
			c0.103-0.396,0.468-0.5,1.015-0.601C23.354,41.584,24.099,41.37,23.837,41.685z"/>
	</g>
	<path fill="#49303A" d="M14.569,57.166c0,0-0.146,0.796-3.142,0.714c-2.996-0.083-4.691-3.504-4.657-4.769
		c0.034-1.266,0.078-3.464,1.409-4.448s1.812-1.511,3.443-1.517c1.632-0.005,4.021-0.244,6.032,2.467L14.569,57.166z"/>
	<path fill="#291822" d="M7.169,52.34c0,0,0.528,0.154,0.87-0.478c0.341-0.631,0.989-2.097,1.585-2.369
		c0.597-0.273,1.074-0.188,1.466,0.136c0,0,1.296,0.461,2.063-0.119c0.768-0.579,1.961-0.204,2.455,0.393
		c0.495,0.597,1.927,1.04,2.046,0.426c0.119-0.613,0-0.716,0-0.716s-0.586-1.068-1.384-1.504s-1.46-0.904-2.945-0.962
		s-2.47,0.041-3.18,0.23c-0.709,0.189-1.902,1.002-2.322,1.608c-0.42,0.607-0.873,1.485-0.953,2.497
		C6.79,52.495,7.169,52.34,7.169,52.34z"/>
	<path fill="#898282" d="M9.727,51.488c0,0,0.188,1.739,0.631,2.302s0.682,1.467-0.137,1.723c-0.818,0.255-3.045-1.195-2.37-4.212
		c0.675-3.017,3.341-2.506,2.643-1.278S9.676,51.11,9.727,51.488z"/>
	<g>
		<path fill="#201219" d="M38.058,38.372c0,0-1.816-2.285-3.846-2.839s-4.217-0.56-5.063,0.267
			c-0.844,0.826-1.473,1.451-1.731,1.714c-0.259,0.262-0.862,1.002-1.056,1.579c-0.193,0.576-0.564,1.611-0.382,2.672
			s0.481,2.11,0.87,2.649s1.028,1.373,1.818,1.769c0.791,0.396,1.676,0.729,2.646,0.876c0.971,0.145,2.318,0.134,3.174-0.073
			c0.854-0.209,2.081-0.59,2.656-1.135c0.576-0.546,1.313-1.665,1.568-2.637C38.969,42.242,38.97,39.617,38.058,38.372z"/>
		<path fill="#43313C" d="M36.161,38.388c0,0,0.58,0.455,1.035,1.205c0.454,0.75,0.363,1.546,0.613,1.921s0.57,1.273,0.251,2.257
			s-0.306,1.483-0.698,1.854c-0.393,0.371-1.268,1.142-3.342,1.448c-2.076,0.307-3.297,0-4.104-0.326s-2.223-0.901-2.52-3.414
			c-0.295-2.512,0.08-4.534,1.059-5.455c0.977-0.921,2.432-1.455,3.863-1.273S35.185,37.525,36.161,38.388z"/>
		<path fill="#F6F8FC" d="M27.747,37.181c0,0,0.72-0.861,2.424-1.134c1.705-0.273,4.08-0.075,5.331,0.844
			c1.251,0.918,2.44,2.445,2.581,3.51c0.139,1.063,0.223,2.228,0.111,2.887s-0.584,2.039-0.584,2.039s1.064-1.309,1.199-2.663
			c0.137-1.354,0.014-3.015-0.438-3.736s-1.374-1.755-1.989-2.204c-0.613-0.449-1.877-1.309-3.322-1.443s-2.781-0.127-3.363,0.167
			S28.267,36.641,27.747,37.181z"/>
		<path fill="#877C7F" d="M35.911,38.309c0,0,1.398,1.228,0.784,3.99c-0.614,2.762-4.989,2.137-6.194,1.625s-3.764-1.637-2.34-5.713
			c0,0-0.963,1.141-0.861,3.715s3.545,3.827,5.574,3.785c2.029-0.043,4.041-0.921,4.748-2.805c0,0-0.034,0.341,0,0.921
			c0.033,0.579,0.086,0.86,0.086,0.86s0.574-1.604,0.465-2.114c-0.111-0.509-0.5-0.839-0.543-1.335
			C37.589,40.743,37.286,39.133,35.911,38.309z"/>
		<path fill="#BCC4CB" d="M34.971,40.261c0,0,0.103,0.643-0.103,1.256c-0.205,0.614-0.528,1.219-0.528,1.219
			s0.741-0.298,0.741-0.255c0,0.042-0.37,1.133-0.37,1.133s0.694-0.042,0.899-0.98v0.444l0.408-0.597l0.068,0.408
			c0,0,0.18-0.622,0.443-1.15c0.265-0.528,0.414-0.646,0.31-1.124s-0.104-0.419-0.104-0.419s-0.162,0.352-0.17,0.419
			c-0.009,0.067-0.213-0.295-0.213-0.295l-0.12,0.183l-0.128-0.656l-0.145-0.451c0,0-0.154,1.449-0.154,1.475
			s-0.307-0.674-0.307-0.674l-0.332,0.742C35.167,40.938,35.142,40.488,34.971,40.261z"/>
		<path fill="#161019" d="M31.489,40.117c0,0,0.057,0.262-0.113,0.546c-0.17,0.283,0.363,0.738,0.921,0.647
			c0.557-0.091,1.62-0.137,2.043-1.193c0.423-1.058,0.378-1.899-0.111-2.364c-0.489-0.466-2.046-0.546-2.694-0.41
			c-0.646,0.137-1.58,0.717-1.772,1.172c-0.192,0.454-0.204,0.829,0,1.17C29.966,40.026,31.496,39.85,31.489,40.117z"/>
		<ellipse fill="#C99364" cx="31.864" cy="38.792" rx="1.057" ry="0.824"/>
	</g>
	<path fill="#624A55" d="M8.755,55.41c0,0,0.375,0,0-0.887s-0.972-2.608-0.495-3.58c0.477-0.973,0.716-1.757,0.324-1.501
		s-1.228,1.586-0.972,3.291S8.363,55.7,8.755,55.41z"/>
	<path fill="#BBC1D1" d="M11.978,50.022c0,0-1.5,0.606-1.603,2.4c0,0-0.119,0.907,0.614,1.742c0,0-0.085-0.409,0-0.647
		c0.085-0.239,0.085-0.239,0.085-0.239l0.273,0.546c0,0-0.314-0.682-0.174-0.767c0.14-0.086,0.14-0.086,0.14-0.086l0.102,0.358
		c0,0-0.238-1.143,0.46-1.671c0.699-0.528,1.449-0.494,1.449-0.494l-0.733-0.188l0.239-0.205c0,0-0.597-0.051-0.835,0l0.218-0.188
		l-0.661,0.17C11.551,50.754,11.602,50.363,11.978,50.022z"/>
	<path fill="#66505C" d="M13,49.135c0,0,0.222,1.313,1.091,1.449c0.87,0.137,2.029,0.222,2.046-0.563
		C16.154,49.238,15.081,48.641,13,49.135z"/>
	<path fill="#2C1326" d="M12.847,51.761c-0.051,0.002-1.296,0.068-1.211,1.637c0.085,1.568,2.08,1.397,2.523,0.613
		S14.45,51.693,12.847,51.761z"/>
	<path fill="#C9946D" d="M13.7,52.63c0,0,0.052,1.335-0.989,1.177s-1.031-1.073-0.822-1.509C12.097,51.863,13.495,51.419,13.7,52.63
		z"/>
	<path opacity="0.3" fill="#140F11" d="M14.979,57.596c0,0-1.552-1.01-1.825-1.863c-0.272-0.852-0.545-2.864,0.17-4.398
		c0.716-1.534,3.359-2.318,4.177-1.824s0.903,1.193,0,2.404C16.598,53.125,14.294,57.139,14.979,57.596z"/>
	<g>
		<path fill="#46313A" d="M47.114,47.709c0,0,0.17-2.349,1.586-3.562c1.414-1.212,1.892-1.744,2.455-2.032
			c0.563-0.288,2.693-0.936,4.518-0.493c1.824,0.444,3.989,1.654,4.688,4.621c0.698,2.966-1.259,4.71-1.342,4.812
			s-1.17,1.601-3.853,2.223c-2.683,0.621-4.236,0.089-5.025-0.5S47.233,50.54,47.114,47.709z"/>
		<path fill="#67515B" d="M51.12,44.01c0,0-0.869-0.443-1.688,0.716s-1.551,2.54-1.107,4.177s1.125,2.455,1.517,2.711
			s0.546,0.324,0.546,0.324s-0.785-0.972-0.58-1.193c0,0,0.563,0.375,1.092,0.631c0.527,0.256,0.527,0.256,0.527,0.256
			s-0.375-0.41-0.391-0.733c-0.018-0.324-0.018-0.324-0.018-0.324s0.068,0.222,0.887,0.46c0.818,0.239,0.818,0.239,0.818,0.239
			s-0.648-0.188-0.768-0.528c-0.119-0.342-0.119-0.342-0.119-0.342s1.568,0.768,2.813,0.666c1.244-0.103,1.297-0.324,1.297-0.324
			s0.221,0.153-0.273,0.409s-0.665,0.272-0.665,0.272s0.733-0.205,1.142-0.307c0.41-0.103,0.428-0.222,0.428-0.222
			s-0.495,0.665-0.819,0.767c-0.323,0.103-0.323,0.103-0.323,0.103s1.313-0.341,1.721-0.733c0.41-0.392,0.291-0.34,0.563-1.397
			s0.511-1.142,0.511-2.122s-0.188-1.348-1.125-2.597s-1.807-1.095-2.029-0.396c-0.221,0.699-0.067,1.068,0.495,1.821
			c0.563,0.754,0.733,3.106-1.347,3.498c-2.08,0.393-3.188-1.159-2.984-2.506C51.444,45.988,51.922,44.368,51.12,44.01z"/>
		<path fill="#BFC8D0" d="M55.911,46.482c0,0,0.461,0.716,0.256,1.568s-0.375,1.177-0.375,1.177s0.344-0.422,0.428-0.578
			c0.084-0.155,0.084-0.155,0.084-0.155s0.119,0.563,0,0.818s-0.119,0.256-0.119,0.256s0.307-0.546,0.393-0.802
			c0.084-0.255,0.084-0.255,0.084-0.255s0.018,0.818-0.084,1.057c-0.104,0.239-0.104,0.239-0.104,0.239s0.546-0.87,0.546-0.921
			c0-0.052,0.034,0.46,0,0.733c-0.034,0.272-0.103,0.375-0.103,0.375s0.682-1.058,0.682-1.91s-0.238-1.449-0.527-1.824
			c-0.291-0.375-0.563-0.512-0.563-0.512s0.323,0.818,0.271,1.058c-0.051,0.238-0.051,0.238-0.051,0.238l-0.17-0.49l-0.103,0.371
			C56.457,46.925,56.325,46.719,55.911,46.482z"/>
		<path fill="#8B8585" d="M51.427,49.038c0,0-0.188,1.093-1.176,0.718s-1.376-0.829-1.586-2.046
			c-0.209-1.217,0.045-1.936,0.471-2.545c0.428-0.608,1.166-0.848,1.66-0.678c0.495,0.171,0.842,0.334,0.742,1.016
			c-0.098,0.681-0.232,1.373-0.316,2.012S51.206,48.644,51.427,49.038z"/>
		<path fill="#281512" d="M54.189,48.75c0,0,1.841-0.853,0.682-3.001c0,0-0.392-0.494-1.159-0.494s-1.729,0.336-2.045,1.748
			C51.35,48.415,52.911,48.135,54.189,48.75z"/>
		<ellipse fill="#493535" cx="53.661" cy="47.369" rx="1.262" ry="1.381"/>
		<ellipse fill="#C49268" cx="53.627" cy="47.584" rx="1.21" ry="1.165"/>
		<path fill="#DDEAF6" d="M51.155,42.116c0,0,3.512,0.053,5.302,0.854c1.79,0.801,2.012,0.938,2.762,2.284
			c0.751,1.347,0.972,2.626,0.921,3.001s0.006,1.11,0.006,1.11s0.488-1.47,0.365-2.232c-0.121-0.762-0.271-2.376-1.523-3.611
			c-1.252-1.234-2.178-1.566-2.682-1.717C55.8,41.656,53.798,41.006,51.155,42.116z"/>
	</g>
	<ellipse fill="#634F5B" cx="69.02" cy="52.409" rx="5.263" ry="4.007"/>
	<path fill="#281823" d="M72.52,50.664c0,0,0.147,0.58,0,1.183s-0.272,0.648-0.296,0.988c-0.021,0.342,0.1-0.091,0.182,0.58
		c0.08,0.671,0.217,0.693-0.238,1.137s-0.727,0.375-0.75,0.682s0.488,0.217,0.762,0.046c0.272-0.171,1.375-0.807,1.557-1.772
		c0.182-0.967,0.168-2.291-0.133-3.066c0,0-0.506-1.031-2.516-1.717C71.087,48.723,73.156,49.595,72.52,50.664z"/>
	<path fill="#412F3A" d="M64.427,51.801c0,0-0.482,1.219-0.137,2.022s1.309,1.58,2.592,1.876c1.284,0.295,2.285,0.363,3.24,0
		c0.954-0.364,0.875-0.66,1.227-0.91c0.353-0.25,1.045-0.818,0.603-1.125c-0.443-0.307-0.558-0.227-1.364,0.285
		c-0.807,0.511-1.021,0.999-2.375,0.738c-1.354-0.262-1.809-0.284-2.023-0.568c-0.217-0.284-0.352-0.421-0.352-0.421
		s0.192,0.693-0.137,0.387c-0.33-0.307-0.592-1.251-0.592-1.251s0,0.864-0.238,0.659C64.632,53.29,64.37,52.653,64.427,51.801z"/>
	<path fill="#1A1B28" d="M67.359,52.255c-0.065,0.227,0.296-0.33,0.353-0.068s0,0.573,0,0.573l0.418-0.209
		c0,0-0.213,0.636-0.248,0.807c-0.033,0.17-0.045,0.228-0.045,0.228s0.602-0.323,0.625-0.765l-0.125,0.89
		c0,0,0.704-0.192,0.818-0.512c0,0,0.137,0.182,0.045,0.387c-0.09,0.204-0.09,0.204-0.09,0.204s0.942-0.471,1.375-0.866
		c0.432-0.396,0.84-1.168,0.238-1.6c-0.602-0.433-1.318-0.479-1.443-0.455c-0.125,0.022-0.398-0.079-0.637-0.329
		c-0.238-0.251-1.057-0.126-1.398,0.09c-0.341,0.217-0.533,0.535-0.522,0.694s0.103,0.08,0.421,0.375S67.382,52.176,67.359,52.255z"
		/>
	<path fill="#D9E8F7" d="M65.028,50.1c-0.025,0.035-0.579,0.849-0.453,1.224c0.125,0.375,1.022,0.397,1.67,0.113
		c0.648-0.284,1.58-0.997,2.285-0.572s1.555,0.437,2.557,0.254c1-0.182,1.459-0.34,1.525-0.67s-0.268-0.896-0.422-1.027
		c-0.152-0.132-1.398-0.939-2.365-1.02c-0.965-0.079-1.845,0.076-2.484,0.209C66.7,48.744,65.62,49.343,65.028,50.1z"/>
	<path fill="#957F84" d="M66.882,50.005c0,0,1.314-0.068,1.992,0.192c0.679,0.262,1.861,0.035,1.998-0.408
		c0.136-0.443-0.444-0.694-1.309-0.705C68.7,49.073,65.712,49.551,66.882,50.005z"/>
	<path fill="#171611" d="M68.257,49.619c0,0,0.318,0.216,1.068,0.284c0.75,0.067,0.853-0.262,0.648-0.433
		c-0.205-0.17-0.691-0.454-1.221-0.261S68.108,49.543,68.257,49.619z"/>
	<path fill="#C19486" d="M68.589,49.573c0,0,0.384-0.238,0.668-0.17c0.285,0.067,0.908,0.332,0.702,0.41
		c-0.206,0.079-0.735,0.072-1.085,0C68.526,49.741,68.346,49.69,68.589,49.573z"/>
	<path fill="#5C7046" d="M38.898,40.218c0,0,0.323-0.46,1.245-1.619c0.92-1.159,2.539-2.813,3.018-3.359l1.639,1.663
		c0,0-0.353,0.101-0.604,0.327c-0.25,0.227-0.699,0.66-1.121,1.01c-0.424,0.35-0.589,0.577-1.445,1.124
		c-0.855,0.548-1.664,1.01-2.023,1.237c-0.359,0.229-0.514,0.327-0.62,0.397s-0.269,0.143-0.343,0.173S38.835,40.307,38.898,40.218z
		"/>
	<path fill="#404A35" d="M40.159,32.615c0,0-0.392,1.994-0.682,3.086c-0.289,1.091-0.848,3.308-0.848,3.308s0.609-5.814-1.932-8.679
		c0,0-0.859-0.203-3.285-0.144c0,0,0.395,0.84,0.529,1.216s0.19,0.936,0.383,1.311c0.191,0.375,0.498,0.771,0.959,1.13
		c0.46,0.357,1.551,1.336,2.044,2.334s0.927,1.965,0.958,2.746c0.029,0.781,0.029,0.781,0.029,0.781l0.314,0.976
		c0,0,0.336-1.757,0.729-2.83c0.393-1.074,1.125-3.837,1.262-4.041s0.665-0.341,0.665-0.341S40.723,32.802,40.159,32.615z"/>
	<path fill="#7D9769" d="M35.386,30.364c0,0,2.705,3.346,3.012,9.596l0.232,0.72c0,0,0.232-1.524,0.756-2.907
		c0.523-1.384,1.201-4.744,1.261-4.894c0,0-0.282-0.241-0.487-0.264l-1.498,6.274c0,0,0.425-6.343-1.963-8.56
		c0,0-0.749-0.157-1.381-0.154L35.386,30.364z"/>
	<path fill="#334728" d="M64.696,33.436c-2.57,0.042-4.251,0.805-6.127,1.435c-1.877,0.63-4.102,2.014-4.102,2.014
		c0.84-1.032,1.742-3.02,1.742-3.02s2.506-0.788,3.526-1.154c1.021-0.367,1.634-0.64,2.358-0.942
		c0.725-0.301,1.552-0.654,2.738-1.16c1.186-0.506,2.381-1.015,3.449-1.463c1.068-0.447,2.229-0.896,3.598-1.415
		c1.367-0.521,2.015-0.776,2.015-0.776c-1.131-0.477-2.28-0.438-3.08-0.466s-1.433-0.045-3.877,0.571
		c-2.444,0.617-5.082,2.406-5.903,2.955c-0.822,0.55-1.582,1.117-2.506,1.772c-0.923,0.655-1.705,1.078-1.705,1.078l1.863-3.569
		c0,0,2.387-1.335,3.209-1.82c0.824-0.484,3.178-1.872,3.725-2.203c0.547-0.33,0.863-0.612,1.662-1.258
		c0.797-0.645,1.414-1.243,2.162-1.943c0.746-0.701,1.177-1.254,1.177-1.254s0.054-0.293,0.067-0.546s-0.01-0.443-0.357-0.538
		s-1.002,0.214-1.918,0.742c-0.914,0.528-1.508,0.94-2.842,1.856c-1.334,0.915-1.786,1.384-2.771,2.237
		c-0.986,0.854-2.158,2.112-2.158,2.112l-0.75-0.022c0,0,0.42-1.017,0.602-1.328c0.182-0.313,0.954-1.008,0.954-1.008
		c1.2-1.449,4.39-4.21,5.977-5.447c1.587-1.236,3.175-1.56,3.175-1.56c-0.863-0.193-2.566-0.1-3.182-0.024
		c-0.617,0.076-1.121,0.217-3.139,2.104s-3.389,4.848-3.389,4.848c0.611-3.172,0.592-4.089,0.697-5.848
		c0.107-1.759-0.064-3.205-0.576-4.441c-0.514-1.236-1.869-1.935-1.869-1.935s0.148,0.57,0.247,1.071
		c0.099,0.502,0.138,1.332,0.248,2.921c0.11,1.59,0.19,3.494,0.226,4.345c0.033,0.851,0.102,2.763,0.188,3.401
		s0.16,1.049-0.039,1.409c-0.199,0.359-0.732,1.515-0.732,1.515c0.33-3.444,0.026-4.433-0.449-6.28
		c-0.475-1.849-1.483-3.472-1.483-3.472l1.739-1.892l-2.104,1.073c-0.438-0.739-1.682-2.137-1.682-2.137s0.619-0.723,1.547-1.833
		c0.93-1.109,1.658-2.19,1.658-2.19l-3.797,3.228l-0.636-0.25l0.204,0.568c0,0-0.541,0.522-0.96,0.923s-1.495,1.265-2.196,2.05
		s-2.049,1.778-3.025,2.583c-0.975,0.804-1.967,1.662-2.637,2.491c-0.67,0.83-2.775,3.206-2.775,3.206l0.364-2.955
		c1.565-0.61,2.242-1.441,2.821-2.058s0.922-0.985,1.238-1.299c0.314-0.314,0.744-0.689,0.948-0.877
		c0.205-0.187,1.212-1.125,1.55-1.451c0.338-0.327,1.201-1.268,1.376-1.47c0.175-0.203,1.491-1.856,2.315-2.926
		s1.919-2.44,2.268-2.822c0.35-0.382,0.668-0.578,0.822-0.659c0.156-0.082,0.256-0.26,0.256-0.26
		c-0.945,0.063-1.904,0.704-2.426,1.41c-0.52,0.705-1.559,1.978-2.295,2.785c-0.736,0.809-1.999,1.751-2.888,2.553
		c-0.89,0.802-2.132,2.028-3.487,3.622c-1.354,1.594-2.295,2.609-2.295,2.609v-0.636c0.109-0.296,2.207-3.611,2.369-3.856
		s0.809-1.162,1.094-1.543c0.284-0.38,1.727-2.103,2.291-2.778c0.566-0.676,0.805-1.064,2.398-3.776
		c1.592-2.711,1.601-4.437,1.601-4.437s-1.924,2.597-2.45,3.302c-0.526,0.704-1.605,2.141-2.244,3.027
		c-0.639,0.888-1.805,2.832-2.514,4.085c-0.711,1.252-2.59,4.931-2.59,4.931s0-0.296-0.006-0.995s-0.129-3.581-0.201-4.516
		s-0.371-2.329-0.56-3.116c-0.188-0.788-0.655-2.688-0.809-3.354s-0.22-1.522-0.22-1.522c-0.268,0.518-0.412,2.282-0.49,3.163
		s0.018,1.314,0.156,2.138c0.139,0.824,0.287,1.569,0.418,2.357c0.133,0.788,0.26,2.378,0.291,2.712s0.338,1.716,0.546,2.598
		s0.438,1.923,0.438,1.923s-0.036-0.626,0.004,0.045s-0.5,4.114-0.5,4.114s-0.926-2.799-1.337-4.1
		c-0.411-1.3-0.612-2.129-0.747-2.645c-0.135-0.517-0.336-1.149-0.678-2.213c-0.344-1.063-1.354-3.591-1.941-4.907
		c-0.587-1.316-1.178-2.908-1.299-3.362c-0.119-0.455-0.205-2.255-0.205-2.255c-1.262,2.745-0.697,3.517-0.586,4.162
		c0.109,0.646,0.885,3.157,1.215,4.35c0.329,1.192,1.033,3.506,1.468,4.827c0.435,1.322,1.237,3.065,1.771,4.173
		s1.727,3.288,1.727,3.288l-0.092,1.114c-0.738-0.216-1.705,0-1.705,0s-0.727-1.395-1.232-2.36
		c-0.505-0.965-1.266-2.403-1.709-3.239c-0.443-0.835-1.059-1.947-1.424-2.528s-1.15-1.634-1.816-2.548
		c-0.668-0.914-1.291-1.785-2.05-2.918s-1.55-2.375-1.55-2.375c0.186,0.302,1.123,2.638,1.459,3.555
		c0.334,0.916,0.496,1.72,0.734,2.409s0.602,1.451,1.021,2.34c0.422,0.889,0.918,1.644,1.588,2.67s1.918,3.009,3.117,4.934
		c1.197,1.926,1.475,3.357,1.475,3.357s-0.924-0.124-1.396-0.204c-0.473-0.081-0.785-0.205-1.287-0.44
		c-0.501-0.236-0.544-0.287-0.773-0.545c-0.229-0.258-0.791-0.877-1.545-1.697s-1.877-1.975-3.426-3.513s-2.983-2.488-2.983-2.488
		c0.558,0.738,2.298,3.37,2.571,3.806s0.91,1.577,1.301,2.227c0.391,0.648,1.129,1.742,1.129,1.742
		c-3.99,0.807-6.136,2.061-6.136,2.061c3.6-1.344,6.481-1.307,6.481-1.307c0.176,0.332,0.57,1.238,0.744,1.846
		c0.175,0.607,0.332,1.014,0.654,1.43c0.32,0.417,1.23,1.091,1.881,1.78c0.651,0.689,1.2,2.13,1.371,2.751
		c0.172,0.62,0.477,1.51,0.033,2.669s-0.903,2.08-0.903,2.08l0.29,0.29c0,0,0,0,0.375-0.938s0.914-0.955,0.914-0.955
		s1.047-0.705,2.002-1.228c0.954-0.522,2.477-1.773,3.172-2.455s0.965-0.546,0.965-0.546s0,0,0.783,0.818
		c0.785,0.818,2.217,1.842,3.082,2.569c0.863,0.728,1.557,1.046,1.557,1.046c-0.83,1.432-3.83,4.035-3.83,4.035l-0.904,0.951
		l0.572,0.564c0,0,0,0,1.184-1.025c1.186-1.025,3.783-4.44,3.783-4.44c0.543-0.153,1.758,0.034,2.9,0.085s3.489,0.784,3.489,0.784
		c4.904,0.665,8.502,5.024,8.502,5.024c-1.113-4.376-4.886-5.633-6.261-6.188c-1.376-0.556-3.334-0.717-4.727-0.826
		c-1.395-0.108-2.902,0.036-2.902,0.036l1.614-2.251c1.763,0.058,7.058-1.263,8.854-1.68c1.795-0.417,3.732-0.912,6.085-1.492
		c2.354-0.58,5.201-0.92,5.201-0.92C68.296,33.292,67.269,33.394,64.696,33.436z M57.993,29.034l-1.107,2.132v-2.319
		c0.631-0.46,1.107-0.46,1.107-0.46V29.034z M57.158,20.612c0.085,0.818,0.204,3.273,0.392,4.245s0.307,2.473,0.307,2.473
		l-0.971,0.238c0,0,0.033-3.052-0.479-4.483c-0.511-1.433-1.84-3.359-1.84-3.359l1.789-1.773
		C56.356,17.952,57.073,19.793,57.158,20.612z M54.958,14.593c0.87,0.802,0.938,2.336,0.938,2.336
		c-0.409,0.222-2.302,1.568-2.302,1.568c-0.051-0.238-1.176-1.159-1.176-1.159C53.187,16.963,54.958,14.593,54.958,14.593z
		 M51.89,18.157c0,0,0.887,0.648,0.921,0.972c0,0-3.034,2.592-3.563,3.495c0,0-0.58-0.409-1.228-0.647
		C48.02,21.976,51.036,18.701,51.89,18.157z M51.89,29.307c-1.482,0.597-3.546,1.858-3.546,1.858
		c-0.444-0.528-2.302-2.029-2.302-2.029l3.785-3.972C51.14,26.324,51.89,29.307,51.89,29.307z M42.325,26.306
		c0,0,2.046-1.278,2.949-1.824c0.904-0.546,2.012-1.722,2.012-1.722c0.733,0.392,1.074,0.921,1.074,0.921s-0.461,0.375-1.602,1.483
		c-1.143,1.107-2.814,2.863-2.814,2.863c-0.204-0.238-1.756-0.698-1.756-0.698L42.325,26.306z M41.848,28.489
		C42.359,28.523,43.161,29,43.161,29l-1.757,1.585L41.848,28.489z M41.404,28.25l-0.614,2.139c0-0.521-0.631-2.548-0.631-2.548
		C40.706,27.875,41.404,28.25,41.404,28.25z M36.759,30.389c0,0,0.451-0.06,1.525,0.742c1.074,0.801,1.875,1.483,1.875,1.483
		l-1.498,6.274C38.661,38.889,38.985,32.443,36.759,30.389z M39.127,39.909c-0.285,0.375-0.497,0.771-0.497,0.771
		c0.295-1.603,1.922-6.706,1.99-6.871c0.068-0.166,0.665-0.341,0.665-0.341l1.876,1.772C41.797,36.536,39.411,39.533,39.127,39.909z
		 M44.968,33.467c0,0-1.006-0.938-2.046-1.364l2.147-2.012c0,0,1.705,0.869,2.08,1.807L44.968,33.467z M51.532,39.468
		c-0.223,0.478-0.734,0.955-0.734,0.955c-1.295-2.813-3.768-5.303-3.768-5.303c0.018-0.188,1.586-1.177,1.586-1.177
		c0.598,0.512,2.354,3.598,2.609,4.093C51.48,38.531,51.753,38.991,51.532,39.468z M52.044,38.787
		c0.084-2.882-2.115-5.899-2.115-5.899l2.404-1.619c0.732,2.199,0.75,5.916,0.75,5.916L52.044,38.787z M53.493,28.659
		c-0.523-2.188-2.644-4.637-2.644-4.637l2.847-3.41c1.33,1.5,2.115,7.331,2.115,7.331C55.078,28.08,53.493,28.659,53.493,28.659z
		 M53.919,30.388l1.893-1.081v3.785l-1.604,2.335C54.208,35.427,54.294,31.776,53.919,30.388z"/>
	<path fill="#9DA979" d="M45.873,46.601c0,0,2.426-2.12,3.607-3.529c1.183-1.409,1.522-1.595,1.887-1.899
		c0.364-0.306,1.272-0.374,2.728-0.328c1.455,0.045,4.91,0.454,6.524,1.568c1.614,1.113,3.297,2.137,4.069,3.068
		c0.773,0.932,0.955,1.12,0.955,1.12s-0.637-1.528-2.865-3.052c-2.228-1.523-3.585-2.413-6.76-2.719
		c-3.174-0.305-4.447,0.104-4.129-0.601s0.909-1.524,1.297-2.023c0.387-0.5,0.498-0.728,0.545-0.5
		c0.045,0.228,1.24,0.401,2.48,0.137c1.24-0.264,6.391-1.459,7.295-1.659c0.904-0.201,1.75-0.387,1.75-0.387
		s-3.888-0.228-4.479-0.205c-0.591,0.023-0.887-0.001-0.887-0.001s3.318-0.886,6.115-1.09c2.796-0.204,4.684-0.341,4.684-0.341
		s-4.184-0.25-7.298,0.363c-3.114,0.614-5.927,1.25-7.374,1.91c-1.446,0.659-2.469,1.067-2.174,0.75
		c0.295-0.318,1.159-1.563,1.455-2.157c0.295-0.594,0.613-1.207,0.613-1.207s1.03-0.17,2.368-0.619
		c1.337-0.449,3.884-1.62,4.521-1.933s0.637-0.313,0.637-0.313l-1.183,0.313l0.637-0.472l-1.183,0.25l0.592-0.461l-0.842,0.143
		l0.932-0.553h-0.727c0,0,1.613-0.788,3.66-1.425c2.045-0.637,2.795-1.023,4.705-1.296s3.047-0.318,3.047-0.318l0.817-0.183
		c0,0-1.569-0.432-3.796,0c-2.228,0.433-5.843,1.82-6.615,2.161c-0.773,0.34-1.068,0.423-1.068,0.423l0.25-0.423
		c0,0-0.203-0.055-0.917,0.423c-0.714,0.477-2.071,1.383-2.487,1.73c-0.414,0.347-1.285,1.029-1.822,1.236
		c-0.535,0.207-0.615,0.36-0.615,0.36l-0.433,0.204c0,0,0.523-0.784,0.933-1.528s1.045-1.882,1.205-2.233
		c0.158-0.353,1.158-1.262,2.045-1.967c0.887-0.704,2.137-1.863,3.592-2.955c1.455-1.091,3.205-2.159,4.047-2.842
		c0.842-0.682,1.66-0.886,1.023-0.341c-0.637,0.546-1.5,1.205-1.568,1.251c-0.068,0.045-0.523,0.568-0.523,0.568l1.592-1.023
		l-0.751,1.023c0,0,1.089-0.64,1.614-1.137c0.525-0.498,0.891-0.771,0.969-0.994c0.078-0.224,0.309-0.86,0.035-1.01
		c-0.271-0.148-0.504-0.201-0.936-0.042s-1.479,0.751-1.977,1.07c-0.496,0.319-0.496,0.319-0.496,0.319l0.926-0.23
		c0,0-0.203,0.432-1.136,0.932c-0.932,0.5-2.501,1.819-3.433,2.592s-2.592,2.342-2.955,2.523s-1.182,1.159-1.092,0.522
		c0.092-0.637,0.449-1.31,0.66-1.659c0.21-0.35,0.295-0.796,0.613-1.137s1.023-2.023,2.182-3.023c1.16-1,2.16-2.023,2.797-2.614
		s1.113-0.864,1.113-0.864l-0.067,0.228l0.636-0.341l0.092,0.341c0,0,0.887-0.613,1.455-0.863c0.567-0.25,1.455-0.28,1.455-0.28
		s-1.436-0.203-2.297-0.123c-0.86,0.081-1.229,0.067-1.887,0.508c-0.659,0.441-1.074,0.84-1.074,0.84l0.893-0.24l0.113,0.023
		l0.25-0.068c0,0-1.773,1.478-2.273,1.978s-1.803,1.444-2.137,2.228c-0.333,0.784-1.205,2.501-1.318,2.137
		c-0.113-0.363-0.113-1.455,0.205-2.818c0.318-1.364,0.272-3.769,0.205-5.271c-0.068-1.503-0.542-2.572-0.979-3.367
		s-0.727-0.818-0.727-0.818s1.137,1.887,1.318,3.319c0.182,1.432,0.158,4.001,0.045,4.933s-0.342,2.455-0.295,3.023
		c0.045,0.568-0.228,0.955-0.25,1.273c-0.023,0.318-0.357,0.416-0.35,0.537c0.008,0.122-0.605,1.235-0.605,1.235
		s-0.296,0.887-0.432,1.205c-0.137,0.318-0.432,0.933-0.363-0.137c0.068-1.068,0.066-6.342-0.49-8.115
		c-0.557-1.772-1.443-3.387-1.67-3.796c-0.228-0.409-1.932-2.614-1.932-2.614s2.954,4.796,3.25,6.638
		c0.295,1.841,0.75,4.888,0.682,5.763s0.023,2.83-0.045,3.126c-0.068,0.295-0.285,0.283-0.285,0.283l-1.107,2.132l-0.381,1.201
		c0,0-0.381,0.452-0.293,0.202s0.543-3.012,0.475-4.404s-0.842-4.598-1.387-6.029s-1.143-2.683-1.969-3.523
		c-0.828-0.842-2.35-1.364-2.35-1.364s2.5,1.183,3.41,3.592c0.908,2.409,1.818,5.364,1.977,6.501
		c0.159,1.137,0.182,1.848,0.091,2.436s-0.433,2.657-0.409,2.884c0.023,0.228-0.375,0.63-0.375,0.63l-1.467,2.138l-0.289,1.233
		c0,0,0.018-2.092-0.143-3.433c-0.158-1.341-1.228-5.819-1.887-7.069c-0.658-1.25-1.279-1.921-1.961-2.728
		c-0.682-0.808-2.313-1.205-2.779-1.433c-0.465-0.228-1.715-0.159-1.715-0.159s1.963,0.888,2.504,1.376s1.512,1.331,2.121,2.179
		s1.512,2.379,1.83,3.913s0.443,1.961,0.443,1.961s-0.146-2.041-0.057-2.495c0.091-0.455,0.568,0.943,0.705,1.813
		c0.137,0.87,0.267,2.097,0.35,2.882c0.082,0.784,0,3.717,0,3.717h-0.248l-1.039,1.603c0,0-0.185-0.193-0.431-1.012
		s-1.565-3.342-2.429-4.638c-0.863-1.295-1.978-2.517-3.75-3.656c-1.773-1.14-2.16-1.141-3.342-1.641
		c-1.183-0.5-3.133-0.5-3.133-0.5s2.109,0.318,4.088,1.318c1.977,1.001,4.068,2.604,4.342,2.882c0.271,0.278,0.922,1.98,1.336,2.512
		c0.412,0.532,1.389,2.052,1.389,2.052s-0.771-2.217-0.475-1.716c0.295,0.5,1.527,2.841,1.627,3.159
		c0.101,0.318,0.314,0.975,0.322,1.342c0.01,0.367-0.08,0.512-0.324,0.909c-0.246,0.397-0.467,0.625-0.467,0.625
		s-0.98-1.919-1.795-2.961c-0.816-1.042-2.225-2.745-3.13-3.37s-2.303-1.693-4.327-2.552c-2.021-0.858-3.613-1.443-7.523-2.003
		c0,0-1.9-0.282-6.008,1.432c0,0,4.395-1.327,5.734-1.193c1.342,0.134,4.125,0.906,4.711,0.93c0.586,0.022,4.654,1.954,5.905,2.762
		c1.251,0.807,2.409,1.807,2.978,2.467c0.568,0.659,1.717,2.057,2.586,3.272c0.869,1.217,0.838,1.638,0.535,1.569
		s-1.258-0.818-2.303-1.887s-2.291-2.842-3.361-3.751s-2.984-2.319-3.085-2.342s4.222,3.501,4.788,4.388s2.063,2.568,2.463,2.864
		s1.631,0.659,1.498,0.978c-0.131,0.318-0.709,1.12-0.709,1.12s-1.967,2.065-2.314,2.386s-1.039,0.956-1.318,1.249
		c-0.279,0.292-0.553,0.715-0.553,0.715L45.873,46.601z"/>
	<path fill="#87A163" d="M41.183,8.155c0,0,0.023,1,0.182,1.613c0.16,0.614,0.342,1.092,0.342,1.092s0.272-1.228,0-2.183
		c-0.273-0.954-0.098-1.491-0.098-1.491s0.438,1.741,0.438,2.515c0,0.772-0.046,2.114,0.249,3.773
		c0.297,1.659,0.501,4.569,0.501,5.41s0.318,1.387,0.364,0.887c0.045-0.5,1.272-2.729,1.818-3.729c0.545-1,1.189-2.309,1.742-3.291
		c0.554-0.982,0.908-1.654,1.85-2.892c0.941-1.238,2.071-2.749,2.857-3.809c0.785-1.059,1.575-2.125,1.575-2.125
		s-1.182,2.318-1.568,3.318c-0.387,1.001-1.737,3.391-2.138,4.206c-0.398,0.815-0.861,1.389-1.408,2.024s-1.627,2.063-2.27,2.985
		c-0.641,0.924-2.047,3.274-2.177,3.502c-0.129,0.228-0.192,0.354-0.192,0.354v0.636c0,0,0.895-1.045,1.676-1.887
		c0.779-0.841,1.947-2.351,2.871-3.205s2.189-1.673,3.156-2.683s1.631-1.765,2.377-2.686c0.744-0.921,1.049-1.554,1.752-1.935
		c0.703-0.38,1.559-0.585,1.559-0.585S55.709,8.701,55.298,9.2c-0.41,0.499-1.329,1.37-1.721,2.151
		c-0.391,0.782-1.018,1.312-1.439,1.843c-0.422,0.532-0.916,1.256-1.725,2.086s-1.057,1.286-1.836,1.797
		c-0.779,0.512-1.264,1.138-1.677,1.569s-0.739,0.738-1.126,1.193c-0.387,0.454-0.406,0.682-1.32,1.212
		c-0.912,0.529-1.407,0.743-1.407,0.743s-0.114-0.114-0.317,1.159c-0.205,1.272-0.273,2.211-0.273,2.211l-0.182-0.348
		c0,0,0.283-1.885,0.357-2.501c0.073-0.615,0.203-1.339,0.139-1.658c-0.064-0.318-0.835-3.521-0.918-4.112
		c-0.083-0.591-0.123-1.844-0.283-2.753s-0.436-2.193-0.551-3.064C40.905,9.857,41.183,8.155,41.183,8.155z"/>
	<path fill="#A5BF86" d="M43.706,18.77c0,0,2.865-5.205,3.979-6.955c1.113-1.751,2.184-2.773,2.729-3.819s1.521-2.569,1.521-2.569
		s-1.637,3.251-2.25,4.274c-0.613,1.022-1.978,3-2.637,4.023c-0.659,1.022-3.25,5.138-3.479,5.592
		c-0.227,0.455-0.227,0.455-0.227,0.455L43.706,18.77z"/>
	<path fill="#A5BF86" d="M43.343,21.293c0,0,2.432-2.909,4.183-4.183c1.75-1.272,3.387-3.114,3.728-3.546
		c0.342-0.432,1.166-1.205,1.166-1.205s-2.643,2.614-3.779,3.319C47.503,16.383,43.683,20.427,43.343,21.293z"/>
	<path fill="#88A464" d="M36.138,11.92l0.18-0.605l0.273,0.605c0,0-0.383-2.311-0.453-3.062c-0.07-0.75,0.064-1.703,0.064-1.703
		s0.752,3.454,0.98,4.341c0.227,0.886,0.727,1.103,0.727,1.103l-0.158-1.239c0,0,1.377,3.171,1.928,5.018s1.109,3.877,1.313,4.512
		c0.205,0.635,1.01,3.27,1.102,3.655c0.09,0.387,0.454,0.62,0.454,0.62s-0.284,0.926-0.358,1.085s0,1.08,0,1.08l-0.619-0.08
		l0.092-1.114c0,0-0.953-2.023-1.16-2.296c-0.207-0.271-1.65-3.182-1.871-4.068s-0.883-3.137-1.471-4.751
		C36.571,13.405,36.138,11.92,36.138,11.92z"/>
	<path fill="#A5BF86" d="M41.819,25.294c0,0-2.137-6.206-2.842-7.91c-0.705-1.705-1.568-3.524-1.842-4.593
		c-0.271-1.068-0.567-2.887-0.613-2.978c-0.045-0.091,1.114,4.16,1.66,5.183c0.545,1.023,1.387,2.751,1.977,4.615
		c0.592,1.864,1.819,5.553,1.819,5.553L41.819,25.294z"/>
	<path fill="#88A465" d="M30.886,12.769c0,0,2.295,4.138,3.227,6.115c0.934,1.978,2.768,4.614,3.236,5.751
		c0.471,1.137,1.447,2.342,1.447,2.342l-7.521-13.861l3.566,5.041c0,0,0.707,1.113,1.342,2.137c0.636,1.023,2.158,4.04,2.449,4.596
		c0.291,0.557,1.232,2.36,1.232,2.36L38.96,27.34l1.199,0.342c0,0,0.051,0.296,0.194,0.807c0.144,0.51,0.478,1.582,0.437,1.899
		c-0.039,0.317-0.039,0.317-0.039,0.317l0.031,0.46l-1.293-0.428c0,0-0.41-1.543-0.859-2.356c-0.447-0.813-2.271-3.836-3.008-4.981
		s-2.137-3.182-2.527-4.246c-0.391-1.065-0.863-2.129-1.191-3.178S30.886,12.769,30.886,12.769z"/>
	<path fill="#667A54" d="M44.8,28.273l4.102-4.173l0.273,0.271l-4.037,4.287C45.138,28.659,45.097,28.432,44.8,28.273z"/>
	<path fill="#667A54" d="M49.777,23.272c0,0,2.976-3.273,3.306-3.501l0.248,0.228l-3.402,3.433L49.777,23.272z"/>
	<path fill="#667A54" d="M53.919,19.043c0,0,1.939-1.674,2.293-1.801v0.209l-2.293,1.796V19.043z"/>
	<polygon fill="#667A54" points="57.164,16.338 58.657,15.255 58.778,15.406 57.255,16.545 	"/>
	<polygon fill="#667A54" points="45.873,34.092 47.972,32.631 48.128,32.961 46.18,34.329 	"/>
	<polygon fill="#667A54" points="48.966,31.779 52.122,30.388 52.208,30.768 49.321,32.206 	"/>
	<polygon fill="#667A54" points="53.822,29.481 55.812,28.659 55.812,28.841 53.822,29.776 	"/>
	<polygon fill="#667A54" points="57.005,28.165 57.856,27.84 57.856,28.002 56.886,28.489 	"/>
	<path opacity="0.5" fill="#140F11" d="M35.663,44.32c0,0,1.409,0.272,3-0.955c1.592-1.228,0.865-2.183,2.138-1.455
		s1.591,1.502,3.183,1.092c1.591-0.409,2.182-0.773,2.5,0.363c0.318,1.136,0.137,1.409-0.727,1.909
		c-0.865,0.501-0.592,1.772,1.363,2.092c1.955,0.318,2.729-0.5,3.455-1.455c0.728-0.954,0.637-2.092,0.637-2.092
		s0.546-0.545,0.592,0.137c0.045,0.682-1.729,1.863,0.545,0.955c2.273-0.909,4.501-0.364,5.455,0.409
		c0.955,0.772,1.502,2.038,0.592,2.792c-0.909,0.754-1.364,3.937-5.456,4.437c-4.093,0.5-9.048,1.501-13.003,1.501
		s-4.137-0.182-7.274-0.773c-3.138-0.591-4.955,1.955-8.138,0.773c-3.183-1.183-6.138-4.093-6.229-5.456
		c-0.091-1.364,1.91-2.455,3.364-1.728s3.501,0.272,4.41,1.546c0.91,1.272,1.638,3.5,1.729,1.136c0.09-2.363-0.091-3-1.364-5
		c-1.272-2.001-1.683-2.592-1.683-3.138s0.364-0.955,1.273-0.637s0.408-0.045,3.092,1.683c2.682,1.728,2.864,1.865,4,1.864
		C34.253,44.319,35.663,44.32,35.663,44.32z"/>
	<g>
		<path fill="#67505C" d="M13.7,54.161c-0.154,3.704,2.935,4.99,6.556,4.99s6.555-2.234,6.555-4.99s-2.935-4.989-6.555-4.989
			S13.7,51.405,13.7,54.161z"/>
		<path fill="#291822" d="M23.11,57.762c0,0,1.483-1.159,1.552-1.773c0.068-0.613-0.153-0.682-0.376-0.955
			c-0.221-0.272-0.033-0.374,0.205-1.057c0.239-0.682,0.281-1.431,0.184-1.679s-0.818-2.323-0.547-2.162
			c0.273,0.16,2.018,1.317,2.205,2.818c0.188,1.5,0.188,2.284-0.563,3.341C25.021,57.353,23.025,58.496,23.11,57.762z"/>
		<path fill="#48323D" d="M14.791,53.278c0,0-0.256,0.973,0,1.62s0.335,0.904,0.335,0.904s-0.111-0.944,0.295-1.33
			c0,0,0,1.142,0.597,1.517s0.597,0.375,0.597,0.375s-0.272-0.341-0.238-0.613c0.034-0.273,0.034-0.273,0.034-0.273
			s0.409,1.416,2.199,1.467c1.79,0.051,2.625-0.204,3.649-0.903c1.022-0.699,1.517-0.802,1.789-0.324
			c0.273,0.478-0.516,1.006-0.939,1.433c-0.424,0.426-1.242,1.414-2.691,1.414s-3.614-0.182-4.518-1.091
			C14.995,56.563,13.836,55.12,14.791,53.278z"/>
		<path fill="#48303A" d="M20.604,55.682c0,0,1.091,0.008,1.756-1.087c0.665-1.096,0.393-1.761-0.102-1.981
			c-0.495-0.222-0.75,0.101-1.399-0.257c-0.647-0.357-0.847-0.664-1.591-0.767c-0.744-0.103-1.495,0.419-1.699,0.832
			c-0.205,0.412,0,0.498,0,0.498s0.153-0.293,0.341-0.087s0.235,0.819,0.237,0.905c0.001,0.085,0.786-0.281,0.871,0.081
			c0.085,0.362-0.358,0.703-0.358,0.703s1.023-0.308,0.478,0.358c-0.546,0.664-0.546,0.664-0.546,0.664s1.5-1.142,1.211-0.563
			c-0.29,0.58-0.426,0.784-0.426,0.784S20.521,54.583,20.604,55.682z"/>
		<path fill="#DCE6F4" d="M15.916,50.674c0,0-1.585,1.325-1.125,1.956s1.586,1.006,2.268,0.461c0.682-0.546,1.216-1.284,2.21-1.077
			s0.625,0.409,1.791,0.437c1.165,0.026,2.377,0.229,2.972-0.028c0.595-0.258,0.909-1.491,0.376-1.957
			c-0.535-0.466-2.244-0.951-3.854-1.072C18.943,49.272,16.547,49.842,15.916,50.674z"/>
		<path fill="#8A8778" d="M17.536,51.096c0,0,0.622,0.076,1.278,0.076c0.657,0,1.253,0.147,1.697,0.193
			c0.443,0.046,2.336,0.105,2.148-0.691s-1.56-0.814-2.336-0.652c-0.775,0.162-1.483,0.213-1.815,0.247S16.845,50.806,17.536,51.096
			z"/>
		<path fill="#251413" d="M19.129,50.674c0,0,0.333-0.68,1.518-0.547s1.049,0.67,0.622,0.772
			C20.843,51.002,19.488,50.909,19.129,50.674z"/>
		<path fill="#C18968" d="M19.488,50.665c0,0,0.238-0.293,0.865-0.268c0.626,0.025,1.373,0.376,1.045,0.454
			c-0.328,0.078-1.371,0.088-1.74-0.008C19.288,50.749,19.411,50.668,19.488,50.665z"/>
	</g>
	<g>
		<path fill="#6A505A" d="M48.14,46.356c0,0-4.109-2.028-6.479-0.272c-2.371,1.756-3.24,4.825-2.371,7.194
			c0.869,2.37,2.404,3.457,3.768,3.852c1.365,0.395,3.043,0.483,4.042-0.021c0.999-0.504,2.098-1.105,3.146-2.562
			c1.049-1.455,1.27-4.115,0.758-5.735C50.491,47.192,48.14,46.356,48.14,46.356z"/>
		<path fill="#291722" d="M41.013,51.011c0,0-1.393,0.954-0.688,2.693s2.034,2.558,3.244,2.933c1.211,0.375,3.529,0.188,4.553-0.597
			s3.277-2.981,3.135-4.894c-0.142-1.911-1.157-3.563-1.6-3.818c-0.443-0.256-1.143,0.188-1.297,0.408
			C48.208,47.959,41.916,52.102,41.013,51.011z"/>
		<path fill="#48303A" d="M43.569,46.22c0,0-1.466,0.255-1.893,1.262c-0.426,1.005-0.887,3.427-0.563,4.79
			c0.324,1.364,1.518,2.527,3.291,2.585s4.006-0.948,4.125-3.932C48.65,47.942,49.265,47.021,43.569,46.22z"/>
		<path fill="#8C8485" d="M48.975,48.351c0,0,1.501,0.733,1.347,2.336s-0.324,2.83-2.113,3.205c-1.791,0.375-2.029-2.54-1.365-3.733
			C47.509,48.965,48.224,48.113,48.975,48.351z"/>
		<path fill="#E2E8F5" d="M44.269,47.25c0,0,0.358,0.794,1.16,0.93c0.801,0.137,1.789,0.035,2.148-0.102
			c0.357-0.137,0.357-0.137,0.357-0.137l-0.222-0.194h0.705l-0.245-0.386l0.635,0.035l-0.197-0.324h0.33c0,0-0.338-0.256-0.33-0.324
			c0.006-0.068,0.19-0.124-0.547-0.429c-0.738-0.305-1.852-0.737-2.677-0.837s-1.907-0.189-2.537,0.039s-1.312,0.692-1.845,1.192
			c-0.531,0.5-1.48,1.709-1.793,2.9c-0.313,1.191-0.365,2.449-0.027,3.341s0.711,1.613,0.711,1.613s-0.742-3.438-0.247-4.803
			s2.06-2.942,3.161-3.304c1.102-0.362,1.137-0.242,1.137-0.242S44.138,47.028,44.269,47.25z"/>
		<path fill="#1B1427" d="M44.104,45.981c0,0,1.738-0.25,2.534,0s0.876,0.239,0.876,0.239s-0.217,0.289-0.285,0.275
			c-0.067-0.015,0.455,0.565,0.455,0.565s-0.262-0.273-0.603-0.284s-0.396,0.045-0.579,0.409c-0.182,0.363-0.818,0.637-1.318,0.432
			C44.685,47.414,43.866,46.64,44.104,45.981z"/>
		<path fill="#BC8960" d="M44.218,46.496c0,0,0.266,0.705,0.988,0.918s1.16,0.079,1.058-0.318c-0.103-0.396-0.468-0.5-1.016-0.601
			C44.7,46.395,43.956,46.18,44.218,46.496z"/>
	</g>
	<g>
		<path fill="#46313A" d="M26.674,52.733c0,0,0.171-2.349,1.585-3.562c1.416-1.212,1.893-1.744,2.455-2.032s2.694-0.937,4.52-0.493
			c1.823,0.443,3.988,1.654,4.688,4.62c0.699,2.967-1.258,4.711-1.342,4.813c-0.082,0.102-1.169,1.601-3.852,2.222
			c-2.684,0.621-4.236,0.09-5.025-0.499S26.794,55.563,26.674,52.733z"/>
		<path fill="#67515B" d="M30.681,49.033c0,0-0.869-0.443-1.688,0.717c-0.818,1.159-1.552,2.54-1.109,4.177
			c0.443,1.637,1.126,2.455,1.518,2.711c0.393,0.256,0.546,0.324,0.546,0.324s-0.784-0.973-0.579-1.194c0,0,0.563,0.376,1.091,0.631
			c0.528,0.256,0.528,0.256,0.528,0.256s-0.375-0.409-0.393-0.732c-0.017-0.324-0.017-0.324-0.017-0.324s0.067,0.222,0.886,0.46
			c0.819,0.238,0.819,0.238,0.819,0.238s-0.647-0.187-0.767-0.528c-0.12-0.341-0.12-0.341-0.12-0.341s1.569,0.768,2.813,0.665
			s1.295-0.324,1.295-0.324s0.223,0.154-0.271,0.409c-0.495,0.256-0.666,0.273-0.666,0.273s0.734-0.205,1.143-0.307
			c0.409-0.103,0.426-0.222,0.426-0.222s-0.494,0.665-0.818,0.767c-0.324,0.103-0.324,0.103-0.324,0.103s1.313-0.341,1.723-0.733
			s0.29-0.341,0.563-1.397c0.273-1.058,0.512-1.142,0.512-2.122c0-0.981-0.188-1.348-1.125-2.597s-1.808-1.095-2.029-0.396
			c-0.221,0.699-0.068,1.067,0.494,1.821c0.563,0.753,0.734,3.106-1.346,3.498c-2.08,0.393-3.189-1.159-2.984-2.506
			S31.481,49.391,30.681,49.033z"/>
		<path fill="#BFC8D0" d="M35.472,51.505c0,0,0.461,0.716,0.256,1.568s-0.375,1.177-0.375,1.177s0.344-0.422,0.428-0.578
			c0.084-0.155,0.084-0.155,0.084-0.155s0.119,0.563,0,0.818c-0.12,0.256-0.12,0.256-0.12,0.256s0.308-0.546,0.392-0.802
			c0.086-0.256,0.086-0.256,0.086-0.256s0.018,0.818-0.086,1.058c-0.102,0.238-0.102,0.238-0.102,0.238s0.545-0.869,0.545-0.921
			c0-0.051,0.035,0.461,0,0.733c-0.033,0.272-0.102,0.375-0.102,0.375s0.682-1.057,0.682-1.909s-0.238-1.449-0.528-1.824
			s-0.563-0.512-0.563-0.512s0.324,0.818,0.273,1.058c-0.051,0.238-0.051,0.238-0.051,0.238l-0.171-0.49l-0.103,0.371
			C36.017,51.949,35.885,51.743,35.472,51.505z"/>
		<path fill="#8B8585" d="M30.987,54.061c0,0-0.188,1.093-1.176,0.718c-0.989-0.375-1.377-0.829-1.586-2.046
			c-0.21-1.217,0.044-1.936,0.471-2.545c0.426-0.609,1.166-0.848,1.66-0.678c0.494,0.171,0.842,0.334,0.742,1.016
			c-0.099,0.681-0.232,1.373-0.316,2.012S30.767,53.667,30.987,54.061z"/>
		<path fill="#281512" d="M33.749,53.773c0,0,1.842-0.853,0.682-3.001c0,0-0.391-0.494-1.158-0.494s-1.73,0.336-2.047,1.747
			C30.909,53.437,32.471,53.159,33.749,53.773z"/>
		<ellipse fill="#493535" cx="33.222" cy="52.392" rx="1.262" ry="1.381"/>
		<ellipse fill="#C49268" cx="33.187" cy="52.608" rx="1.211" ry="1.165"/>
		<path fill="#DDEAF6" d="M30.714,47.139c0,0,3.513,0.053,5.303,0.854c1.791,0.802,2.012,0.938,2.762,2.285s0.973,2.625,0.922,3
			c-0.052,0.375,0.006,1.111,0.006,1.111s0.488-1.47,0.365-2.232c-0.121-0.763-0.271-2.377-1.523-3.611s-2.178-1.566-2.682-1.717
			C35.36,46.678,33.356,46.029,30.714,47.139z"/>
	</g>
	<g>
		<path fill="#201219" d="M51.267,49.169c0,0,1.816-2.286,3.846-2.839c2.029-0.554,4.217-0.56,5.063,0.267
			c0.844,0.826,1.473,1.451,1.732,1.714c0.258,0.262,0.861,1.002,1.055,1.579c0.193,0.576,0.564,1.611,0.382,2.672
			c-0.183,1.062-0.481,2.11-0.87,2.649s-1.027,1.373-1.818,1.769s-1.675,0.729-2.646,0.876c-0.971,0.145-2.318,0.135-3.173-0.074
			c-0.854-0.208-2.081-0.589-2.657-1.135c-0.576-0.545-1.313-1.664-1.568-2.636C50.355,53.04,50.354,50.415,51.267,49.169z"/>
		<path fill="#43313C" d="M53.163,49.186c0,0-0.58,0.455-1.035,1.205c-0.454,0.75-0.363,1.546-0.613,1.921
			c-0.25,0.376-0.57,1.273-0.25,2.257c0.318,0.982,0.305,1.482,0.697,1.854s1.268,1.142,3.342,1.448
			c2.076,0.307,3.297,0,4.104-0.326c0.807-0.325,2.223-0.901,2.52-3.414c0.295-2.512-0.08-4.534-1.059-5.455
			c-0.977-0.921-2.432-1.455-3.863-1.273S54.14,48.323,53.163,49.186z"/>
		<path fill="#F6F8FC" d="M61.577,47.979c0,0-0.719-0.861-2.424-1.135c-1.705-0.272-4.08-0.074-5.331,0.844
			c-1.251,0.919-2.44,2.447-2.581,3.51c-0.139,1.064-0.223,2.229-0.111,2.888s0.584,2.039,0.584,2.039s-1.064-1.31-1.199-2.663
			c-0.137-1.354-0.014-3.015,0.438-3.736s1.374-1.755,1.989-2.204c0.613-0.449,1.877-1.309,3.322-1.443s2.781-0.127,3.363,0.167
			C60.21,46.538,61.058,47.439,61.577,47.979z"/>
		<path fill="#877C7F" d="M53.413,49.107c0,0-1.398,1.228-0.784,3.989c0.614,2.763,4.989,2.137,6.194,1.625
			c1.205-0.511,3.764-1.636,2.34-5.712c0,0,0.963,1.141,0.861,3.715c-0.102,2.575-3.545,3.827-5.574,3.785
			c-2.029-0.043-4.041-0.921-4.748-2.805c0,0,0.035,0.341,0,0.921c-0.033,0.579-0.086,0.861-0.086,0.861s-0.575-1.605-0.465-2.115
			c0.111-0.51,0.5-0.839,0.543-1.335C51.735,51.542,52.038,49.931,53.413,49.107z"/>
		<path fill="#BCC4CB" d="M54.354,51.059c0,0-0.103,0.643,0.103,1.256s0.528,1.219,0.528,1.219s-0.741-0.298-0.741-0.256
			c0,0.043,0.37,1.135,0.37,1.135s-0.694-0.043-0.899-0.98v0.443l-0.408-0.598l-0.068,0.41c0,0-0.18-0.623-0.443-1.151
			c-0.265-0.528-0.414-0.646-0.31-1.124s0.104-0.419,0.104-0.419s0.162,0.352,0.17,0.419c0.01,0.066,0.213-0.295,0.213-0.295
			l0.12,0.183l0.128-0.656l0.145-0.451c0,0,0.154,1.449,0.154,1.475s0.307-0.674,0.307-0.674l0.332,0.741
			C54.157,51.735,54.183,51.286,54.354,51.059z"/>
		<path fill="#161019" d="M57.835,50.915c0,0-0.057,0.262,0.113,0.545c0.17,0.284-0.363,0.739-0.92,0.648
			c-0.557-0.092-1.621-0.137-2.044-1.193c-0.423-1.058-0.378-1.899,0.111-2.365c0.489-0.465,2.046-0.545,2.694-0.408
			c0.646,0.136,1.58,0.716,1.772,1.17c0.192,0.455,0.204,0.83,0,1.171S57.829,50.647,57.835,50.915z"/>
		<ellipse fill="#C99364" cx="57.46" cy="49.59" rx="1.057" ry="0.824"/>
	</g>
</g>
</svg>
