<?xml version="1.0" encoding="utf-8"?>
<!-- Generator: Adobe Illustrator 16.0.3, SVG Export Plug-In . SVG Version: 6.00 Build 0)  -->
<!DOCTYPE svg PUBLIC "-//W3C//DTD SVG 1.1//EN" "http://www.w3.org/Graphics/SVG/1.1/DTD/svg11.dtd">
<svg version="1.1" id="Camada_1" xmlns="http://www.w3.org/2000/svg" xmlns:xlink="http://www.w3.org/1999/xlink" x="0px" y="0px"
	 width="88.048px" height="32px" viewBox="0 0 88.048 32" enable-background="new 0 0 88.048 32" xml:space="preserve">
<g>
	<polygon fill-rule="evenodd" clip-rule="evenodd" fill="#47303B" points="88.048,27.526 83.741,32 88.048,32 	"/>
	<polygon fill-rule="evenodd" clip-rule="evenodd" fill="#47303B" points="77.146,10.366 87.125,0 84.855,0 77.146,8.007 	"/>
	<polygon fill-rule="evenodd" clip-rule="evenodd" fill="#47303B" points="88.048,26.029 88.048,23.672 80.03,32 82.3,32 	"/>
	<polygon fill-rule="evenodd" clip-rule="evenodd" fill="#47303B" points="88.048,0.538 77.146,11.862 77.146,14.221 88.048,2.897 	
		"/>
	<polygon fill-rule="evenodd" clip-rule="evenodd" fill="#47303B" points="78.589,32 88.048,22.174 88.048,19.815 77.146,31.139 
		77.146,32 	"/>
	<polygon fill-rule="evenodd" clip-rule="evenodd" fill="#47303B" points="77.146,6.511 83.415,0 81.144,0 77.146,4.152 	"/>
	<polygon fill-rule="evenodd" clip-rule="evenodd" fill="#47303B" points="31.491,23.43 20.59,12.106 20.59,14.464 31.491,25.787 	
		"/>
	<polygon fill-rule="evenodd" clip-rule="evenodd" fill="#47303B" points="32.511,10.366 42.489,0 40.218,0 32.511,8.007 	"/>
	<polygon fill-rule="evenodd" clip-rule="evenodd" fill="#47303B" points="76.127,4.153 72.13,0 69.86,0 76.127,6.511 	"/>
	<polygon fill-rule="evenodd" clip-rule="evenodd" fill="#47303B" points="76.127,0.298 75.841,0 73.571,0 76.127,2.655 	"/>
	<polygon fill-rule="evenodd" clip-rule="evenodd" fill="#47303B" points="77.146,2.655 79.703,0 77.432,0 77.146,0.297 	"/>
	<polygon fill-rule="evenodd" clip-rule="evenodd" fill="#47303B" points="76.127,8.009 68.418,0 66.148,0 76.127,10.366 	"/>
	<polygon fill-rule="evenodd" clip-rule="evenodd" fill="#47303B" points="76.127,15.719 65.227,4.395 65.227,6.753 76.127,18.076 	
		"/>
	<polygon fill-rule="evenodd" clip-rule="evenodd" fill="#47303B" points="76.127,19.574 65.227,8.251 65.227,10.608 76.127,21.932 
			"/>
	<polygon fill-rule="evenodd" clip-rule="evenodd" fill="#47303B" points="76.127,11.864 65.227,0.539 65.227,2.897 76.127,14.221 	
		"/>
	<polygon fill-rule="evenodd" clip-rule="evenodd" fill="#47303B" points="65.227,23.672 65.227,26.029 70.975,32 73.244,32 	"/>
	<polygon fill-rule="evenodd" clip-rule="evenodd" fill="#47303B" points="76.127,23.43 65.227,12.106 65.227,14.464 76.127,25.787 
			"/>
	<polygon fill-rule="evenodd" clip-rule="evenodd" fill="#47303B" points="65.227,18.319 76.127,29.643 76.127,27.285 
		65.227,15.962 	"/>
	<polygon fill-rule="evenodd" clip-rule="evenodd" fill="#47303B" points="77.146,29.643 88.048,18.318 88.048,15.96 77.146,27.284 
			"/>
	<polygon fill-rule="evenodd" clip-rule="evenodd" fill="#47303B" points="88.048,8.249 77.146,19.574 77.146,21.932 88.048,10.608 
			"/>
	<polygon fill-rule="evenodd" clip-rule="evenodd" fill="#47303B" points="65.227,32 69.532,32 65.227,27.527 	"/>
	<polygon fill-rule="evenodd" clip-rule="evenodd" fill="#47303B" points="88.048,4.395 77.146,15.718 77.146,18.076 88.048,6.752 	
		"/>
	<polygon fill-rule="evenodd" clip-rule="evenodd" fill="#47303B" points="88.048,12.104 77.146,23.429 77.146,25.787 
		88.048,14.463 	"/>
	<polygon fill-rule="evenodd" clip-rule="evenodd" fill="#47303B" points="76.127,31.141 65.227,19.816 65.227,22.174 74.686,32 
		76.127,32 	"/>
	<polygon fill-rule="evenodd" clip-rule="evenodd" fill="#47303B" points="31.491,31.141 20.59,19.816 20.59,22.174 30.049,32 
		31.491,32 	"/>
	<polygon fill-rule="evenodd" clip-rule="evenodd" fill="#47303B" points="20.59,18.319 31.491,29.643 31.491,27.285 20.59,15.962 	
		"/>
	<polygon fill-rule="evenodd" clip-rule="evenodd" fill="#47303B" points="31.491,4.153 27.493,0 25.224,0 31.491,6.511 	"/>
	<polygon fill-rule="evenodd" clip-rule="evenodd" fill="#47303B" points="32.511,2.655 35.066,0 32.796,0 32.511,0.297 	"/>
	<polygon fill-rule="evenodd" clip-rule="evenodd" fill="#47303B" points="32.511,6.511 38.778,0 36.507,0 32.511,4.152 	"/>
	<polygon fill-rule="evenodd" clip-rule="evenodd" fill="#47303B" points="32.511,14.221 43.412,2.897 43.412,0.538 32.511,11.862 	
		"/>
	<polygon fill-rule="evenodd" clip-rule="evenodd" fill="#47303B" points="43.412,27.526 39.104,32 43.412,32 	"/>
	<polygon fill-rule="evenodd" clip-rule="evenodd" fill="#47303B" points="64.207,0 54.816,0 54.816,4.561 58.112,1.576 
		58.271,1.75 58.434,2.62 54.816,5.896 54.816,9.691 58.958,5.94 59.081,6.075 59.255,7.007 54.816,11.027 54.816,14.821 
		59.804,10.306 59.89,10.401 60.077,11.394 54.816,16.157 54.816,19.953 60.649,14.67 60.701,14.727 60.898,15.78 54.816,21.288 
		54.816,25.083 61.494,19.034 61.51,19.052 61.719,20.167 54.816,26.419 54.816,30.214 62.327,23.412 62.54,24.554 54.318,32 
		64.207,32 	"/>
	<polygon fill-rule="evenodd" clip-rule="evenodd" fill="#47303B" points="46.312,23.412 53.822,30.214 53.822,26.419 
		46.919,20.167 47.128,19.052 47.144,19.034 53.822,25.083 53.822,21.288 47.74,15.78 47.938,14.727 47.989,14.67 53.822,19.953 
		53.822,16.158 48.563,11.394 48.748,10.401 48.835,10.306 53.822,14.821 53.822,11.027 49.383,7.007 49.558,6.075 49.68,5.94 
		53.822,9.691 53.822,5.897 50.205,2.62 50.367,1.75 50.526,1.576 53.822,4.561 53.822,0 44.431,0 44.431,32 54.318,32 
		46.098,24.554 	"/>
	<polygon fill-rule="evenodd" clip-rule="evenodd" fill="#47303B" points="1.676,23.412 9.186,30.214 9.186,26.419 2.283,20.167 
		2.492,19.052 2.508,19.034 9.186,25.083 9.186,21.288 3.104,15.78 3.302,14.727 3.353,14.67 9.186,19.953 9.186,16.158 
		3.926,11.394 4.111,10.401 4.198,10.306 9.186,14.821 9.186,11.027 4.747,7.007 4.921,6.075 5.043,5.94 9.186,9.691 9.186,5.897 
		5.568,2.62 5.731,1.75 5.89,1.576 9.186,4.561 9.186,0 0,0 0,32 9.683,32 1.461,24.554 	"/>
	<polygon fill-rule="evenodd" clip-rule="evenodd" fill="#47303B" points="31.491,8.009 23.782,0 21.512,0 31.491,10.366 	"/>
	<polygon fill-rule="evenodd" clip-rule="evenodd" fill="#47303B" points="19.571,0 10.18,0 10.18,4.561 13.476,1.576 13.634,1.75 
		13.797,2.62 10.18,5.896 10.18,9.691 14.322,5.94 14.444,6.075 14.619,7.007 10.18,11.027 10.18,14.821 15.167,10.306 
		15.254,10.401 15.439,11.394 10.18,16.157 10.18,19.953 16.013,14.67 16.064,14.727 16.261,15.78 10.18,21.288 10.18,25.083 
		16.858,19.034 16.874,19.052 17.083,20.167 10.18,26.419 10.18,30.214 17.69,23.412 17.903,24.554 9.683,32 19.571,32 	"/>
	<polygon fill-rule="evenodd" clip-rule="evenodd" fill="#47303B" points="31.491,0.298 31.204,0 28.935,0 31.491,2.655 	"/>
	<polygon fill-rule="evenodd" clip-rule="evenodd" fill="#47303B" points="20.59,23.672 20.59,26.029 26.338,32 28.607,32 	"/>
	<polygon fill-rule="evenodd" clip-rule="evenodd" fill="#47303B" points="31.491,11.864 20.59,0.539 20.59,2.897 31.491,14.221 	
		"/>
	<polygon fill-rule="evenodd" clip-rule="evenodd" fill="#47303B" points="20.59,32 24.896,32 20.59,27.527 	"/>
	<polygon fill-rule="evenodd" clip-rule="evenodd" fill="#47303B" points="31.491,15.719 20.59,4.395 20.59,6.753 31.491,18.076 	
		"/>
	<polygon fill-rule="evenodd" clip-rule="evenodd" fill="#47303B" points="31.491,19.574 20.59,8.251 20.59,10.608 31.491,21.932 	
		"/>
	<polygon fill-rule="evenodd" clip-rule="evenodd" fill="#47303B" points="32.511,29.643 43.412,18.318 43.412,15.96 32.511,27.284 
			"/>
	<polygon fill-rule="evenodd" clip-rule="evenodd" fill="#47303B" points="43.412,4.395 32.511,15.718 32.511,18.076 43.412,6.752 	
		"/>
	<polygon fill-rule="evenodd" clip-rule="evenodd" fill="#47303B" points="43.412,12.104 32.511,23.429 32.511,25.787 
		43.412,14.463 	"/>
	<polygon fill-rule="evenodd" clip-rule="evenodd" fill="#47303B" points="33.952,32 43.412,22.174 43.412,19.815 32.511,31.139 
		32.511,32 	"/>
	<polygon fill-rule="evenodd" clip-rule="evenodd" fill="#47303B" points="43.412,26.029 43.412,23.672 35.393,32 37.664,32 	"/>
	<polygon fill-rule="evenodd" clip-rule="evenodd" fill="#47303B" points="43.412,8.249 32.511,19.574 32.511,21.932 43.412,10.608 
			"/>
</g>
</svg>
