<?xml version="1.0" encoding="utf-8"?>
<!-- Generator: Adobe Illustrator 16.0.3, SVG Export Plug-In . SVG Version: 6.00 Build 0)  -->
<!DOCTYPE svg PUBLIC "-//W3C//DTD SVG 1.1//EN" "http://www.w3.org/Graphics/SVG/1.1/DTD/svg11.dtd">
<svg version="1.1" id="Layer_1" xmlns="http://www.w3.org/2000/svg" xmlns:xlink="http://www.w3.org/1999/xlink" x="0px" y="0px"
	 width="289.67px" height="289.669px" viewBox="0 0 289.67 289.669" enable-background="new 0 0 289.67 289.669"
	 xml:space="preserve">
<circle fill="#EE7D00" cx="144.835" cy="144.835" r="144.835"/>
<g>
	<defs>
		<circle id="SVGID_1_" cx="144.835" cy="144.835" r="144.835"/>
	</defs>
	<clipPath id="SVGID_2_">
		<use xlink:href="#SVGID_1_"  overflow="visible"/>
	</clipPath>
	<g clip-path="url(#SVGID_2_)">
		<path fill="#C16000" d="M75.743,102.483c0-1.423,0-2.847,0-4.27c1.458-0.845,0.746-2.299,0.912-3.467
			c2.466-17.388,10.691-30.048,28.478-34.948c0.491-0.135,0.9-0.567,1.348-0.861c5.123,0,10.246,0,15.369,0
			c7.436,2.194,14.573,5.12,21.436,8.722c1.629,0.855,3.34,0.835,4.926,0c6.868-3.611,14.022-6.503,21.453-8.723
			c4.838,0,9.677,0,14.515,0c11.805,2.655,19.825,10.733,27.988,18.923c57.722,57.91,115.428,115.838,173.508,173.388
			c14.38,14.249,17.952,30.572,13.844,49.503c-2.15,9.907-7.209,18.485-12.594,26.865c-2.981,4.641-4.19,9.42-3.369,14.955
			c1.794,12.082,3.708,24.198,2.078,36.469c-2.228,16.773-5.224,33.148-23.858,40.214c-1.139,0-2.276,0-3.415,0
			c-12.557-12.303-25.113-24.605-37.942-37.175c-0.502,4.12-0.64,7.56-1.376,10.865c-2.262,10.145-4.749,20.24-14.473,26.31
			c-0.854,0-1.708,0-2.562,0c-7.352-2.479-12.561-7.794-17.877-13.119c-59.159-59.258-118.373-118.459-177.615-177.634
			c-4.725-4.721-8.24-10.12-10.37-16.403c-5.372-15.845-5.969-32.042-2.914-48.359c1.771-9.461,1.267-18.048-4.772-26.229
			c-5.412-7.332-8.839-15.817-10.846-24.81C76.859,109.312,77.331,105.708,75.743,102.483z"/>
	</g>
</g>
<g>
	<path fill="#FFFFFF" d="M213.958,99.411c0-23.862-15.499-41.179-36.855-41.179c-12.813,0-20.08,3.876-25.387,6.708
		c-6.425,3.428-7.335,3.428-13.76,0c-5.307-2.831-12.576-6.708-25.387-6.708c-21.356,0-36.856,17.317-36.856,41.179
		c0,17.784,7.342,29.725,12.704,38.446c2.648,4.312,5.149,8.385,5.149,10.845c0,7.788-0.694,11.839-1.428,16.13
		c-1,5.829-2.034,11.858-0.956,25.828c2.163,28.017,14.818,40.777,25.661,40.777l0,0c6.814,0,16.682-18.992,16.07-39.109
		c-0.125-4.14,1.147-7.803,3.585-10.316c2.15-2.218,5.035-3.389,8.337-3.389s6.186,1.17,8.336,3.389
		c2.438,2.514,3.71,6.177,3.585,10.316c-0.611,20.118,9.063,39.109,16.072,39.109c10.842,0,23.497-12.758,25.658-40.777
		c1.081-13.97,0.047-20-0.952-25.828c-0.735-4.291-1.431-8.342-1.431-16.13c0-2.459,2.504-6.533,5.154-10.846
		C206.617,129.136,213.958,117.195,213.958,99.411z"/>
</g>
<g>
	<path fill="#FFFFFF" d="M213.958,99.411c0-23.862-15.499-41.179-36.855-41.179c-12.813,0-20.08,3.876-25.387,6.708
		c-6.425,3.428-7.335,3.428-13.76,0c-5.307-2.831-12.576-6.708-25.387-6.708c-21.356,0-36.856,17.317-36.856,41.179
		c0,17.784,7.342,29.725,12.704,38.446c2.648,4.312,5.149,8.385,5.149,10.845c0,7.788-0.694,11.839-1.428,16.13
		c-1,5.829-2.034,11.858-0.956,25.828c2.163,28.017,14.818,40.777,25.661,40.777l0,0c6.814,0,16.682-18.992,16.07-39.109
		c-0.125-4.14,1.147-7.803,3.585-10.316c2.15-2.218,5.035-3.389,8.337-3.389s6.186,1.17,8.336,3.389
		c2.438,2.514,3.71,6.177,3.585,10.316c-0.611,20.118,9.063,39.109,16.072,39.109c10.842,0,23.497-12.758,25.658-40.777
		c1.081-13.97,0.047-20-0.952-25.828c-0.735-4.291-1.431-8.342-1.431-16.13c0-2.459,2.504-6.533,5.154-10.846
		C206.617,129.136,213.958,117.195,213.958,99.411z"/>
</g>
</svg>
