<?xml version="1.0" encoding="utf-8"?>
<!-- Generator: Adobe Illustrator 16.0.3, SVG Export Plug-In . SVG Version: 6.00 Build 0)  -->
<!DOCTYPE svg PUBLIC "-//W3C//DTD SVG 1.1//EN" "http://www.w3.org/Graphics/SVG/1.1/DTD/svg11.dtd">
<svg version="1.1" id="Layer_1" xmlns="http://www.w3.org/2000/svg" xmlns:xlink="http://www.w3.org/1999/xlink" x="0px" y="0px"
	 width="289.67px" height="289.669px" viewBox="0 0 289.67 289.669" enable-background="new 0 0 289.67 289.669"
	 xml:space="preserve">
<circle fill="#EE7D00" cx="144.835" cy="144.835" r="144.835"/>
<g>
	<defs>
		<circle id="SVGID_1_" cx="144.835" cy="144.835" r="144.835"/>
	</defs>
	<clipPath id="SVGID_2_">
		<use xlink:href="#SVGID_1_"  overflow="visible"/>
	</clipPath>
	<path clip-path="url(#SVGID_2_)" fill="#C16000" d="M418.063,334.9c0,7.685,0,15.369,0,23.054
		c-4.673,2.51-9.712,0.691-14.552,1.226c-1.653,0.182-3.513-0.46-4.885,0.849c-8.564,8.176-17.775,15.667-25.816,24.395
		c-41.27,0-82.537,0-123.807,0c-0.403-1.82-2.011-2.685-3.179-3.853c-47.327-47.374-94.682-94.721-142.032-142.071
		c-13.069-13.069-26.131-26.146-39.216-39.199c-1.436-1.432-2.656-2.785-2.604-5.08c0.134-5.827,0.11-11.659,0.016-17.486
		c-0.046-2.869,1.081-4.43,4.016-4.028c3.478,0.477,4.284-1.034,4.231-4.281c-0.174-10.66-0.001-21.325-0.103-31.988
		c-0.029-3.09,0.693-5.007,4.268-4.647c0.703,0.071,1.748,0.447,2.319-1.307c-9.546-6.955-15.547-16.377-16.908-28.471
		c-0.009-0.082-0.235-0.139-0.36-0.207c0-2.562,0-5.123,0-7.685c9.777,8.188,21.531,6.394,32.884,6.429
		c22.752,0.07,45.505,0.083,68.256-0.026c5.029-0.025,8.968,1.605,12.508,5.213c11.952,12.18,24.27,24.004,36.056,36.336
		c4.063,4.25,8.188,6.712,14.049,5.695c5.104-0.884,8.644,1.271,12.244,4.885c59.521,59.733,119.177,119.333,178.822,178.942
		C415.452,332.772,416.374,334.288,418.063,334.9z"/>
</g>
<g>
	<path fill="#FFFFFF" d="M230.574,169.909c0,1.157-0.938,2.094-2.094,2.094H212.17l-27.133,25.119H63.459
		c-1.157,0-2.094-0.938-2.094-2.094v-20.932c0-1.156,0.937-2.094,2.094-2.094h113.912l32.093-25.118h19.017
		c1.156,0,2.094,0.938,2.094,2.094V169.909z"/>
	<path fill="#FFFFFF" d="M79.851,182.737c0,1.156-0.937,2.094-2.093,2.094h-6.28c-1.157,0-2.094-0.938-2.094-2.094v-49.541
		c0-1.155,0.938-2.093,2.094-2.093h6.28c1.156,0,2.093,0.938,2.093,2.093V182.737z"/>
	<path fill="#FFFFFF" d="M93.108,182.737c0,1.156-0.937,2.094-2.093,2.094h-6.28c-1.157,0-2.094-0.938-2.094-2.094v-49.541
		c0-1.155,0.937-2.093,2.094-2.093h6.28c1.156,0,2.093,0.938,2.093,2.093V182.737z"/>
	<path fill="#FFFFFF" d="M106.366,182.737c0,1.156-0.937,2.094-2.093,2.094h-6.28c-1.156,0-2.093-0.938-2.093-2.094v-49.541
		c0-1.155,0.937-2.093,2.093-2.093h6.28c1.156,0,2.093,0.938,2.093,2.093V182.737z"/>
	<path fill="#FFFFFF" d="M119.623,182.737c0,1.156-0.938,2.094-2.093,2.094h-6.28c-1.155,0-2.092-0.938-2.092-2.094v-49.541
		c0-1.155,0.937-2.093,2.092-2.093h6.28c1.156,0,2.093,0.938,2.093,2.093V182.737z"/>
	<path fill="#FFFFFF" d="M132.88,182.737c0,1.156-0.937,2.094-2.094,2.094h-6.28c-1.155,0-2.093-0.938-2.093-2.094v-49.541
		c0-1.155,0.938-2.093,2.093-2.093h6.28c1.157,0,2.094,0.938,2.094,2.093V182.737z"/>
	<path fill="#FFFFFF" d="M146.138,182.737c0,1.156-0.938,2.094-2.094,2.094h-6.28c-1.156,0-2.093-0.938-2.093-2.094v-49.541
		c0-1.155,0.938-2.093,2.093-2.093h6.28c1.156,0,2.094,0.938,2.094,2.093V182.737z"/>
	<path fill="#FFFFFF" d="M159.396,182.737c0,1.156-0.938,2.094-2.094,2.094h-6.279c-1.157,0-2.095-0.938-2.095-2.094v-49.541
		c0-1.155,0.938-2.093,2.095-2.093h6.279c1.156,0,2.094,0.938,2.094,2.093V182.737z"/>
	<path fill="#FFFFFF" d="M172.652,182.737c0,1.156-0.938,2.094-2.094,2.094h-6.279c-1.156,0-2.094-0.938-2.094-2.094v-49.541
		c0-1.155,0.938-2.093,2.094-2.093h6.279c1.156,0,2.094,0.938,2.094,2.093V182.737z"/>
	<path fill="#FFFFFF" d="M174.226,112.348c0-6.938-5.623-12.561-12.56-12.561H77.581c-14.996,0-18.484-7.239-18.484-7.239
		C59.097,122.552,72.18,127,83.344,127h78.322c6.937,0,12.56-5.621,12.56-12.56V112.348z"/>
</g>
<g>
	<path fill="#FFFFFF" d="M230.574,169.909c0,1.157-0.938,2.094-2.094,2.094H212.17l-27.133,25.119H63.459
		c-1.157,0-2.094-0.938-2.094-2.094v-20.932c0-1.156,0.937-2.094,2.094-2.094h113.912l32.093-25.118h19.017
		c1.156,0,2.094,0.938,2.094,2.094V169.909z"/>
	<path fill="#FFFFFF" d="M79.851,182.737c0,1.156-0.937,2.094-2.093,2.094h-6.28c-1.157,0-2.094-0.938-2.094-2.094v-49.541
		c0-1.155,0.938-2.093,2.094-2.093h6.28c1.156,0,2.093,0.938,2.093,2.093V182.737z"/>
	<path fill="#FFFFFF" d="M93.108,182.737c0,1.156-0.937,2.094-2.093,2.094h-6.28c-1.157,0-2.094-0.938-2.094-2.094v-49.541
		c0-1.155,0.937-2.093,2.094-2.093h6.28c1.156,0,2.093,0.938,2.093,2.093V182.737z"/>
	<path fill="#FFFFFF" d="M106.366,182.737c0,1.156-0.937,2.094-2.093,2.094h-6.28c-1.156,0-2.093-0.938-2.093-2.094v-49.541
		c0-1.155,0.937-2.093,2.093-2.093h6.28c1.156,0,2.093,0.938,2.093,2.093V182.737z"/>
	<path fill="#FFFFFF" d="M119.623,182.737c0,1.156-0.938,2.094-2.093,2.094h-6.28c-1.155,0-2.092-0.938-2.092-2.094v-49.541
		c0-1.155,0.937-2.093,2.092-2.093h6.28c1.156,0,2.093,0.938,2.093,2.093V182.737z"/>
	<path fill="#FFFFFF" d="M132.88,182.737c0,1.156-0.937,2.094-2.094,2.094h-6.28c-1.155,0-2.093-0.938-2.093-2.094v-49.541
		c0-1.155,0.938-2.093,2.093-2.093h6.28c1.157,0,2.094,0.938,2.094,2.093V182.737z"/>
	<path fill="#FFFFFF" d="M146.138,182.737c0,1.156-0.938,2.094-2.094,2.094h-6.28c-1.156,0-2.093-0.938-2.093-2.094v-49.541
		c0-1.155,0.938-2.093,2.093-2.093h6.28c1.156,0,2.094,0.938,2.094,2.093V182.737z"/>
	<path fill="#FFFFFF" d="M159.396,182.737c0,1.156-0.938,2.094-2.094,2.094h-6.279c-1.157,0-2.095-0.938-2.095-2.094v-49.541
		c0-1.155,0.938-2.093,2.095-2.093h6.279c1.156,0,2.094,0.938,2.094,2.093V182.737z"/>
	<path fill="#FFFFFF" d="M172.652,182.737c0,1.156-0.938,2.094-2.094,2.094h-6.279c-1.156,0-2.094-0.938-2.094-2.094v-49.541
		c0-1.155,0.938-2.093,2.094-2.093h6.279c1.156,0,2.094,0.938,2.094,2.093V182.737z"/>
	<path fill="#FFFFFF" d="M174.226,112.348c0-6.938-5.623-12.561-12.56-12.561H77.581c-14.996,0-18.484-7.239-18.484-7.239
		C59.097,122.552,72.18,127,83.344,127h78.322c6.937,0,12.56-5.621,12.56-12.56V112.348z"/>
</g>
</svg>
