<?xml version="1.0" encoding="utf-8"?>
<!-- Generator: Adobe Illustrator 23.0.1, SVG Export Plug-In . SVG Version: 6.00 Build 0)  -->
<svg version="1.1" id="Camada_1" xmlns="http://www.w3.org/2000/svg" xmlns:xlink="http://www.w3.org/1999/xlink" x="0px" y="0px"
	 viewBox="0 0 17 17" style="enable-background:new 0 0 17 17;" xml:space="preserve">
<style type="text/css">
	.st0{fill:#FFFFFF;}
</style>
<g>
	<path class="st0" d="M8.49,0.13c-4.64,0-8.39,3.76-8.39,8.39s3.76,8.39,8.39,8.39c4.64,0,8.39-3.76,8.39-8.39S13.13,0.13,8.49,0.13
		z M8.49,16.26c-4.29,0-7.78-3.48-7.78-7.78c0-4.29,3.48-7.78,7.78-7.78c4.29,0,7.78,3.48,7.78,7.78
		C16.27,12.78,12.78,16.26,8.49,16.26z"/>
	<path class="st0" d="M8.49,1.41c-3.93,0-7.11,3.18-7.11,7.11c0,3.92,3.18,7.11,7.1,7.11c-0.47-0.1-1.1-0.36-1.65-1.01
		c-0.9-1.08-1.64-3.16-1.78-4.86c-0.14-1.7-0.01-3.21,0.9-5.09c0,0,0.42-0.77,1.58-1.23C8.7,2.97,9.5,4,9.5,4L9.14,6.5
		c0,0-0.03,0.24-0.27,0.26C8.64,6.79,8.19,6.85,7.94,6.84C7.69,6.83,7.13,6.82,7.03,7.25c-0.1,0.43-0.57,2.53,0.48,4.86
		c0,0,0.12,0.27,0.42,0.23s1.28-0.2,1.41-0.19c0.13,0.01,0.31,0.05,0.4,0.31c0.09,0.26,0.81,2.02,0.84,2.14
		c0.02,0.12,0.12,0.29-0.38,0.67c-0.12,0.09-0.24,0.17-0.34,0.22c3.27-0.64,5.73-3.52,5.73-6.97C15.6,4.6,12.42,1.41,8.49,1.41z"/>
</g>
</svg>
