<?xml version="1.0" encoding="utf-8"?>
<!-- Generator: Adobe Illustrator 23.0.1, SVG Export Plug-In . SVG Version: 6.00 Build 0)  -->
<svg version="1.1" id="Camada_1" xmlns="http://www.w3.org/2000/svg" xmlns:xlink="http://www.w3.org/1999/xlink" x="0px" y="0px"
	 viewBox="0 0 17 17" style="enable-background:new 0 0 17 17;" xml:space="preserve">
<style type="text/css">
	.st0{fill:#FFFFFF;}
</style>
<path class="st0" d="M8.47,0.17c-3.59,0-6.52,2.61-6.52,6.01c0,2.93,4.78,8.39,6.11,10.48c0.07,0.11,0.2,0.18,0.33,0.18
	c0.14,0,0.26-0.07,0.33-0.18c1.33-2.09,6.16-7.31,6.16-10.25C14.89,3.02,12.06,0.17,8.47,0.17z M8.46,11.36
	c-2.88,0-5.23-2.17-5.23-4.99c0-2.81,2.35-5.22,5.23-5.22c2.88,0,5.23,2.29,5.23,5.1S11.34,11.36,8.46,11.36z"/>
</svg>
