<?xml version="1.0" encoding="utf-8"?>
<!-- Generator: Adobe Illustrator 23.0.1, SVG Export Plug-In . SVG Version: 6.00 Build 0)  -->
<svg version="1.1" id="Camada_1" xmlns="http://www.w3.org/2000/svg" xmlns:xlink="http://www.w3.org/1999/xlink" x="0px" y="0px"
	 viewBox="0 0 17 17" style="enable-background:new 0 0 17 17;" xml:space="preserve">
<style type="text/css">
	.st0{fill:#FFFFFF;}
</style>
<g>
	<path class="st0" d="M9.66,8.74l6.46-6.04c-0.11-0.12-0.26-0.11-0.26-0.11H1.17c-0.21,0-0.25,0.11-0.25,0.11s5.25,4.99,6.44,6.04
		C8.55,9.79,9.66,8.74,9.66,8.74z"/>
	<path class="st0" d="M0.18,3.34C0.09,3.55,0.09,3.7,0.09,3.7s0,8.93,0,9.22c0,0.29,0.2,0.49,0.2,0.49l5.88-4.4L0.18,3.34z"/>
	<path class="st0" d="M8.52,10.26c-1.14,0-1.76-0.7-1.76-0.7l-5.84,4.39c0,0,0.1,0.08,0.47,0.08c0.37,0,14.34,0.01,14.34,0.01
		s0.23,0.02,0.39-0.08l-5.88-4.4C10.24,9.56,9.66,10.26,8.52,10.26z"/>
	<path class="st0" d="M16.84,3.35l-6,5.67l5.91,4.4c0,0,0.2-0.07,0.2-0.57s0-9.02,0-9.02S16.94,3.49,16.84,3.35z"/>
</g>
</svg>
