<?xml version="1.0" encoding="utf-8"?>
<!-- Generator: Adobe Illustrator 16.0.3, SVG Export Plug-In . SVG Version: 6.00 Build 0)  -->
<!DOCTYPE svg PUBLIC "-//W3C//DTD SVG 1.1//EN" "http://www.w3.org/Graphics/SVG/1.1/DTD/svg11.dtd">
<svg version="1.1" id="Camada_1" xmlns="http://www.w3.org/2000/svg" xmlns:xlink="http://www.w3.org/1999/xlink" x="0px" y="0px"
	 width="50px" height="50px" viewBox="0 0 50 50" enable-background="new 0 0 50 50" xml:space="preserve">
<g>
	<g>
		<g>
			<defs>
				<path id="SVGID_1_" d="M50.016,25.011c0,13.782-11.156,24.948-24.938,24.948c-13.758,0-24.926-11.166-24.926-24.948
					c0-13.77,11.168-24.938,24.926-24.938C38.857,0.074,50.016,11.242,50.016,25.011z"/>
			</defs>
			<clipPath id="SVGID_2_">
				<use xlink:href="#SVGID_1_"  overflow="visible"/>
			</clipPath>
			<g clip-path="url(#SVGID_2_)">
				<rect fill="#47303B" width="50" height="49.959"/>
			</g>
		</g>
	</g>
	<path fill="#FCFCFC" d="M35,11.555c-6.6,0-13.223,0-19.822,0c-2.36,0-3.58,1.243-3.58,3.602c0,3.266,0,6.542,0,9.854
		c0,3.276,0,6.624,0,9.934c0,2.279,1.254,3.533,3.463,3.533c6.67,0,13.291,0,19.938,0c2.304,0,3.569-1.254,3.569-3.566
		c0-6.624,0-13.212,0-19.824C38.568,12.798,37.305,11.555,35,11.555z M32.816,14.6c2.674,0,2.674,0,2.674,2.672
		c0,2.614,0,2.614-2.629,2.614c-2.648,0-2.648,0-2.648-2.648C30.213,14.6,30.213,14.6,32.816,14.6z M25.102,19.794
		c2.811,0,5.227,2.417,5.183,5.217c-0.021,2.881-2.417,5.264-5.277,5.206c-2.835-0.059-5.229-2.451-5.157-5.265
		C19.917,22.129,22.289,19.794,25.102,19.794z M35.49,33.809c-0.023,1.254-0.352,1.613-1.604,1.613c-2.941,0-5.88,0-8.82,0
		c-2.917,0-5.856,0-8.796,0c-1.234,0-1.581-0.359-1.581-1.613c0-3.244,0.011-6.541-0.046-9.819c0-0.918,0.256-1.139,1.115-1.104
		c1.23,0.094,1.256,0.048,1.115,1.244c-0.475,4.159,2.405,8.203,6.508,9.006c4.229,0.813,8.458-1.732,9.621-5.775
		c0.351-1.268,0.455-2.616,0.188-3.871c-0.096-0.475,0.021-0.556,0.439-0.556c1.859-0.141,1.859-0.176,1.859,1.742
		C35.49,27.693,35.49,30.764,35.49,33.809z"/>
</g>
</svg>
