<?xml version="1.0" encoding="utf-8"?>
<!-- Generator: Adobe Illustrator 16.0.3, SVG Export Plug-In . SVG Version: 6.00 Build 0)  -->
<!DOCTYPE svg PUBLIC "-//W3C//DTD SVG 1.1//EN" "http://www.w3.org/Graphics/SVG/1.1/DTD/svg11.dtd">
<svg version="1.1" id="Layer_1" xmlns="http://www.w3.org/2000/svg" xmlns:xlink="http://www.w3.org/1999/xlink" x="0px" y="0px"
	 width="289.67px" height="289.669px" viewBox="0 0 289.67 289.669" enable-background="new 0 0 289.67 289.669"
	 xml:space="preserve">
<circle fill="#EE7D00" cx="144.835" cy="144.835" r="144.835"/>
<g>
	<defs>
		<circle id="SVGID_1_" cx="144.835" cy="144.835" r="144.835"/>
	</defs>
	<clipPath id="SVGID_2_">
		<use xlink:href="#SVGID_1_"  overflow="visible"/>
	</clipPath>
	<path clip-path="url(#SVGID_2_)" fill="#C16000" d="M383.431,368.252c-0.197-0.204-0.4-0.402-0.603-0.603
		c-0.197-0.204-0.4-0.403-0.603-0.603c-0.197-0.205-0.4-0.403-0.602-0.603c-0.198-0.205-0.401-0.404-0.604-0.604
		c-0.198-0.205-0.401-0.404-0.604-0.604c-0.197-0.204-0.399-0.402-0.601-0.601c-0.198-0.205-0.401-0.404-0.604-0.604
		c-0.196-0.203-0.398-0.401-0.601-0.601c-0.199-0.206-0.403-0.406-0.607-0.606c-0.196-0.205-0.399-0.402-0.601-0.602
		c-0.197-0.204-0.4-0.402-0.603-0.603c-0.197-0.204-0.4-0.402-0.602-0.602c-0.197-0.204-0.399-0.402-0.602-0.602
		c-0.2-0.207-0.405-0.409-0.61-0.61c-0.195-0.202-0.395-0.398-0.595-0.595c-0.199-0.207-0.405-0.408-0.609-0.609
		c-0.195-0.202-0.396-0.399-0.596-0.596c-0.198-0.205-0.4-0.404-0.603-0.604c-0.2-0.207-0.405-0.409-0.61-0.61
		c-0.196-0.203-0.398-0.401-0.599-0.599c-0.196-0.204-0.399-0.402-0.6-0.601c-0.199-0.206-0.403-0.406-0.607-0.607
		c-0.195-0.203-0.397-0.399-0.598-0.599c-0.199-0.206-0.403-0.405-0.607-0.606c-0.196-0.204-0.399-0.402-0.601-0.602
		c-0.196-0.203-0.398-0.401-0.6-0.6c-0.199-0.207-0.404-0.406-0.608-0.608c-0.196-0.203-0.397-0.399-0.598-0.598
		c-0.199-0.206-0.404-0.407-0.608-0.608c-0.196-0.203-0.398-0.401-0.6-0.6c-0.147-0.153-0.298-0.302-0.449-0.451v-18.007h4.228
		c0.737,0,1.337-0.601,1.337-1.337v-1.783c0-0.524-0.306-0.974-0.746-1.192c-0.129-0.262-0.341-0.473-0.603-0.603
		c-0.008-0.016-0.017-0.031-0.025-0.046c1.77-0.209,3.148-1.697,3.148-3.524v-80.565c0-1.139-0.543-2.141-1.375-2.793
		c-0.176-0.225-0.377-0.426-0.603-0.603c-0.176-0.225-0.378-0.427-0.603-0.604c-0.176-0.224-0.378-0.426-0.603-0.603
		c-0.177-0.225-0.378-0.426-0.603-0.603c-0.176-0.225-0.378-0.427-0.603-0.604c-0.176-0.224-0.377-0.426-0.603-0.603
		c-0.177-0.225-0.378-0.426-0.603-0.602c-0.177-0.226-0.378-0.427-0.604-0.604c-0.177-0.225-0.378-0.426-0.603-0.603
		c-0.177-0.224-0.378-0.426-0.603-0.603c-0.176-0.225-0.378-0.426-0.603-0.603c-0.177-0.225-0.378-0.427-0.603-0.604
		c-0.177-0.225-0.378-0.426-0.603-0.603c-0.176-0.225-0.378-0.426-0.603-0.603c-0.176-0.225-0.377-0.426-0.602-0.603
		c-0.177-0.225-0.378-0.426-0.603-0.603c-0.177-0.226-0.378-0.427-0.604-0.604c-0.177-0.226-0.377-0.427-0.602-0.603
		c-0.177-0.225-0.378-0.427-0.604-0.604c-0.177-0.225-0.377-0.426-0.603-0.603c-0.177-0.225-0.377-0.426-0.602-0.603
		c-0.177-0.225-0.379-0.427-0.604-0.604c-0.176-0.225-0.377-0.426-0.602-0.602c-0.177-0.226-0.378-0.428-0.603-0.604
		c-0.176-0.224-0.377-0.425-0.602-0.601c-0.177-0.227-0.378-0.428-0.604-0.604c-0.176-0.225-0.377-0.427-0.602-0.603
		c-0.177-0.225-0.378-0.426-0.603-0.603c-0.177-0.226-0.379-0.428-0.605-0.604c-0.176-0.225-0.377-0.426-0.602-0.603
		c-0.177-0.224-0.378-0.426-0.603-0.603c-0.177-0.225-0.378-0.426-0.603-0.603c-0.177-0.226-0.379-0.427-0.604-0.603
		c-0.176-0.226-0.377-0.427-0.602-0.604c-0.176-0.225-0.377-0.425-0.602-0.601c-0.177-0.227-0.379-0.429-0.604-0.604
		c-0.176-0.226-0.377-0.427-0.602-0.603c-0.177-0.226-0.377-0.426-0.603-0.603c-0.176-0.226-0.377-0.427-0.603-0.604
		c-0.177-0.225-0.378-0.427-0.604-0.604c-0.177-0.225-0.378-0.426-0.603-0.603c-0.177-0.225-0.377-0.426-0.602-0.603
		c-0.177-0.225-0.378-0.427-0.604-0.604c-0.176-0.225-0.377-0.426-0.602-0.603c-0.177-0.225-0.378-0.426-0.603-0.603
		c-0.177-0.225-0.378-0.427-0.603-0.604c-0.176-0.224-0.377-0.425-0.602-0.601c-0.177-0.226-0.378-0.427-0.603-0.604
		c-0.177-0.225-0.378-0.427-0.604-0.604c-0.176-0.225-0.378-0.426-0.604-0.603c-0.176-0.226-0.377-0.426-0.602-0.602
		c-0.177-0.226-0.378-0.428-0.604-0.604c-0.176-0.224-0.377-0.425-0.602-0.602c-0.177-0.227-0.379-0.428-0.605-0.604
		c-0.175-0.224-0.376-0.424-0.6-0.6c-0.177-0.226-0.379-0.428-0.604-0.605c-0.177-0.225-0.377-0.425-0.602-0.602
		c-0.177-0.226-0.378-0.427-0.604-0.604c-0.177-0.224-0.378-0.426-0.604-0.603c-0.177-0.225-0.378-0.427-0.604-0.604
		c-0.176-0.224-0.376-0.424-0.6-0.6c-0.177-0.226-0.378-0.427-0.604-0.604c-0.177-0.225-0.379-0.427-0.604-0.604
		c-0.176-0.225-0.377-0.425-0.602-0.602c-0.177-0.224-0.378-0.426-0.603-0.602c-0.177-0.226-0.378-0.428-0.604-0.604
		c-0.177-0.226-0.378-0.427-0.604-0.604c-0.177-0.225-0.378-0.426-0.603-0.603c-0.176-0.224-0.376-0.424-0.601-0.601
		c-0.177-0.226-0.379-0.428-0.604-0.605c-0.177-0.225-0.378-0.427-0.604-0.604c-0.176-0.224-0.377-0.425-0.602-0.602
		c-0.176-0.225-0.378-0.426-0.602-0.602c-0.177-0.227-0.379-0.428-0.605-0.605c-0.175-0.223-0.375-0.422-0.598-0.598
		c-0.178-0.228-0.381-0.431-0.609-0.609c-0.175-0.223-0.375-0.423-0.599-0.598c-0.177-0.227-0.379-0.428-0.604-0.604
		c-0.176-0.225-0.377-0.426-0.601-0.603c-0.178-0.227-0.38-0.429-0.607-0.606c-0.176-0.223-0.375-0.422-0.598-0.598
		c-0.178-0.227-0.38-0.429-0.606-0.606c-0.176-0.224-0.376-0.424-0.6-0.6c-0.177-0.226-0.379-0.428-0.604-0.604
		c-0.176-0.225-0.377-0.425-0.602-0.602c-0.177-0.226-0.379-0.428-0.604-0.604c-0.177-0.225-0.378-0.427-0.603-0.603
		c-0.177-0.226-0.378-0.428-0.604-0.604c-0.176-0.225-0.377-0.425-0.602-0.602c-0.177-0.225-0.378-0.427-0.604-0.604
		c-0.176-0.223-0.377-0.424-0.602-0.6c-0.176-0.226-0.376-0.426-0.601-0.603c-0.178-0.226-0.38-0.429-0.605-0.605
		c-0.177-0.225-0.379-0.427-0.604-0.604c-0.175-0.224-0.375-0.423-0.599-0.599c-0.177-0.227-0.38-0.43-0.607-0.607
		c-0.176-0.224-0.377-0.425-0.601-0.601c-0.176-0.226-0.378-0.426-0.603-0.604c-0.176-0.224-0.377-0.425-0.601-0.601
		c-0.178-0.227-0.38-0.429-0.606-0.605c-0.176-0.225-0.377-0.425-0.602-0.603c-0.177-0.225-0.378-0.426-0.603-0.603
		c-0.176-0.224-0.376-0.425-0.601-0.601c-0.178-0.227-0.38-0.429-0.606-0.606c-0.176-0.225-0.376-0.425-0.601-0.601
		c-0.177-0.225-0.378-0.427-0.604-0.604c-0.176-0.225-0.377-0.426-0.601-0.602c-0.178-0.227-0.38-0.429-0.606-0.605
		c-0.175-0.224-0.375-0.423-0.598-0.6c-0.178-0.227-0.381-0.43-0.608-0.607c-0.176-0.224-0.376-0.424-0.6-0.6
		c-0.176-0.225-0.378-0.427-0.604-0.604c-0.176-0.225-0.377-0.425-0.601-0.602c-0.177-0.226-0.379-0.428-0.605-0.605
		c-0.176-0.224-0.376-0.424-0.6-0.6c-0.178-0.228-0.38-0.429-0.606-0.606c-0.176-0.224-0.376-0.424-0.6-0.6
		c-0.177-0.226-0.379-0.428-0.605-0.605c-0.176-0.225-0.377-0.425-0.602-0.601c-0.177-0.226-0.378-0.428-0.604-0.604
		c-0.176-0.224-0.377-0.425-0.601-0.601c-0.177-0.227-0.379-0.428-0.605-0.605c-0.176-0.225-0.376-0.425-0.6-0.601
		c-0.178-0.227-0.38-0.429-0.606-0.606c-0.176-0.223-0.376-0.424-0.601-0.6c-0.177-0.226-0.379-0.428-0.604-0.604
		c-0.176-0.225-0.377-0.426-0.602-0.603c-0.177-0.225-0.378-0.426-0.603-0.603c-0.176-0.225-0.377-0.426-0.602-0.603
		c-0.177-0.226-0.379-0.428-0.605-0.605c-0.176-0.224-0.377-0.424-0.602-0.601c-0.176-0.225-0.378-0.426-0.603-0.603
		c-0.176-0.225-0.377-0.427-0.603-0.604c-0.177-0.224-0.378-0.426-0.603-0.603c-0.176-0.225-0.378-0.426-0.603-0.603
		c-0.176-0.225-0.377-0.427-0.603-0.604c-0.177-0.224-0.378-0.426-0.603-0.603c-0.176-0.225-0.378-0.426-0.603-0.603
		c-0.176-0.225-0.377-0.427-0.603-0.604c-0.176-0.224-0.378-0.426-0.603-0.603c-0.176-0.225-0.377-0.426-0.603-0.603
		c-0.176-0.225-0.377-0.427-0.603-0.604c-0.176-0.224-0.377-0.425-0.602-0.602c-0.177-0.226-0.379-0.428-0.605-0.605
		c-0.176-0.225-0.377-0.425-0.602-0.602c-0.176-0.224-0.378-0.426-0.603-0.603c-0.176-0.225-0.377-0.426-0.603-0.603
		c-0.177-0.225-0.378-0.427-0.603-0.604c-0.176-0.224-0.378-0.426-0.603-0.603c-0.176-0.225-0.377-0.426-0.603-0.603
		c-0.176-0.225-0.378-0.427-0.603-0.604c-0.176-0.224-0.377-0.426-0.603-0.603c-0.176-0.225-0.377-0.426-0.603-0.603
		c-0.176-0.225-0.378-0.426-0.603-0.604c-0.176-0.224-0.377-0.426-0.603-0.603c-0.176-0.225-0.377-0.426-0.603-0.603
		c-0.176-0.225-0.378-0.426-0.603-0.603c-0.176-0.225-0.377-0.427-0.603-0.604c-0.177-0.224-0.378-0.426-0.603-0.603
		c-0.176-0.225-0.378-0.426-0.603-0.603c-0.176-0.225-0.377-0.427-0.603-0.604c-0.177-0.224-0.378-0.426-0.603-0.603
		c-0.176-0.225-0.378-0.426-0.603-0.603c-0.177-0.225-0.378-0.427-0.603-0.604c-0.177-0.224-0.377-0.425-0.602-0.602
		c-0.177-0.226-0.379-0.427-0.604-0.604c-0.176-0.225-0.377-0.426-0.602-0.603c-0.177-0.225-0.379-0.427-0.604-0.604
		c-0.176-0.225-0.377-0.425-0.603-0.602c-0.176-0.225-0.377-0.426-0.602-0.603c-0.177-0.225-0.379-0.427-0.604-0.604
		c-0.176-0.226-0.377-0.426-0.602-0.602c-0.177-0.226-0.378-0.428-0.603-0.604c-0.176-0.224-0.378-0.426-0.603-0.602
		c-0.176-0.226-0.377-0.427-0.603-0.603c-0.177-0.226-0.378-0.427-0.603-0.604c-0.177-0.225-0.378-0.426-0.603-0.603
		c-0.177-0.226-0.378-0.427-0.604-0.604c-0.176-0.225-0.377-0.427-0.602-0.603c-0.177-0.225-0.379-0.427-0.604-0.604
		c-0.177-0.225-0.378-0.426-0.603-0.603c-0.177-0.226-0.379-0.427-0.604-0.603c-0.176-0.226-0.377-0.427-0.602-0.604
		c-0.177-0.225-0.377-0.425-0.603-0.602c-0.176-0.226-0.377-0.427-0.602-0.604c-0.177-0.225-0.378-0.427-0.604-0.604
		c-0.177-0.225-0.377-0.426-0.602-0.602c-0.177-0.226-0.378-0.427-0.603-0.604c-0.177-0.225-0.378-0.427-0.604-0.604
		c-0.177-0.225-0.377-0.425-0.602-0.602c-0.177-0.226-0.379-0.427-0.604-0.604c-0.177-0.225-0.377-0.426-0.603-0.603
		c-0.176-0.225-0.378-0.427-0.604-0.604c-0.176-0.225-0.377-0.425-0.602-0.602c-0.176-0.225-0.377-0.426-0.601-0.602
		c-0.177-0.225-0.379-0.427-0.604-0.604c-0.177-0.225-0.378-0.426-0.603-0.603c-0.177-0.225-0.378-0.427-0.603-0.604
		c-0.177-0.225-0.378-0.426-0.603-0.603c-0.176-0.225-0.378-0.425-0.603-0.602c-0.176-0.226-0.377-0.427-0.603-0.604
		c-0.176-0.225-0.378-0.426-0.603-0.603c-0.178-0.227-0.38-0.429-0.606-0.605c-0.175-0.224-0.375-0.424-0.599-0.6
		c-0.177-0.225-0.378-0.427-0.603-0.604c-0.177-0.225-0.378-0.426-0.603-0.603c-0.177-0.226-0.379-0.428-0.605-0.604
		c-0.176-0.225-0.376-0.425-0.6-0.601c-0.177-0.227-0.379-0.428-0.604-0.604c-0.177-0.226-0.378-0.427-0.604-0.604
		c-0.176-0.225-0.377-0.426-0.602-0.602c-0.176-0.225-0.377-0.426-0.603-0.603c-0.177-0.227-0.379-0.428-0.604-0.604
		c-0.176-0.225-0.376-0.425-0.601-0.601c-0.177-0.226-0.378-0.427-0.604-0.604c-0.176-0.226-0.377-0.427-0.602-0.604
		c-0.177-0.225-0.379-0.427-0.604-0.604c-0.176-0.225-0.377-0.426-0.602-0.602c-0.177-0.226-0.379-0.427-0.604-0.604
		c-0.176-0.225-0.376-0.425-0.6-0.601c-0.178-0.227-0.381-0.431-0.608-0.608c-0.175-0.223-0.375-0.422-0.597-0.597
		c-0.177-0.227-0.379-0.43-0.606-0.606c-0.176-0.225-0.377-0.426-0.602-0.602c-0.177-0.227-0.378-0.428-0.604-0.604
		c-0.176-0.224-0.376-0.425-0.6-0.601c-0.177-0.226-0.379-0.428-0.605-0.604c-0.176-0.225-0.377-0.425-0.601-0.602
		c-0.177-0.226-0.379-0.427-0.604-0.604c-0.177-0.224-0.377-0.425-0.602-0.602c-0.177-0.226-0.379-0.427-0.604-0.604
		c-0.177-0.226-0.378-0.427-0.603-0.604c-0.177-0.225-0.378-0.426-0.604-0.603c-0.176-0.225-0.376-0.424-0.6-0.601
		c-0.177-0.226-0.379-0.429-0.605-0.605c-0.176-0.225-0.377-0.425-0.601-0.602c-0.177-0.226-0.378-0.427-0.604-0.604
		c-0.177-0.225-0.377-0.426-0.602-0.603c-0.177-0.225-0.378-0.427-0.604-0.604c-0.177-0.225-0.378-0.426-0.603-0.603
		c-0.177-0.226-0.378-0.426-0.604-0.603c-0.176-0.225-0.376-0.425-0.6-0.601c-0.177-0.227-0.379-0.429-0.606-0.606
		c-0.176-0.224-0.376-0.425-0.601-0.601c-0.177-0.225-0.378-0.427-0.604-0.604c-0.177-0.226-0.378-0.427-0.604-0.604
		c-0.176-0.225-0.376-0.425-0.6-0.602c-0.178-0.226-0.38-0.428-0.605-0.605c-0.177-0.224-0.378-0.426-0.604-0.603
		c-0.176-0.224-0.376-0.424-0.6-0.6c-0.177-0.226-0.379-0.428-0.604-0.605c-0.177-0.225-0.379-0.427-0.604-0.603
		c-0.176-0.226-0.377-0.426-0.602-0.603c-0.177-0.225-0.377-0.427-0.603-0.603c-0.176-0.225-0.378-0.426-0.603-0.603
		c-0.177-0.226-0.378-0.427-0.603-0.604c-0.177-0.226-0.378-0.428-0.604-0.604c-0.176-0.224-0.376-0.424-0.6-0.6
		c-0.177-0.227-0.378-0.428-0.604-0.604c-0.177-0.226-0.378-0.427-0.603-0.604c-0.177-0.224-0.378-0.426-0.604-0.603
		c-0.176-0.225-0.377-0.425-0.602-0.602c-0.176-0.225-0.377-0.426-0.602-0.603c-0.177-0.226-0.38-0.429-0.606-0.605
		c-0.176-0.224-0.376-0.424-0.6-0.6c-0.177-0.225-0.378-0.427-0.603-0.603c-0.177-0.227-0.379-0.429-0.605-0.606
		c-0.176-0.224-0.377-0.425-0.602-0.602c-0.176-0.226-0.378-0.426-0.604-0.604c-0.176-0.224-0.376-0.424-0.6-0.6
		c-0.177-0.227-0.379-0.428-0.604-0.605c-0.177-0.226-0.379-0.427-0.604-0.604c-0.176-0.224-0.377-0.425-0.601-0.601
		c-0.176-0.226-0.378-0.426-0.603-0.603c-0.177-0.226-0.379-0.428-0.604-0.604c-0.177-0.226-0.378-0.427-0.604-0.604
		c-0.176-0.224-0.377-0.425-0.601-0.601c-0.177-0.225-0.377-0.426-0.602-0.603c-0.178-0.226-0.38-0.429-0.607-0.605
		c-0.176-0.224-0.376-0.425-0.6-0.601c-0.177-0.224-0.376-0.425-0.601-0.601c-0.178-0.227-0.38-0.43-0.607-0.607
		c-0.176-0.224-0.376-0.424-0.601-0.6c-0.177-0.226-0.378-0.427-0.603-0.604c-0.178-0.227-0.379-0.428-0.605-0.605
		c-0.176-0.224-0.376-0.423-0.599-0.599c-0.177-0.228-0.38-0.43-0.606-0.607c-0.176-0.224-0.377-0.424-0.601-0.6
		c-0.176-0.225-0.378-0.426-0.603-0.603c-0.177-0.227-0.379-0.428-0.605-0.605c-0.176-0.224-0.376-0.425-0.601-0.601
		c-0.177-0.225-0.378-0.427-0.604-0.604c-0.176-0.226-0.377-0.426-0.602-0.603c-0.177-0.226-0.379-0.427-0.604-0.604
		c-0.177-0.225-0.377-0.427-0.603-0.603c-0.176-0.225-0.377-0.425-0.602-0.603c-0.177-0.224-0.377-0.426-0.603-0.603
		c-0.177-0.225-0.378-0.427-0.604-0.604c-0.177-0.225-0.379-0.427-0.604-0.604c-0.176-0.225-0.376-0.425-0.6-0.6
		c-0.177-0.227-0.38-0.43-0.606-0.607c-0.176-0.223-0.376-0.423-0.6-0.598c-0.178-0.228-0.38-0.429-0.605-0.606
		c-0.176-0.224-0.376-0.424-0.6-0.6c-0.177-0.226-0.379-0.428-0.605-0.605c-0.176-0.225-0.377-0.426-0.602-0.602
		c-0.177-0.226-0.378-0.428-0.604-0.604c-0.176-0.224-0.377-0.425-0.602-0.601c-0.652-0.832-1.654-1.375-2.792-1.375h-15.423
		c-1.968,0-3.564,1.594-3.564,3.563v31.603c-0.044-0.044-0.09-0.086-0.136-0.13c-0.202-0.208-0.406-0.412-0.614-0.613
		c-0.198-0.205-0.4-0.405-0.603-0.604c-0.199-0.204-0.401-0.406-0.605-0.605c-0.194-0.199-0.391-0.396-0.591-0.59
		c-0.202-0.208-0.406-0.412-0.613-0.614c-0.198-0.203-0.399-0.404-0.604-0.603c-0.197-0.202-0.397-0.402-0.6-0.6
		c-0.197-0.202-0.396-0.401-0.598-0.599c-0.2-0.205-0.402-0.407-0.607-0.607c-0.199-0.205-0.4-0.405-0.604-0.604
		c-0.199-0.204-0.401-0.405-0.605-0.605c-0.194-0.198-0.39-0.396-0.59-0.59c-0.203-0.208-0.408-0.414-0.617-0.617
		c-0.197-0.201-0.396-0.4-0.599-0.598c-0.197-0.202-0.397-0.402-0.6-0.601c-0.2-0.205-0.403-0.407-0.608-0.607
		c-0.195-0.2-0.393-0.398-0.593-0.594c-0.201-0.206-0.404-0.409-0.61-0.609c-0.2-0.206-0.403-0.409-0.609-0.608
		c-0.194-0.2-0.392-0.397-0.592-0.593c-0.201-0.206-0.404-0.409-0.61-0.61c-0.197-0.201-0.396-0.4-0.598-0.598
		c-0.198-0.203-0.398-0.403-0.601-0.602c-0.201-0.206-0.405-0.41-0.611-0.611c-0.196-0.2-0.394-0.398-0.594-0.594
		c-0.202-0.207-0.406-0.411-0.613-0.613c-0.194-0.199-0.391-0.396-0.59-0.59c-0.201-0.207-0.405-0.41-0.611-0.611
		c-0.197-0.203-0.397-0.402-0.6-0.6c-0.198-0.203-0.399-0.404-0.603-0.603c-0.198-0.203-0.398-0.403-0.601-0.601
		c-0.198-0.204-0.399-0.405-0.603-0.604c-0.202-0.207-0.406-0.41-0.613-0.612c-0.194-0.198-0.39-0.395-0.588-0.589
		c-0.203-0.208-0.409-0.414-0.618-0.617c-0.194-0.2-0.391-0.396-0.59-0.591c-0.203-0.208-0.409-0.414-0.618-0.617
		c-0.193-0.197-0.388-0.393-0.585-0.585c-0.203-0.21-0.409-0.415-0.618-0.618c-0.195-0.201-0.394-0.398-0.595-0.595
		c-0.199-0.203-0.399-0.404-0.604-0.604c-0.199-0.203-0.399-0.405-0.604-0.604c-5.827-5.982-13.959-9.708-22.95-9.708
		c-17.675,0-32.055,14.378-32.055,32.056c0,8.988,3.724,17.119,9.705,22.945c0.199,0.204,0.401,0.406,0.605,0.605
		c0.201,0.206,0.404,0.408,0.609,0.608c0.196,0.201,0.394,0.399,0.595,0.596c0.2,0.204,0.401,0.407,0.606,0.606
		c0.2,0.205,0.403,0.407,0.608,0.607c0.196,0.201,0.395,0.399,0.596,0.596c0.197,0.201,0.396,0.4,0.597,0.597
		c0.202,0.207,0.405,0.411,0.612,0.612c0.199,0.205,0.401,0.407,0.606,0.606c0.195,0.199,0.392,0.396,0.592,0.592
		c0.201,0.206,0.404,0.41,0.611,0.611c0.196,0.201,0.396,0.399,0.597,0.597c0.2,0.205,0.402,0.408,0.607,0.607
		c0.199,0.205,0.401,0.405,0.605,0.604c0.198,0.204,0.399,0.405,0.603,0.604c0.194,0.199,0.391,0.396,0.59,0.59
		c0.203,0.208,0.408,0.414,0.616,0.616c0.197,0.202,0.395,0.4,0.597,0.597c0.2,0.205,0.401,0.406,0.606,0.606
		c0.199,0.204,0.4,0.404,0.604,0.604c0.196,0.2,0.395,0.399,0.596,0.596c0.2,0.205,0.402,0.408,0.607,0.607
		c0.201,0.206,0.405,0.41,0.612,0.61c0.193,0.199,0.389,0.395,0.587,0.588c0.201,0.207,0.405,0.411,0.611,0.611
		c0.197,0.202,0.395,0.4,0.596,0.598c0.201,0.205,0.403,0.408,0.609,0.608c0.198,0.203,0.399,0.404,0.603,0.603
		c0.198,0.204,0.399,0.404,0.602,0.603c0.197,0.202,0.396,0.401,0.599,0.6c0.11,0.112,0.216,0.229,0.327,0.339v18h-4.227
		c-0.738,0-1.336,0.597-1.336,1.336v1.782c0,0.524,0.306,0.974,0.746,1.192c0.129,0.263,0.341,0.474,0.604,0.604
		c0.007,0.016,0.017,0.032,0.025,0.047c-1.771,0.207-3.15,1.696-3.15,3.521v80.568c0,1.139,0.543,2.142,1.375,2.794
		c0.176,0.225,0.377,0.425,0.601,0.601c0.177,0.226,0.378,0.428,0.604,0.604c0.177,0.227,0.379,0.429,0.605,0.604
		c0.176,0.224,0.376,0.425,0.6,0.6c0.177,0.228,0.38,0.43,0.606,0.606c0.176,0.224,0.376,0.424,0.6,0.6
		c0.178,0.227,0.38,0.429,0.605,0.606c0.177,0.224,0.377,0.424,0.601,0.601c0.177,0.224,0.378,0.426,0.603,0.602
		c0.178,0.227,0.38,0.429,0.606,0.606c0.176,0.224,0.376,0.424,0.6,0.601c0.177,0.225,0.378,0.426,0.604,0.603
		c0.177,0.226,0.378,0.428,0.604,0.604c0.176,0.225,0.377,0.426,0.603,0.602c0.177,0.226,0.378,0.428,0.604,0.604
		c0.176,0.225,0.377,0.426,0.601,0.602c0.177,0.226,0.378,0.427,0.603,0.604c0.177,0.226,0.378,0.428,0.604,0.604
		c0.177,0.225,0.378,0.426,0.603,0.603c0.177,0.225,0.378,0.427,0.603,0.604c0.177,0.225,0.378,0.426,0.604,0.603
		c0.176,0.225,0.377,0.426,0.601,0.602c0.177,0.226,0.38,0.428,0.606,0.605c0.176,0.224,0.376,0.424,0.6,0.6
		c0.177,0.226,0.379,0.428,0.604,0.604c0.177,0.225,0.377,0.426,0.602,0.603c0.177,0.226,0.378,0.426,0.604,0.603
		c0.177,0.227,0.378,0.429,0.604,0.604c0.175,0.224,0.375,0.424,0.599,0.6c0.177,0.226,0.379,0.428,0.604,0.604
		c0.177,0.226,0.378,0.428,0.604,0.604c0.176,0.224,0.377,0.425,0.601,0.601c0.177,0.226,0.378,0.427,0.604,0.604
		c0.176,0.225,0.377,0.425,0.602,0.602c0.177,0.226,0.378,0.428,0.604,0.604c0.177,0.226,0.378,0.426,0.603,0.603
		c0.177,0.226,0.379,0.427,0.605,0.604c0.176,0.224,0.376,0.424,0.6,0.6c0.177,0.227,0.379,0.428,0.604,0.604
		c0.177,0.226,0.378,0.427,0.603,0.604c0.176,0.224,0.377,0.425,0.602,0.602c0.177,0.226,0.378,0.426,0.603,0.603
		c0.177,0.226,0.378,0.428,0.604,0.604c0.176,0.225,0.377,0.425,0.602,0.602c0.176,0.226,0.378,0.426,0.603,0.603
		c0.176,0.225,0.377,0.426,0.601,0.602c0.177,0.226,0.379,0.429,0.605,0.605c0.176,0.225,0.377,0.426,0.603,0.602
		c0.176,0.226,0.377,0.427,0.602,0.604c0.176,0.225,0.378,0.427,0.604,0.604c0.177,0.225,0.377,0.425,0.602,0.602
		c0.177,0.226,0.378,0.428,0.604,0.604c0.177,0.225,0.378,0.426,0.603,0.603c0.177,0.225,0.378,0.426,0.603,0.603
		c0.177,0.226,0.378,0.427,0.604,0.604c0.176,0.225,0.377,0.426,0.602,0.602c0.177,0.226,0.378,0.427,0.604,0.604
		c0.177,0.226,0.377,0.426,0.602,0.603c0.177,0.226,0.378,0.428,0.604,0.604c0.177,0.225,0.379,0.427,0.604,0.604
		c0.176,0.224,0.377,0.424,0.602,0.601c0.176,0.225,0.377,0.426,0.602,0.602c0.177,0.226,0.378,0.428,0.604,0.604
		c0.176,0.226,0.378,0.426,0.603,0.603c0.176,0.225,0.378,0.426,0.603,0.603c0.176,0.224,0.376,0.425,0.601,0.602
		c0.178,0.227,0.38,0.429,0.607,0.607c0.176,0.224,0.376,0.424,0.6,0.601c0.177,0.224,0.378,0.425,0.603,0.602
		c0.176,0.225,0.376,0.426,0.601,0.602c0.177,0.227,0.38,0.43,0.607,0.606c0.176,0.225,0.377,0.425,0.601,0.601
		c0.177,0.226,0.378,0.427,0.604,0.603c0.176,0.226,0.377,0.427,0.602,0.603c0.177,0.226,0.379,0.429,0.605,0.605
		c0.176,0.224,0.377,0.425,0.602,0.601c0.177,0.227,0.379,0.427,0.604,0.604c0.176,0.224,0.376,0.424,0.6,0.6
		c0.177,0.227,0.379,0.428,0.605,0.605c0.177,0.225,0.377,0.426,0.602,0.602c0.177,0.225,0.378,0.427,0.604,0.604
		c0.176,0.225,0.377,0.426,0.602,0.602c0.177,0.227,0.379,0.428,0.604,0.605c0.177,0.225,0.378,0.426,0.603,0.602
		c0.176,0.225,0.377,0.426,0.602,0.603c0.177,0.226,0.378,0.427,0.603,0.604c0.177,0.225,0.378,0.426,0.603,0.603
		c0.176,0.225,0.377,0.426,0.602,0.602c0.177,0.227,0.379,0.429,0.605,0.605c0.176,0.225,0.377,0.425,0.601,0.601
		c0.177,0.226,0.379,0.429,0.605,0.605c0.176,0.224,0.376,0.424,0.6,0.6c0.177,0.227,0.38,0.43,0.606,0.606
		c0.175,0.224,0.375,0.424,0.599,0.599c0.178,0.228,0.38,0.43,0.606,0.607c0.176,0.225,0.377,0.425,0.602,0.601
		c0.176,0.225,0.377,0.426,0.602,0.603c0.176,0.226,0.378,0.426,0.603,0.603c0.177,0.226,0.378,0.428,0.604,0.604
		c0.177,0.224,0.378,0.425,0.603,0.602c0.177,0.226,0.378,0.426,0.604,0.603c0.176,0.226,0.377,0.428,0.603,0.604
		c0.177,0.225,0.378,0.426,0.603,0.603c0.177,0.226,0.378,0.426,0.603,0.603c0.177,0.226,0.378,0.428,0.603,0.604
		c0.176,0.225,0.378,0.426,0.603,0.603c0.177,0.226,0.378,0.426,0.603,0.603c0.176,0.225,0.377,0.426,0.602,0.603
		c0.177,0.226,0.379,0.428,0.605,0.605c0.177,0.224,0.377,0.425,0.602,0.601c0.177,0.226,0.377,0.427,0.603,0.604
		c0.177,0.225,0.378,0.427,0.604,0.604c0.176,0.225,0.377,0.426,0.603,0.602c0.176,0.226,0.378,0.427,0.603,0.604
		c0.177,0.225,0.378,0.426,0.603,0.603c0.177,0.225,0.378,0.426,0.603,0.603c0.176,0.226,0.378,0.427,0.603,0.604
		c0.176,0.225,0.378,0.426,0.603,0.603c0.177,0.225,0.378,0.426,0.603,0.603c0.177,0.226,0.378,0.427,0.604,0.604
		c0.176,0.225,0.377,0.426,0.603,0.603c0.177,0.225,0.378,0.427,0.603,0.603c0.177,0.226,0.378,0.427,0.604,0.604
		c0.176,0.225,0.377,0.426,0.603,0.603c0.177,0.225,0.378,0.427,0.603,0.603c0.176,0.226,0.377,0.426,0.603,0.603
		c0.177,0.226,0.378,0.427,0.603,0.604c0.177,0.225,0.378,0.427,0.603,0.604c0.176,0.225,0.377,0.425,0.603,0.602
		c0.177,0.226,0.378,0.428,0.603,0.604c0.177,0.225,0.378,0.426,0.603,0.603c0.177,0.226,0.378,0.427,0.604,0.604
		c0.176,0.225,0.377,0.426,0.602,0.603c0.177,0.225,0.379,0.427,0.604,0.604c0.177,0.225,0.377,0.426,0.603,0.602
		c0.177,0.226,0.378,0.427,0.603,0.604c0.177,0.225,0.378,0.427,0.603,0.603c0.177,0.225,0.378,0.427,0.603,0.603
		c0.177,0.226,0.378,0.427,0.603,0.604c0.176,0.225,0.377,0.426,0.602,0.602c0.177,0.226,0.379,0.427,0.604,0.604
		c0.177,0.226,0.378,0.427,0.603,0.604c0.177,0.225,0.378,0.426,0.602,0.602c0.177,0.226,0.379,0.428,0.604,0.604
		c0.177,0.226,0.378,0.426,0.602,0.603c0.177,0.225,0.378,0.427,0.604,0.604c0.176,0.224,0.376,0.424,0.601,0.601
		c0.177,0.226,0.379,0.428,0.605,0.604c0.176,0.225,0.377,0.426,0.601,0.602c0.177,0.226,0.379,0.428,0.604,0.604
		c0.177,0.226,0.378,0.426,0.603,0.602c0.177,0.226,0.378,0.428,0.603,0.604c0.177,0.225,0.378,0.426,0.603,0.603
		c0.177,0.226,0.378,0.426,0.604,0.604c0.177,0.225,0.377,0.426,0.602,0.603c0.177,0.225,0.379,0.427,0.604,0.604
		c0.176,0.225,0.377,0.425,0.601,0.602c0.177,0.226,0.378,0.427,0.604,0.604c0.176,0.224,0.377,0.425,0.602,0.602
		c0.177,0.226,0.378,0.426,0.603,0.603c0.177,0.226,0.378,0.428,0.604,0.604c0.177,0.225,0.378,0.427,0.603,0.603
		c0.177,0.226,0.378,0.426,0.602,0.603c0.177,0.225,0.378,0.427,0.603,0.604c0.177,0.225,0.379,0.427,0.604,0.604
		c0.176,0.225,0.377,0.425,0.602,0.602c0.177,0.226,0.378,0.427,0.603,0.604c0.177,0.226,0.379,0.428,0.604,0.604
		c0.176,0.223,0.375,0.423,0.599,0.599c0.177,0.226,0.379,0.429,0.606,0.605c0.177,0.226,0.378,0.427,0.604,0.604
		c0.177,0.225,0.378,0.426,0.603,0.603c0.176,0.225,0.377,0.426,0.601,0.602c0.177,0.225,0.378,0.427,0.603,0.604
		c0.177,0.225,0.378,0.427,0.604,0.604c0.176,0.225,0.377,0.426,0.602,0.603c0.176,0.224,0.378,0.426,0.603,0.603
		c0.177,0.225,0.379,0.427,0.604,0.604c0.176,0.225,0.376,0.425,0.601,0.601c0.177,0.226,0.379,0.428,0.605,0.605
		c0.177,0.224,0.377,0.426,0.602,0.602c0.177,0.227,0.379,0.427,0.604,0.604c0.177,0.225,0.377,0.425,0.602,0.602
		c0.177,0.225,0.378,0.426,0.603,0.603c0.177,0.226,0.378,0.426,0.603,0.603c0.176,0.226,0.378,0.427,0.602,0.603
		c0.177,0.225,0.378,0.427,0.603,0.604c0.177,0.226,0.379,0.427,0.604,0.604c0.176,0.224,0.376,0.424,0.599,0.6
		c0.178,0.227,0.38,0.43,0.607,0.607c0.176,0.223,0.376,0.424,0.6,0.6c0.178,0.227,0.38,0.428,0.607,0.606
		c0.175,0.223,0.375,0.422,0.598,0.597c0.178,0.228,0.381,0.431,0.607,0.608c0.176,0.224,0.376,0.425,0.601,0.6
		c0.177,0.226,0.379,0.428,0.604,0.605c0.176,0.224,0.377,0.424,0.601,0.601c0.177,0.226,0.379,0.428,0.605,0.604
		c0.176,0.225,0.377,0.426,0.602,0.603c0.177,0.225,0.378,0.426,0.603,0.603c0.177,0.225,0.378,0.427,0.603,0.603
		c0.177,0.227,0.379,0.428,0.605,0.605c0.176,0.223,0.376,0.424,0.6,0.599c0.177,0.227,0.379,0.429,0.605,0.605
		c0.176,0.225,0.378,0.427,0.603,0.603c0.177,0.225,0.378,0.427,0.603,0.604c0.176,0.225,0.377,0.425,0.602,0.602
		c0.177,0.226,0.379,0.428,0.604,0.604c0.177,0.224,0.377,0.425,0.602,0.602c0.177,0.226,0.379,0.426,0.604,0.603
		c0.176,0.225,0.377,0.426,0.601,0.603c0.177,0.225,0.379,0.427,0.604,0.604c0.176,0.225,0.377,0.425,0.601,0.602
		c0.177,0.226,0.379,0.428,0.605,0.605c0.177,0.224,0.377,0.425,0.602,0.601c0.177,0.227,0.379,0.428,0.605,0.605
		c0.176,0.223,0.376,0.423,0.599,0.599c0.178,0.227,0.381,0.43,0.607,0.607c0.176,0.224,0.376,0.424,0.6,0.6
		c0.177,0.226,0.379,0.428,0.605,0.605c0.176,0.223,0.376,0.423,0.6,0.599c0.177,0.228,0.38,0.43,0.606,0.607
		c0.176,0.224,0.376,0.424,0.599,0.599c0.178,0.227,0.38,0.43,0.606,0.607c0.176,0.224,0.376,0.423,0.6,0.599
		c0.177,0.227,0.379,0.429,0.606,0.605c0.176,0.225,0.376,0.426,0.601,0.602c0.177,0.226,0.379,0.428,0.604,0.604
		c0.177,0.226,0.378,0.426,0.603,0.603c0.177,0.225,0.378,0.427,0.603,0.603c0.177,0.225,0.377,0.426,0.603,0.603
		c0.177,0.226,0.379,0.427,0.604,0.604c0.176,0.225,0.376,0.425,0.6,0.601c0.177,0.226,0.379,0.428,0.604,0.604
		c0.176,0.225,0.377,0.426,0.601,0.602c0.177,0.226,0.379,0.428,0.605,0.604c0.176,0.224,0.376,0.425,0.601,0.601
		c0.177,0.227,0.378,0.428,0.604,0.604c0.176,0.225,0.377,0.426,0.602,0.603c0.177,0.225,0.377,0.426,0.603,0.603
		c0.177,0.226,0.378,0.427,0.604,0.604c0.176,0.225,0.378,0.427,0.603,0.604c0.176,0.224,0.377,0.425,0.602,0.602
		c0.177,0.226,0.378,0.427,0.604,0.603c0.176,0.226,0.377,0.427,0.602,0.604c0.177,0.225,0.378,0.426,0.604,0.604
		c0.176,0.225,0.377,0.426,0.602,0.602c0.177,0.226,0.379,0.428,0.604,0.605c0.176,0.223,0.377,0.424,0.601,0.6
		c0.177,0.227,0.38,0.429,0.606,0.606c0.176,0.224,0.375,0.424,0.599,0.6c0.178,0.226,0.38,0.429,0.606,0.606
		c0.176,0.224,0.377,0.424,0.6,0.599c0.177,0.227,0.379,0.429,0.604,0.605c0.177,0.225,0.378,0.426,0.602,0.603
		c0.177,0.225,0.378,0.426,0.603,0.602c0.177,0.226,0.378,0.428,0.603,0.604c0.176,0.225,0.378,0.426,0.603,0.603
		c0.177,0.226,0.378,0.426,0.603,0.603c0.177,0.226,0.378,0.427,0.603,0.604c0.176,0.225,0.378,0.426,0.603,0.603
		c0.177,0.225,0.378,0.426,0.603,0.603c0.177,0.225,0.377,0.426,0.602,0.603c0.177,0.226,0.379,0.428,0.604,0.604
		c0.177,0.225,0.377,0.426,0.602,0.603c0.177,0.225,0.378,0.426,0.603,0.603c0.177,0.225,0.378,0.427,0.604,0.604
		c0.177,0.224,0.377,0.426,0.603,0.602c0.176,0.226,0.378,0.426,0.603,0.604c0.176,0.225,0.378,0.426,0.602,0.602
		c0.177,0.226,0.379,0.428,0.604,0.604c0.177,0.225,0.378,0.426,0.603,0.602c0.176,0.226,0.378,0.427,0.602,0.603
		c0.177,0.226,0.378,0.427,0.603,0.604c0.177,0.226,0.378,0.427,0.604,0.604c0.176,0.225,0.377,0.427,0.602,0.603
		c0.177,0.225,0.378,0.426,0.603,0.603c0.177,0.226,0.378,0.427,0.604,0.604c0.177,0.226,0.378,0.427,0.603,0.604
		c0.176,0.224,0.377,0.425,0.601,0.601c0.177,0.226,0.378,0.427,0.604,0.604c0.177,0.226,0.378,0.427,0.604,0.604
		c0.177,0.224,0.377,0.425,0.602,0.601c0.177,0.226,0.378,0.427,0.603,0.604c0.177,0.226,0.379,0.427,0.604,0.604
		c0.177,0.225,0.378,0.426,0.603,0.602c0.176,0.225,0.378,0.426,0.602,0.603c0.177,0.226,0.378,0.427,0.604,0.604
		c0.176,0.225,0.378,0.426,0.603,0.603c0.177,0.226,0.378,0.427,0.603,0.604c0.177,0.225,0.378,0.426,0.603,0.604
		c0.177,0.225,0.378,0.426,0.604,0.603c0.176,0.224,0.377,0.425,0.602,0.602c0.176,0.225,0.377,0.427,0.602,0.604
		c0.177,0.225,0.378,0.426,0.604,0.603c0.177,0.225,0.378,0.427,0.604,0.604c0.176,0.225,0.377,0.426,0.602,0.602
		c0.177,0.226,0.379,0.427,0.604,0.604c0.177,0.225,0.378,0.426,0.603,0.603c0.176,0.226,0.378,0.427,0.603,0.603
		c0.177,0.226,0.378,0.427,0.603,0.604c0.177,0.225,0.378,0.426,0.603,0.603c0.177,0.226,0.378,0.427,0.604,0.604
		c0.176,0.225,0.377,0.426,0.602,0.603c0.177,0.225,0.378,0.426,0.603,0.603c0.177,0.226,0.378,0.426,0.603,0.603
		c0.177,0.226,0.378,0.427,0.603,0.604c0.177,0.225,0.378,0.426,0.603,0.603c0.653,0.831,1.654,1.374,2.792,1.374h15.424
		c1.968,0,3.563-1.596,3.563-3.563v-31.582c0.106,0.104,0.216,0.204,0.323,0.308c0.038,0.042,0.065,0.09,0.105,0.13
		c0.163,0.163,0.333,0.315,0.499,0.475c0.038,0.041,0.065,0.088,0.104,0.128c0.162,0.161,0.331,0.314,0.496,0.472
		c0.039,0.042,0.066,0.09,0.107,0.131c0.163,0.163,0.333,0.316,0.499,0.476c0.038,0.041,0.065,0.087,0.104,0.127
		c0.163,0.163,0.332,0.315,0.498,0.475c0.038,0.041,0.065,0.089,0.105,0.129c0.162,0.161,0.331,0.314,0.496,0.472
		c0.039,0.042,0.066,0.09,0.106,0.131c0.163,0.163,0.333,0.316,0.5,0.476c0.038,0.041,0.064,0.087,0.104,0.127
		c0.162,0.162,0.331,0.314,0.496,0.473c0.039,0.041,0.066,0.09,0.107,0.131c0.163,0.162,0.332,0.314,0.498,0.474
		c0.038,0.041,0.065,0.089,0.105,0.129c0.163,0.163,0.333,0.316,0.5,0.476c0.037,0.041,0.064,0.087,0.104,0.127
		c0.162,0.162,0.331,0.313,0.495,0.473c0.039,0.041,0.066,0.09,0.107,0.131c0.163,0.163,0.333,0.315,0.499,0.475
		c0.038,0.041,0.064,0.088,0.104,0.128c0.163,0.162,0.332,0.315,0.498,0.474c0.038,0.042,0.065,0.089,0.105,0.129
		c0.162,0.162,0.331,0.313,0.495,0.473c0.039,0.041,0.066,0.09,0.107,0.131c0.163,0.163,0.333,0.315,0.499,0.475
		c0.038,0.041,0.064,0.088,0.104,0.128c0.162,0.162,0.331,0.314,0.496,0.472c0.038,0.042,0.065,0.091,0.106,0.131
		c0.163,0.163,0.332,0.315,0.498,0.474c0.038,0.042,0.065,0.09,0.105,0.13c0.163,0.163,0.333,0.315,0.5,0.475
		c0.038,0.041,0.064,0.088,0.104,0.128c0.162,0.162,0.331,0.314,0.496,0.472c0.038,0.042,0.065,0.09,0.106,0.131
		c0.163,0.163,0.332,0.315,0.498,0.474c0.038,0.042,0.065,0.09,0.105,0.13c0.163,0.162,0.332,0.314,0.498,0.474
		c0.038,0.041,0.065,0.089,0.105,0.129c0.163,0.162,0.332,0.315,0.498,0.474c0.038,0.042,0.065,0.089,0.105,0.129
		c0.163,0.163,0.333,0.316,0.499,0.476c0.037,0.041,0.064,0.088,0.104,0.128c0.162,0.161,0.331,0.313,0.496,0.472
		c0.039,0.042,0.066,0.09,0.107,0.131c0.163,0.162,0.332,0.315,0.498,0.474c0.038,0.042,0.065,0.089,0.105,0.129
		c0.163,0.164,0.333,0.316,0.499,0.476c0.037,0.041,0.064,0.088,0.104,0.128c0.162,0.161,0.331,0.313,0.496,0.472
		c0.039,0.041,0.066,0.09,0.107,0.131c0.163,0.162,0.332,0.315,0.498,0.474c0.038,0.041,0.065,0.089,0.105,0.129
		c0.163,0.163,0.332,0.315,0.497,0.474c0.038,0.042,0.065,0.09,0.105,0.129c0.162,0.162,0.331,0.314,0.495,0.472
		c0.039,0.042,0.067,0.091,0.108,0.133c0.163,0.163,0.333,0.315,0.499,0.475c0.038,0.041,0.064,0.088,0.104,0.128
		c0.163,0.163,0.333,0.316,0.499,0.475c0.038,0.041,0.064,0.087,0.104,0.127c0.163,0.163,0.332,0.315,0.498,0.474
		c0.038,0.042,0.065,0.09,0.105,0.13c0.163,0.162,0.332,0.315,0.497,0.474c0.038,0.041,0.066,0.089,0.106,0.129
		c0.163,0.163,0.332,0.315,0.497,0.474c0.038,0.042,0.065,0.09,0.105,0.13c0.163,0.162,0.332,0.314,0.497,0.473
		c0.038,0.042,0.065,0.09,0.106,0.13c0.163,0.162,0.332,0.315,0.497,0.474c0.038,0.041,0.066,0.089,0.106,0.129
		c0.162,0.163,0.332,0.315,0.497,0.474c0.038,0.042,0.065,0.089,0.105,0.129c0.163,0.163,0.333,0.316,0.499,0.476
		c0.038,0.041,0.065,0.088,0.104,0.128c0.162,0.161,0.331,0.313,0.495,0.472c0.039,0.042,0.066,0.09,0.107,0.131
		c0.162,0.163,0.332,0.315,0.497,0.474c0.038,0.042,0.065,0.089,0.105,0.129c0.163,0.163,0.332,0.315,0.498,0.474
		c0.038,0.042,0.065,0.09,0.105,0.13c0.163,0.162,0.332,0.315,0.497,0.474c0.038,0.041,0.065,0.089,0.106,0.129
		c6.054,6.054,14.104,9.389,22.666,9.389c17.675,0,32.055-14.38,32.055-32.056C393.015,382.153,389.34,374.071,383.431,368.252z"/>
</g>
<g>
	<g>
		<path fill="#FFFFFF" d="M126.265,233.292c0,1.969-1.595,3.564-3.563,3.564h-15.424c-1.968,0-3.563-1.596-3.563-3.564v-80.568
			c0-1.966,1.595-3.563,3.563-3.563h15.424c1.968,0,3.563,1.597,3.563,3.563V233.292z"/>
	</g>
	<g>
		<path fill="#FFFFFF" d="M124.49,145.578c0-0.739-0.598-1.336-1.337-1.336h-16.327c-0.738,0-1.336,0.597-1.336,1.336v1.782
			c0,0.737,0.598,1.336,1.336,1.336h16.327c0.739,0,1.337-0.599,1.337-1.336V145.578z"/>
	</g>
	<g>
		<path fill="#FFFFFF" d="M114.99,116.923c-17.675,0-32.055-14.38-32.055-32.053c0-17.678,14.379-32.056,32.055-32.056
			s32.055,14.378,32.055,32.056C147.045,102.543,132.666,116.923,114.99,116.923z M114.99,60.688
			c-13.334,0-24.182,10.848-24.182,24.183c0,13.332,10.848,24.181,24.182,24.181c13.333,0,24.182-10.849,24.182-24.181
			C139.172,71.536,128.324,60.688,114.99,60.688z"/>
	</g>
	<g>
		<rect x="111.053" y="112.987" fill="#FFFFFF" width="7.874" height="45.27"/>
	</g>
	<g>
		<g>
			<path fill="#FFFFFF" d="M163.405,56.378c0-1.97,1.596-3.563,3.564-3.563h15.423c1.968,0,3.563,1.594,3.563,3.563v80.565
				c0,1.97-1.595,3.565-3.563,3.565h-15.423c-1.968,0-3.564-1.596-3.564-3.565V56.378z"/>
		</g>
		<g>
			<path fill="#FFFFFF" d="M165.18,144.091c0,0.737,0.599,1.338,1.337,1.338h16.327c0.738,0,1.337-0.601,1.337-1.338v-1.782
				c0-0.737-0.599-1.336-1.337-1.336h-16.327c-0.738,0-1.337,0.599-1.337,1.336V144.091z"/>
		</g>
		<g>
			<path fill="#FFFFFF" d="M174.68,236.856c-8.562,0-16.612-3.336-22.667-9.389c-1.537-1.538-1.537-4.029,0-5.567
				c1.538-1.537,4.03-1.537,5.568,0c4.567,4.566,10.639,7.081,17.099,7.081c13.333,0,24.182-10.846,24.182-24.181
				c0-13.333-10.849-24.183-24.182-24.183c-2.174,0-3.936-1.763-3.936-3.936v-49.207c0-2.175,1.762-3.936,3.936-3.936
				c2.174,0,3.937,1.761,3.937,3.936v45.51c15.825,1.948,28.118,15.473,28.118,31.815
				C206.734,222.476,192.355,236.856,174.68,236.856z"/>
		</g>
	</g>
</g>
<g>
	<g>
		<path fill="#FFFFFF" d="M126.265,233.292c0,1.969-1.595,3.564-3.563,3.564h-15.424c-1.968,0-3.563-1.596-3.563-3.564v-80.568
			c0-1.966,1.595-3.563,3.563-3.563h15.424c1.968,0,3.563,1.597,3.563,3.563V233.292z"/>
	</g>
	<g>
		<path fill="#FFFFFF" d="M124.49,145.578c0-0.739-0.598-1.336-1.337-1.336h-16.327c-0.738,0-1.336,0.597-1.336,1.336v1.782
			c0,0.737,0.598,1.336,1.336,1.336h16.327c0.739,0,1.337-0.599,1.337-1.336V145.578z"/>
	</g>
	<g>
		<path fill="#FFFFFF" d="M114.99,116.923c-17.675,0-32.055-14.38-32.055-32.053c0-17.678,14.379-32.056,32.055-32.056
			s32.055,14.378,32.055,32.056C147.045,102.543,132.666,116.923,114.99,116.923z M114.99,60.688
			c-13.334,0-24.182,10.848-24.182,24.183c0,13.332,10.848,24.181,24.182,24.181c13.333,0,24.182-10.849,24.182-24.181
			C139.172,71.536,128.324,60.688,114.99,60.688z"/>
	</g>
	<g>
		<rect x="111.053" y="112.987" fill="#FFFFFF" width="7.874" height="45.27"/>
	</g>
	<g>
		<g>
			<path fill="#FFFFFF" d="M163.405,56.378c0-1.97,1.596-3.563,3.564-3.563h15.423c1.968,0,3.563,1.594,3.563,3.563v80.565
				c0,1.97-1.595,3.565-3.563,3.565h-15.423c-1.968,0-3.564-1.596-3.564-3.565V56.378z"/>
		</g>
		<g>
			<path fill="#FFFFFF" d="M165.18,144.091c0,0.737,0.599,1.338,1.337,1.338h16.327c0.738,0,1.337-0.601,1.337-1.338v-1.782
				c0-0.737-0.599-1.336-1.337-1.336h-16.327c-0.738,0-1.337,0.599-1.337,1.336V144.091z"/>
		</g>
		<g>
			<path fill="#FFFFFF" d="M174.68,236.856c-8.562,0-16.612-3.336-22.667-9.389c-1.537-1.538-1.537-4.029,0-5.567
				c1.538-1.537,4.03-1.537,5.568,0c4.567,4.566,10.639,7.081,17.099,7.081c13.333,0,24.182-10.846,24.182-24.181
				c0-13.333-10.849-24.183-24.182-24.183c-2.174,0-3.936-1.763-3.936-3.936v-49.207c0-2.175,1.762-3.936,3.936-3.936
				c2.174,0,3.937,1.761,3.937,3.936v45.51c15.825,1.948,28.118,15.473,28.118,31.815
				C206.734,222.476,192.355,236.856,174.68,236.856z"/>
		</g>
	</g>
</g>
</svg>
