<?xml version="1.0" encoding="utf-8"?>
<!-- Generator: Adobe Illustrator 16.0.3, SVG Export Plug-In . SVG Version: 6.00 Build 0)  -->
<!DOCTYPE svg PUBLIC "-//W3C//DTD SVG 1.1//EN" "http://www.w3.org/Graphics/SVG/1.1/DTD/svg11.dtd">
<svg version="1.1" id="Camada_1" xmlns="http://www.w3.org/2000/svg" xmlns:xlink="http://www.w3.org/1999/xlink" x="0px" y="0px"
	 width="64.667px" height="64.667px" viewBox="0 0 64.667 64.667" enable-background="new 0 0 64.667 64.667" xml:space="preserve">
<g>
	<g>
		<defs>
			<path id="SVGID_1_" d="M32.405,0.586c17.503,0,31.692,14.189,31.692,31.692c0,17.503-14.189,31.692-31.692,31.692
				S0.713,49.781,0.713,32.278C0.713,14.775,14.902,0.586,32.405,0.586"/>
		</defs>
		<clipPath id="SVGID_2_">
			<use xlink:href="#SVGID_1_"  overflow="visible"/>
		</clipPath>
		<linearGradient id="SVGID_3_" gradientUnits="userSpaceOnUse" x1="67.0166" y1="47.8076" x2="-1.5634" y2="17.0376">
			<stop  offset="0" style="stop-color:#D2D6DA"/>
			<stop  offset="1" style="stop-color:#FEFEFE"/>
		</linearGradient>
		<rect x="0.713" y="0.586" clip-path="url(#SVGID_2_)" fill="url(#SVGID_3_)" width="63.385" height="63.384"/>
	</g>
	<text transform="matrix(1 0 0 1 18.8672 54.6509)" fill="#47303B" font-family="'TrebuchetMS'" font-size="6.6881">a</text>
	<text transform="matrix(1 0 0 1 28.0049 54.6509)" fill="#47303B" font-family="'TrebuchetMS'" font-size="6.6881">ç</text>
	<text transform="matrix(1 0 0 1 36.9414 54.6509)" fill="#47303B" font-family="'TrebuchetMS'" font-size="6.6881">a</text>
	<text transform="matrix(1 0 0 1 46.0791 54.6509)" fill="#47303B" font-family="'TrebuchetMS'" font-size="6.6881">í</text>
	<path fill-rule="evenodd" clip-rule="evenodd" fill="#47303B" d="M31.947,30.483c-5.341-0.156-9.688-4.46-9.914-9.785h9.631v3.57
		l0.283,0.588V30.483z M42.462,20.699c-0.226,5.324-4.573,9.629-9.914,9.785v-5.627l0.282-0.588v-3.57H42.462z"/>
	<path fill-rule="evenodd" clip-rule="evenodd" fill="#365B40" d="M42.488,10.08c0.001,0.037,0.002,0.075,0.002,0.112v1.792
		c-0.025,0-0.05-0.001-0.075-0.001c-4.644,0-8.546,3.218-9.571,7.553c1.757-3.793,5.689-5.908,9.646-5.519v1.84
		c-3.633-0.682-7.374,0.748-9.62,3.688c2.715-2.404,6.421-2.998,9.62-1.85v1.909c-2.972-1.677-6.656-1.701-9.666-0.001h-0.009
		c0-0.004,0-0.009,0-0.013c0.048-5.261,4.327-9.511,9.6-9.511C42.439,10.079,42.464,10.079,42.488,10.08 M32.032,9.313h0.43v8.397
		h-0.43V9.313z M22.006,10.08c0,0.037-0.001,0.075-0.001,0.112v1.792c0.024,0,0.05-0.001,0.075-0.001
		c4.644,0,8.546,3.218,9.57,7.553c-1.756-3.793-5.689-5.908-9.646-5.519v1.84c3.633-0.682,7.374,0.748,9.619,3.688
		c-2.714-2.404-6.421-2.998-9.619-1.85v1.909c2.971-1.677,6.655-1.701,9.666-0.001h0.009c0-0.004,0-0.009,0-0.013
		c-0.049-5.261-4.327-9.511-9.6-9.511C22.056,10.079,22.031,10.079,22.006,10.08z"/>
	<path fill-rule="evenodd" clip-rule="evenodd" fill="#47303B" d="M32.407,33.875c0.085,0,0.168,0.011,0.247,0.032
		c-0.115,0.082-0.19,0.216-0.19,0.368c0,0.249,0.202,0.451,0.451,0.451c0.173,0,0.323-0.098,0.399-0.241
		c0.047,0.115,0.072,0.24,0.072,0.372c0,0.541-0.438,0.98-0.979,0.98c-0.542,0-0.981-0.439-0.981-0.98
		C31.426,34.314,31.865,33.875,32.407,33.875"/>
	<path fill="#365B40" d="M48.238,40.484c0.002,0.049,0.003,0.098,0.003,0.149v0.001v0.001v0.002v0.003v0.002v0.002v0.003v0.002v6.58
		h-1.587h-1.943c-0.367,0-0.803-0.033-1.302-0.098s-0.972-0.205-1.418-0.419c-0.446-0.214-0.824-0.527-1.133-0.937
		c-0.308-0.409-0.456-0.966-0.445-1.667c0.011-0.724,0.206-1.314,0.579-1.765c0.374-0.451,0.857-0.804,1.445-1.052
		c0.587-0.249,1.252-0.408,1.988-0.473c0.735-0.064,1.479-0.074,2.229-0.027v-0.071v-0.012c0-0.078-0.002-0.154-0.007-0.227h0.003
		c-0.016-0.38-0.081-0.697-0.219-0.947c-0.16-0.291-0.369-0.524-0.624-0.695c-0.256-0.172-0.542-0.295-0.856-0.366
		s-0.616-0.12-0.9-0.143c-0.439-0.035-0.785-0.072-1.034-0.107c-0.249-0.035-0.458-0.095-0.624-0.178v-0.553h1.658
		c0.88,0,1.594,0.099,2.14,0.294s0.973,0.449,1.275,0.758c0.302,0.309,0.508,0.648,0.615,1.017
		C48.171,39.875,48.224,40.181,48.238,40.484L48.238,40.484z M46.654,41.65c-0.606-0.036-1.187-0.032-1.738,0.009
		c-0.552,0.041-1.045,0.149-1.472,0.321s-0.772,0.425-1.034,0.758s-0.399,0.773-0.41,1.319c-0.011,0.546,0.093,0.976,0.313,1.284
		c0.219,0.308,0.496,0.541,0.829,0.695s0.685,0.25,1.052,0.285c0.368,0.035,0.695,0.054,0.98,0.054h1.48V41.65z M38.929,37.495
		h1.658v0.553c-0.166,0.083-0.375,0.143-0.624,0.178c-0.249,0.035-0.595,0.072-1.034,0.107c-0.284,0.023-0.586,0.072-0.9,0.143
		s-0.601,0.194-0.855,0.366c-0.255,0.171-0.465,0.405-0.624,0.695c-0.16,0.291-0.223,0.669-0.223,1.132v6.562h-1.588v-6.58
		c0-0.356,0.054-0.719,0.161-1.087c0.106-0.369,0.313-0.708,0.615-1.017c0.302-0.309,0.729-0.563,1.274-0.758
		S38.05,37.495,38.929,37.495z M33.2,37.495h-1.587v9.736H33.2V37.495z M28.509,37.495h1.587v6.865c0,0.486-0.11,0.922-0.33,1.302
		c-0.22,0.38-0.509,0.705-0.865,0.972c-0.355,0.267-0.767,0.473-1.229,0.615c-0.464,0.143-0.945,0.214-1.444,0.214
		c-0.5,0-0.981-0.071-1.444-0.214c-0.464-0.143-0.875-0.348-1.231-0.615c-0.355-0.267-0.642-0.592-0.855-0.972
		c-0.213-0.38-0.32-0.814-0.32-1.302v-6.865h1.587v6.793c0,0.676,0.193,1.234,0.579,1.667c0.386,0.433,0.948,0.651,1.686,0.651
		c0.736,0,1.302-0.218,1.693-0.651c0.392-0.434,0.589-0.99,0.589-1.667V37.495z M16.254,33.875h7.609v0.856h-3.021v12.5h-1.569
		v-12.5h-3.02V33.875z"/>
</g>
</svg>
