<?xml version="1.0" encoding="utf-8"?>
<!-- Generator: Adobe Illustrator 16.0.3, SVG Export Plug-In . SVG Version: 6.00 Build 0)  -->
<!DOCTYPE svg PUBLIC "-//W3C//DTD SVG 1.1//EN" "http://www.w3.org/Graphics/SVG/1.1/DTD/svg11.dtd">
<svg version="1.1" id="Camada_1" xmlns="http://www.w3.org/2000/svg" xmlns:xlink="http://www.w3.org/1999/xlink" x="0px" y="0px"
	 width="3061.191px" height="782.057px" viewBox="0 0 3061.191 782.057" enable-background="new 0 0 3061.191 782.057"
	 xml:space="preserve">
<g>
	<path fill="none" stroke="#EE7D00" stroke-width="5.3858" stroke-miterlimit="22.9256" d="M166.51,255.476
		c60.828,103.448,131.669,255.797,223.271,337.798c15.637,14.001,33.874,24.474,53.842,30.531
		c113.133,34.381,208.317-72.801,160.924-181.113c-8.554-19.563-21.031-39.089-35.262-61.576l-88.779-140.277"/>
	<path fill="#EE7D00" d="M160.518,204.907c26.088,0,47.229,20.253,47.229,45.243c0,24.986-21.14,45.229-47.229,45.229
		c-26.078,0-47.229-20.24-47.229-45.229C113.292,225.161,134.44,204.907,160.518,204.907z"/>
	<path fill="#EE7D00" d="M478.505,204.907c26.078,0,47.229,20.253,47.229,45.243c0,24.986-21.149,45.229-47.229,45.229
		s-47.228-20.24-47.228-45.229C431.278,225.161,452.427,204.907,478.505,204.907z"/>
	<path fill="none" stroke="#EE7D00" stroke-width="5.3858" stroke-miterlimit="22.9256" d="M470.646,489.305
		c-60.827-103.449-131.67-255.807-223.277-337.809c-15.631-13.99-33.868-24.465-53.843-30.526
		C80.393,86.591-14.791,193.775,32.613,302.09c8.544,19.559,21.021,39.084,35.25,61.575l88.779,140.274"/>
	<path fill="#EE7D00" d="M476.631,539.863c-26.077,0-47.228-20.241-47.228-45.235c0-24.98,21.148-45.229,47.228-45.229
		s47.229,20.244,47.229,45.229C523.859,519.62,502.71,539.863,476.631,539.863z"/>
	<path fill="#EE7D00" d="M158.645,539.863c-26.078,0-47.229-20.241-47.229-45.235c0-24.98,21.148-45.229,47.229-45.229
		c26.085,0,47.229,20.244,47.229,45.229C205.873,519.62,184.729,539.863,158.645,539.863z"/>
	<path fill="none" stroke="#EE7D00" stroke-width="5.3858" stroke-miterlimit="22.9256" d="M331.1,242.142
		c15.244-86.084,92.877-148.182,188.759-125.942c107.812,24.992,139.904,184.851,24.507,233.734"/>
	<path fill="none" stroke="#EE7D00" stroke-width="5.3858" stroke-miterlimit="22.9256" d="M307.151,498.877
		c-15.244,86.096-92.878,148.191-188.758,125.953c-107.813-25-139.907-184.849-24.504-233.741"/>
	<path fill="#EE7D00" d="M779.807,561.037c0,3.721-1.977,7.124-5.896,10.21c-3.944,3.073-8.835,4.607-14.701,4.607
		c-5.323,0-9.915-1.215-13.789-3.656c-4.396-2.74-6.602-6.437-6.602-11.134v-75.608c0-4.1,1.616-7.455,4.821-10.094
		c3.75-3.127,8.975-4.704,15.668-4.704h20.497v14.831H769.16v-7.338h-9.854c-2.272,0-4.554,0.727-6.825,2.195
		c-2.272,1.469-3.42,3.177-3.42,5.143v75.548c0,1.867,1.041,3.498,3.115,4.915c2.076,1.42,4.448,2.136,7.13,2.136
		c2.55,0,4.823-0.633,6.833-1.912c2.011-1.269,3.021-2.983,3.021-5.139v-3.958h10.646v3.958H779.807z M887.71,574.398h-35.962
		V470.658h10.248v95.96h25.714V574.398L887.71,574.398z M968.896,574.398h-10.248V470.658h10.248V574.398L968.896,574.398z
		 M979.138,453.352l-15.092,11.258l-5.191-3.479l15.67-11.444L979.138,453.352L979.138,453.352z M1095.492,574.398h-10.664v-39.181
		l-20.08-24.644v63.822h-10.254V470.658h10.254v24.431l20.08,24.066v-48.497h10.664V574.398L1095.492,574.398z M1187.304,574.398
		h-10.243V470.658h10.243V574.398L1187.304,574.398z M1307.867,561.037c0,3.721-1.971,7.124-5.895,10.21
		c-3.949,3.073-8.84,4.607-14.694,4.607c-5.334,0-9.911-1.215-13.798-3.656c-4.391-2.74-6.597-6.437-6.597-11.134v-75.608
		c0-4.1,1.607-7.455,4.823-10.094c3.746-3.127,8.973-4.704,15.668-4.704h20.49v14.831h-10.647v-7.338h-9.843
		c-2.271,0-4.555,0.727-6.835,2.195c-2.271,1.469-3.414,3.177-3.414,5.143v75.548c0,1.867,1.036,3.498,3.11,4.915
		c2.082,1.42,4.463,2.136,7.139,2.136c2.541,0,4.822-0.633,6.823-1.912c2.011-1.269,3.02-2.983,3.02-5.139v-3.958h10.647
		L1307.867,561.037L1307.867,561.037z M1418.982,574.398h-10.846v-40.492h-20.09v40.491h-10.246v-90.382
		c0-4.006,1.841-7.506,5.531-10.492c3.674-2.979,8.662-4.474,14.963-4.474c5.627,0,10.484,1.349,14.568,4.038
		c4.082,2.69,6.115,6.332,6.115,10.928v90.382L1418.982,574.398L1418.982,574.398z M1408.136,526.415v-42.379
		c0-1.466-1.004-3.072-3.021-4.861c-1.999-1.757-4.278-2.641-6.821-2.641c-2.545,0-4.893,0.884-7.032,2.641
		c-2.137,1.789-3.216,3.396-3.216,4.861v42.379H1408.136L1408.136,526.415z M1703.281,561.066c0,4.011-1.943,7.459-5.813,10.395
		c-3.896,2.938-8.843,4.396-14.882,4.396c-5.621,0-10.441-1.363-14.463-4.102c-4.018-2.735-6.027-6.284-6.027-10.688v-77.075
		c0-3.912,1.879-7.356,5.626-10.396c3.75-3.022,8.705-4.545,14.864-4.545c5.627,0,10.493,1.372,14.57,4.104
		c4.083,2.741,6.125,6.333,6.125,10.836V561.066L1703.281,561.066z M1692.427,561.037v-77.021c0-1.658-1.002-3.332-3.011-4.989
		c-2.01-1.654-4.281-2.49-6.832-2.49c-2.541,0-4.892,0.836-7.022,2.49c-2.149,1.657-3.221,3.331-3.221,4.989v77.021
		c0,1.964,1.107,3.623,3.319,4.993c2.208,1.376,4.519,2.058,6.924,2.058c2.551,0,4.822-0.633,6.832-1.912
		C1691.426,564.907,1692.427,563.192,1692.427,561.037L1692.427,561.037z M1827.66,559.721c0,4.402-2.104,7.945-6.326,10.639
		c-4.223,2.689-9.003,4.038-14.365,4.038h-20.49V470.658h20.49c5.627,0,10.48,1.329,14.564,3.972
		c4.086,2.64,6.127,6.251,6.127,10.859V559.721L1827.66,559.721z M1816.808,559.573V485.49c0-1.966-0.934-3.674-2.813-5.143
		c-1.866-1.471-4.216-2.195-7.026-2.195h-10.246v88.467h10.246c2.549,0,4.822-0.688,6.824-2.049
		C1815.802,563.192,1816.808,561.531,1816.808,559.573L1816.808,559.573z M1952.037,561.066c0,4.011-1.938,7.459-5.826,10.395
		c-3.887,2.938-8.834,4.396-14.87,4.396c-5.62,0-10.437-1.363-14.46-4.102c-4.02-2.735-6.021-6.284-6.021-10.688v-77.075
		c0-3.912,1.859-7.356,5.617-10.396c3.75-3.022,8.701-4.545,14.864-4.545c5.626,0,10.482,1.372,14.577,4.104
		c4.084,2.741,6.119,6.333,6.119,10.836V561.066L1952.037,561.066z M1941.193,561.037v-77.021c0-1.658-1.01-3.332-3.021-4.989
		c-2.011-1.654-4.281-2.49-6.832-2.49c-2.54,0-4.888,0.836-7.029,2.49c-2.143,1.657-3.207,3.331-3.207,4.989v77.021
		c0,1.964,1.099,3.623,3.313,4.993c2.207,1.376,4.521,2.058,6.925,2.058c2.551,0,4.821-0.633,6.832-1.912
		C1940.183,564.907,1941.193,563.192,1941.193,561.037L1941.193,561.037z M2076.22,574.398h-10.654v-39.181l-20.088-24.644v63.822
		h-10.248V470.658h10.248v24.431l20.088,24.066v-48.497h10.654V574.398L2076.22,574.398z M2195.572,478.153h-15.268v96.245h-10.857
		v-96.245h-15.063v-7.493h41.188V478.153L2195.572,478.153z M2314.523,561.066c0,4.011-1.943,7.459-5.834,10.395
		c-3.875,2.938-8.832,4.396-14.868,4.396c-5.62,0-10.442-1.363-14.462-4.102c-4.021-2.735-6.021-6.284-6.021-10.688v-77.075
		c0-3.912,1.872-7.356,5.619-10.396c3.747-3.022,8.713-4.545,14.864-4.545c5.634,0,10.495,1.372,14.571,4.104
		c4.09,2.741,6.132,6.333,6.132,10.836L2314.523,561.066L2314.523,561.066z M2303.666,561.037v-77.021
		c0-1.658-1.005-3.332-3.013-4.989c-2.009-1.654-4.282-2.49-6.832-2.49c-2.542,0-4.89,0.836-7.022,2.49
		c-2.14,1.657-3.227,3.331-3.227,4.989v77.021c0,1.964,1.12,3.623,3.324,4.993c2.205,1.376,4.521,2.058,6.925,2.058
		c2.55,0,4.823-0.633,6.832-1.912C2302.661,564.907,2303.666,563.192,2303.666,561.037L2303.666,561.037z M2433.672,574.398h-35.963
		V470.658h10.247v95.96h25.716V574.398L2433.672,574.398z M2547.601,561.066c0,4.011-1.945,7.459-5.82,10.395
		c-3.893,2.938-8.844,4.396-14.863,4.396c-5.628,0-10.443-1.363-14.472-4.102c-4.022-2.735-6.032-6.284-6.032-10.688v-77.075
		c0-3.912,1.881-7.356,5.631-10.396c3.748-3.022,8.701-4.545,14.873-4.545c5.619,0,10.48,1.372,14.564,4.104
		c4.076,2.741,6.119,6.333,6.119,10.836V561.066L2547.601,561.066z M2536.757,561.037v-77.021c0-1.658-1.006-3.332-3.017-4.989
		c-2.001-1.654-4.281-2.49-6.823-2.49c-2.555,0-4.892,0.836-7.033,2.49c-2.146,1.657-3.223,3.331-3.223,4.989v77.021
		c0,1.964,1.106,3.623,3.325,4.993c2.201,1.376,4.517,2.058,6.931,2.058c2.542,0,4.822-0.633,6.823-1.912
		C2535.751,564.907,2536.757,563.192,2536.757,561.037L2536.757,561.037z M2537.76,453.057l-15.102,11.254l-5.188-3.479
		l15.666-11.434L2537.76,453.057L2537.76,453.057z M2671.779,574.398h-20.488c-5.621,0-10.314-1.231-14.064-3.678
		c-4.289-2.731-6.427-6.396-6.427-10.999v-74.23c0-4.117,1.605-7.488,4.819-10.127c3.75-3.127,8.977-4.704,15.672-4.704h20.488
		v14.831h-10.645v-7.338h-9.846c-2.414,0-4.721,0.763-6.932,2.271c-2.209,1.517-3.316,3.207-3.316,5.067v74.084
		c0,1.857,1.175,3.5,3.52,4.911c2.34,1.429,4.85,2.134,7.533,2.134h9.042v-32.714h-5.836v-7.489h16.479L2671.779,574.398
		L2671.779,574.398z M2767.632,574.398h-10.243V470.658h10.243V574.398L2767.632,574.398z M2894.219,561.037
		c0,3.721-1.977,7.124-5.898,10.21c-3.942,3.073-8.842,4.607-14.695,4.607c-5.327,0-9.911-1.215-13.8-3.656
		c-4.379-2.74-6.593-6.437-6.593-11.134v-75.608c0-4.1,1.605-7.455,4.821-10.094c3.755-3.127,8.975-4.704,15.668-4.704h20.497
		v14.831h-10.646v-7.338h-9.853c-2.273,0-4.555,0.727-6.826,2.195c-2.279,1.469-3.414,3.177-3.414,5.143v75.548
		c0,1.867,1.035,3.498,3.109,4.915c2.074,1.42,4.455,2.136,7.133,2.136c2.548,0,4.82-0.633,6.832-1.912
		c2.01-1.269,3.019-2.983,3.019-5.139v-3.958h10.646V561.037L2894.219,561.037z M3013.367,574.398h-10.844v-40.492h-20.092v40.491
		h-10.242v-90.382c0-4.006,1.838-7.506,5.527-10.492c3.676-2.979,8.663-4.474,14.963-4.474c5.627,0,10.48,1.349,14.566,4.038
		c4.084,2.69,6.117,6.332,6.117,10.928v90.382L3013.367,574.398L3013.367,574.398z M3002.523,526.415v-42.379
		c0-1.466-1.008-3.072-3.01-4.861c-2.013-1.757-4.292-2.641-6.834-2.641c-2.545,0-4.893,0.884-7.029,2.641
		c-2.143,1.789-3.219,3.396-3.219,4.861v42.379H3002.523z"/>
	<g>
		<path fill="#EE7D00" d="M728.353,373.448l13.318-47.298l2.288,0.318c2.821,17.832,11.631,32.409,26.415,43.722
			c14.739,11.305,32.354,16.966,52.86,16.966c19.129,0,34.895-4.953,47.296-14.896c12.452-9.902,18.654-22.244,18.654-37.029
			c0-8.054-1.905-14.896-5.659-20.447c-3.761-5.604-9.517-10.162-17.243-13.808c-6.521-2.936-17.391-5.438-32.778-7.399
			c-15.342-1.952-26.429-3.748-33.337-5.33c-20.22-4.23-35.225-10.928-45.182-19.997c-9.943-9.093-14.897-20.671-14.897-34.8
			c0-17.734,8.654-32.573,25.994-44.593c17.283-12.005,39.522-17.994,66.601-17.994c14.414,0,28.054,1.359,40.784,4.134
			c12.716,2.712,25.823,7.12,39.195,13.154l-12.126,38.819l-2.871-0.321c-2.672-15.271-9.744-27.24-21.211-35.771
			c-11.467-8.542-26.148-12.833-44.098-12.833c-17.605,0-32.24,4.398-43.819,13.208c-11.634,8.812-17.455,19.785-17.455,32.847
			c0,6.793,1.795,12.828,5.329,18.147c3.537,5.329,8.646,9.459,15.226,12.396c9.021,4.299,25.166,8.058,48.447,11.313
			c9.842,1.421,17.457,2.553,22.779,3.537c19.842,3.373,34.575,9.4,44.206,17.995c9.621,8.602,14.404,19.951,14.404,34.096
			c0,20.873-9.133,38.329-27.399,52.194c-18.274,13.917-41.751,20.877-70.414,20.877c-18.372,0-35.771-1.854-52.195-5.491
			C755.052,385.463,740.696,380.247,728.353,373.448L728.353,373.448z M980.844,301.631c0,26.529,5.495,47.084,16.527,61.65
			c11.046,14.617,26.538,21.901,46.489,21.901c19.959,0,35.348-7.169,46.113-21.572c10.766-14.356,16.146-34.913,16.146-61.661
			c0-26.257-5.498-46.596-16.473-61.063c-10.993-14.511-26.315-21.748-46.062-21.748c-19.795,0-35.172,7.237-46.218,21.748
			C986.341,255.356,980.844,275.636,980.844,301.631L980.844,301.631z M950.512,301.299c0-25.663,8.694-46.657,26.045-62.962
			c17.397-16.261,39.791-24.41,67.306-24.41c27.512,0,49.854,8.209,66.935,24.678c17.127,16.426,25.659,37.899,25.659,64.271
			c0,26.646-8.532,48.171-25.659,64.594c-17.079,16.361-39.8,24.575-68.017,24.575c-27.302,0-49.53-8.366-66.609-25.165
			C959.043,350.126,950.512,328.267,950.512,301.299L950.512,301.299z M1154.724,389.106v-2.606
			c7.998-2.336,13.428-6.955,16.422-13.922c2.994-7.014,4.465-22.023,4.465-45.18v-13.594v-43.113
			c0-17.621-1.256-28.333-3.752-32.146c-2.51-3.804-7.352-5.802-14.521-6.024l-0.161-2.608c5.76-1.255,12.018-2.831,18.699-4.62
			c6.688-1.797,14.357-4.024,22.841-6.806l-0.606,49.479c7.136-16.306,15.717-28.757,25.778-37.287
			c10.118-8.54,21.306-12.841,33.604-12.841c1.68,0,3.039,0,3.969,0.06c0.977,0.051,1.797,0.163,2.551,0.271l-12.449,35.889h-1.576
			c-2.116-2.771-4.513-4.837-7.169-6.151c-2.677-1.354-5.659-2.003-8.925-2.003c-10.764,0-18.976,4.996-24.627,14.996
			c-5.709,10.01-8.537,24.478-8.537,43.558v18.982c0,25.769,1.417,42.13,4.299,49.037c2.877,6.905,8.422,11.584,16.576,14.025
			l-0.163,2.606c-5.701-0.327-11.36-0.599-16.963-0.764c-5.55-0.155-11.034-0.213-16.474-0.213c-4.568,0-9.631,0.058-15.106,0.213
			C1167.346,388.507,1161.312,388.779,1154.724,389.106L1154.724,389.106z M1270.214,389.106v-2.606
			c7.99-2.336,13.428-6.955,16.423-13.922c2.986-7.014,4.461-22.023,4.461-45.18v-13.594v-43.113
			c0-17.621-1.263-28.333-3.755-32.146c-2.502-3.804-7.344-5.802-14.521-6.024l-0.16-2.608c5.765-1.255,12.021-2.831,18.707-4.62
			c6.685-1.797,14.347-4.024,22.83-6.806l-0.591,49.479c7.12-16.306,15.708-28.757,25.773-37.287
			c10.104-8.54,21.313-12.841,33.599-12.841c1.674,0,3.037,0,3.971,0.06c0.975,0.051,1.789,0.163,2.55,0.271l-12.458,35.889h-1.568
			c-2.119-2.771-4.521-4.837-7.178-6.151c-2.664-1.354-5.658-2.003-8.912-2.003c-10.771,0-18.978,4.996-24.636,14.996
			c-5.71,10.01-8.532,24.478-8.532,43.558v18.982c0,25.769,1.41,42.13,4.297,49.037c2.873,6.905,8.421,11.584,16.582,14.025
			l-0.162,2.606c-5.702-0.327-11.362-0.599-16.977-0.764c-5.535-0.155-11.023-0.213-16.465-0.213c-4.563,0-9.621,0.058-15.117,0.213
			C1282.833,388.507,1276.793,388.779,1270.214,389.106L1270.214,389.106z M1386.679,389.106v-2.606
			c8.104-2.441,13.646-7.499,16.635-15.225c3.045-7.778,4.568-23.707,4.568-47.954v-25.39v-34.255
			c0-12.781-1.256-20.935-3.746-24.584c-2.5-3.645-7.236-5.596-14.192-5.925l-0.165-2.605c5.924-0.757,12.291-2.012,19.083-3.915
			c6.8-1.843,15.175-4.568,25.064-8.16c-0.326,8.761-0.542,17.521-0.703,26.313c-0.164,8.76-0.214,17.515-0.214,26.269v20.063
			v24.464c0,28.884,1.457,47.255,4.453,55.305c2.994,7.985,8.696,13.158,17.07,15.602v2.606c-4.463-0.327-9.188-0.599-14.193-0.764
			c-5.002-0.155-11.791-0.213-20.393-0.213c-6.572,0-12.451,0.058-17.554,0.213C1397.228,388.507,1392.01,388.779,1386.679,389.106
			L1386.679,389.106z M1403.642,178.366c0-4.455,1.47-8.213,4.348-11.199c2.938-2.995,6.578-4.461,11.09-4.461
			c4.355,0,8.059,1.524,11.046,4.561c2.983,3.051,4.511,6.744,4.511,11.102c0,4.355-1.526,7.998-4.511,10.923
			c-2.987,2.946-6.688,4.407-11.046,4.407c-4.674,0-8.421-1.412-11.252-4.233C1405.052,186.624,1403.642,182.935,1403.642,178.366
			L1403.642,178.366z M1465.025,389.106v-2.606c7.998-2.336,13.432-6.955,16.426-13.922c2.994-7.014,4.453-22.023,4.453-45.18
			v-13.594v-43.113c0-17.621-1.246-28.333-3.748-32.146c-2.501-3.804-7.342-5.802-14.51-6.024l-0.166-2.608
			c5.757-1.255,12.008-2.831,18.7-4.62c6.687-1.797,14.355-4.024,22.839-6.806l-0.607,49.479
			c7.127-16.306,15.716-28.757,25.783-37.287c10.104-8.54,21.3-12.841,33.598-12.841c1.684,0,3.046,0,3.971,0.06
			c0.977,0.051,1.797,0.163,2.551,0.271l-12.451,35.889h-1.574c-2.125-2.771-4.511-4.837-7.176-6.151
			c-2.665-1.354-5.66-2.003-8.922-2.003c-10.761,0-18.973,4.996-24.634,14.996c-5.708,10.01-8.525,24.478-8.525,43.558v18.982
			c0,25.769,1.409,42.13,4.296,49.037c2.878,6.905,8.42,11.584,16.579,14.025l-0.165,2.606c-5.706-0.327-11.359-0.599-16.965-0.764
			c-5.545-0.155-11.033-0.213-16.472-0.213c-4.572,0-9.628,0.058-15.118,0.213C1477.651,388.507,1471.605,388.779,1465.025,389.106
			L1465.025,389.106z M1771.687,272.377c11.795-5.938,20.488-12.681,25.983-20.121c5.545-7.506,8.313-16.251,8.313-26.26
			c0-9.517-2.721-17.455-8.149-23.822c-5.39-6.299-12.123-9.457-20.228-9.457c-8.535,0-15.498,2.716-20.879,8.213
			c-5.438,5.495-8.162,12.451-8.162,20.936c0,7.773,1.856,15.655,5.498,23.646C1757.765,253.56,1763.636,262.536,1771.687,272.377
			L1771.687,272.377z M1753.853,287.431c-9.033,5.604-15.768,11.802-20.172,18.547c-4.408,6.687-6.638,14.189-6.638,22.51
			c0,14.403,5.71,26.913,17.179,37.519c11.473,10.599,24.961,15.927,40.453,15.927c9.459,0,17.943-1.567,25.496-4.669
			c7.506-3.157,14.354-7.998,20.559-14.585c-15.004-12.282-28.875-24.675-41.646-37.126
			C1776.302,313.038,1764.556,300.367,1753.853,287.431L1753.853,287.431z M1908.861,388.779h-0.926
			c-14.248-0.437-24.847-0.647-31.752-0.647h-11.797l-26.479-19.577c-10.771,8.596-21.697,14.902-32.891,18.979
			c-11.207,4.075-23.168,6.146-35.891,6.146c-20.666,0-37.844-5.006-51.385-15.061c-13.596-10.011-20.389-22.404-20.389-37.138
			c0-12.503,4.293-23.765,12.939-33.66c8.645-9.948,21.531-18.379,38.609-25.385c-6.59-9.795-11.43-18.539-14.576-26.323
			c-3.102-7.72-4.676-14.955-4.676-21.64c0-13.692,5.053-25.226,15.225-34.575c10.104-9.354,22.887-14.027,38.219-14.027
			c12.346,0,22.789,3.748,31.43,11.253c8.649,7.448,12.996,16.47,12.996,26.974c0,10.104-4.299,19.62-12.886,28.547
			c-8.597,8.906-21.371,17.225-38.335,25.002c7.336,8.479,16.587,18.052,27.68,28.65c11.149,10.656,25.065,23.107,41.703,37.466
			c3.207-5.332,5.545-10.271,7.016-14.898c1.468-4.625,2.225-9.079,2.225-13.429c0-9.139-2.773-16.481-8.369-22.076
			c-5.553-5.543-13.102-8.536-22.672-8.972v-2.281l55.835,0.163c-0.975,13.372-3.584,25.823-7.831,37.407
			c-4.29,11.583-10.059,21.805-17.287,30.612c8.76,6.956,17.565,13.426,26.479,19.356c8.967,5.924,18.215,11.414,27.782,16.522
			v2.611H1908.861z M2021.08,373.448l13.322-47.298l2.287,0.318c2.822,17.832,11.635,32.409,26.422,43.722
			c14.73,11.305,32.354,16.966,52.854,16.966c19.13,0,34.903-4.953,47.299-14.896c12.45-9.902,18.651-22.244,18.651-37.029
			c0-8.054-1.901-14.896-5.659-20.447c-3.748-5.604-9.517-10.162-17.234-13.808c-6.528-2.936-17.399-5.438-32.789-7.399
			c-15.33-1.952-26.42-3.748-33.325-5.33c-20.229-4.23-35.232-10.928-45.185-19.997c-9.949-9.093-14.896-20.671-14.896-34.8
			c0-17.734,8.646-32.573,25.988-44.593c17.293-12.005,39.531-17.994,66.606-17.994c14.405,0,28.056,1.359,40.777,4.134
			c12.724,2.712,25.821,7.12,39.202,13.154l-12.123,38.819l-2.881-0.321c-2.666-15.271-9.737-27.24-21.205-35.771
			c-11.479-8.542-26.159-12.833-44.101-12.833c-17.611,0-32.238,4.398-43.82,13.208c-11.637,8.812-17.457,19.785-17.457,32.847
			c0,6.793,1.798,12.828,5.328,18.147c3.533,5.329,8.653,9.459,15.221,12.396c9.033,4.299,25.175,8.058,48.447,11.313
			c9.844,1.421,17.455,2.553,22.778,3.537c19.845,3.373,34.586,9.4,44.208,17.995c9.623,8.602,14.415,19.951,14.415,34.096
			c0,20.873-9.141,38.329-27.407,52.194c-18.272,13.917-41.756,20.877-70.408,20.877c-18.384,0-35.778-1.854-52.2-5.491
			C2047.781,385.463,2033.427,380.247,2021.08,373.448L2021.08,373.448z M2421.031,388.779h-0.979
			c-11.577-0.437-19.952-0.647-25.112-0.647h-8.761c-2.764-4.896-5.104-9.949-7.065-15.118c-1.957-5.219-3.532-10.599-4.731-16.257
			c-6.354,11.629-15.059,20.508-26.092,26.536c-11.098,6.035-24.087,9.081-39.097,9.081c-20.497,0-36.698-4.841-48.659-14.52
			c-11.971-9.624-17.938-22.676-17.938-38.982c0-18.158,10.541-31.977,31.696-41.376c21.146-9.406,52.136-14.084,92.974-14.084
			l8.104-0.163c-0.553-21.747-5.17-37.732-13.874-48.015c-8.69-10.268-22.013-15.436-40.013-15.436
			c-16.529,0-29.956,3.806-40.128,11.357c-10.212,7.565-16.577,18.494-19.134,32.684h-1.742l-10.059-33.229
			c10.605-5.704,22.074-10.001,34.309-12.834c12.281-2.771,25.336-4.185,39.141-4.185c13.604,0,25.678,1.74,36.221,5.279
			c10.604,3.476,19.024,8.479,25.396,14.951c5.32,5.492,9.07,12.071,11.3,19.784c2.236,7.671,3.373,20.229,3.373,37.577v23.483
			c0,26.974,1.527,45.184,4.512,54.649c3.045,9.399,8.487,15.167,16.364,17.177L2421.031,388.779L2421.031,388.779z
			 M2375.367,290.261c-1.578-0.115-3.371-0.214-5.332-0.271c-1.955-0.059-4.898-0.059-8.695-0.059
			c-28.441,0-50.405,4.463-65.905,13.324c-15.446,8.856-23.162,21.476-23.162,37.895c0,12.726,4.132,22.948,12.454,30.616
			c8.267,7.663,19.249,11.466,32.948,11.466c17.95,0,32.081-5.709,42.303-17.125c10.281-11.467,15.39-27.236,15.39-47.462v-17.729
			V290.261L2375.367,290.261z M2579.635,357.033c-6.146,12.122-14.403,21.099-24.846,26.913
			c-10.385,5.813-23.213,8.753-38.498,8.753c-14.246,0-26.315-2.123-36.269-6.316c-9.896-4.231-17.877-10.647-23.975-19.242
			c-3.809-5.382-6.53-11.903-8.105-19.515c-1.573-7.614-2.386-19.846-2.386-36.7v-8.867v-36.807c0-13.482-1.258-22.076-3.76-25.832
			c-2.44-3.751-7.176-5.811-14.188-6.252v-2.605c6.034-0.757,12.613-2.067,19.795-4.021c7.125-2.019,15.33-4.676,24.518-8.058
			c-0.378,9.194-0.706,18.11-0.925,26.808c-0.216,8.647-0.32,16.868-0.32,24.691v26.199c0,36.044,3.856,59.76,11.524,71.231
			c7.721,11.41,21.149,17.129,40.233,17.129c20.229,0,34.96-6.646,44.263-19.852c9.294-13.204,13.915-34.205,13.915-62.966v-27.187
			c0-18.646-1.25-30.07-3.692-34.352c-2.452-4.251-7.293-6.582-14.577-7.023l-0.164-2.605c7.13-1.142,14.354-2.773,21.594-4.784
			c7.283-2.012,14.836-4.402,22.555-7.292c-0.376,8.646-0.706,17.293-0.926,25.83c-0.215,8.537-0.317,17.127-0.317,25.669V301.4
			c0,35.289,1.468,57.86,4.459,67.753c2.987,9.896,8.427,15.651,16.414,17.344v2.278c-0.868,0-2.174-0.048-3.969-0.163
			c-10.714-0.325-18.324-0.483-22.779-0.483h-8.261c-2.444-4.732-4.628-9.62-6.528-14.684
			C2582.513,368.383,2580.939,362.956,2579.635,357.033L2579.635,357.033z M2516.947,195.978h-7.772l38.485-48.499
			c2.457-3.101,4.523-5.217,6.201-6.412c1.742-1.249,3.432-1.849,5.107-1.849c2.445,0,4.57,0.863,6.314,2.602
			c1.734,1.749,2.611,3.759,2.611,5.989c0,1.575-0.5,3.101-1.418,4.513c-0.977,1.477-2.984,3.476-6.09,6.134L2516.947,195.978
			L2516.947,195.978z M2739.323,221.421c-19.407,0-34.747,7.188-45.942,21.59c-11.205,14.354-16.799,34.032-16.799,58.938
			c0,26.418,5.436,46.921,16.305,61.44c10.877,14.509,26.157,21.793,45.781,21.793c19.029,0,33.6-7.054,43.713-21.146
			c10.173-14.123,15.223-34.52,15.223-61.111c0-26.096-5.05-46.217-15.117-60.35
			C2772.382,228.493,2758.023,221.421,2739.323,221.421L2739.323,221.421z M2797.603,210.117v-3.371
			c0-18.923-1.244-30.507-3.748-34.796c-2.502-4.35-7.344-6.639-14.521-6.964v-2.61c8-1.129,15.61-2.771,22.946-4.771
			c7.338-2.021,14.352-4.415,21.038-7.293c-0.38,7.661-0.697,15.271-0.919,22.778c-0.211,7.564-0.328,16.472-0.328,26.81v9.894
			v104.552c0,27.628,1.471,46.107,4.453,55.403c2.995,9.35,8.326,14.952,16.104,16.748v2.278c-3.701-0.21-7.558-0.378-11.522-0.488
			c-4.03-0.103-9.411-0.158-16.212-0.158h-7.118c-2.668-4.354-4.949-8.813-6.91-13.379c-1.956-4.617-3.583-9.304-4.841-14.074
			c-7.666,10.435-16.795,18.322-27.404,23.646c-10.648,5.383-22.507,8.051-35.55,8.051c-24.741,0-45.347-8.271-61.827-24.846
			c-16.471-16.529-24.684-37.63-24.684-63.181c0-25.281,8.436-46.651,25.232-64.154c16.848-17.508,37.733-26.267,62.581-26.267
			c14.185,0,26.854,3.205,38.005,9.621c11.09,6.414,19.517,15.445,25.221,27.028v-40.458H2797.603z M3027.648,317.988l4.947,6.531
			c-6.629,22.506-17.07,39.521-31.313,51.002c-14.307,11.472-32.301,17.18-53.935,17.18c-26.263,0-47.739-8.434-64.54-25.342
			c-16.809-16.854-25.185-38.444-25.185-64.76c0-25.987,8.269-47.296,24.854-63.826c16.578-16.58,38.005-24.847,64.213-24.847
			c23.159,0,42.08,5.986,56.814,17.994c14.682,12.013,23.271,28.385,25.714,49.202h-140.596c-0.223,3.215-0.387,6.309-0.493,9.302
			c-0.104,3.045-0.161,6.695-0.161,10.928c0,25.066,6.094,44.968,18.323,59.76c12.18,14.732,28.488,22.121,48.881,22.121
			c17.614,0,32.566-5.542,44.855-16.587C3012.259,355.556,3021.505,339.363,3027.648,317.988L3027.648,317.988z M2889.709,274.281
			h107.549c-0.646-16.703-5.488-29.907-14.576-39.754c-9.073-9.84-20.926-14.729-35.609-14.729c-14.73,0-27.137,4.727-37.135,14.19
			C2899.986,243.448,2893.244,256.876,2889.709,274.281z"/>
		<path fill="#EE7D00" d="M2943.488,392.632v-10.275c3.729,0.582,7.628,0.876,11.688,0.876c17.614,0,32.566-5.542,44.855-16.587
			c12.229-11.09,21.475-27.283,27.617-48.658l4.947,6.531c-6.629,22.506-17.07,39.521-31.313,51.002
			c-14.307,11.472-32.301,17.18-53.935,17.18C2946.044,392.699,2944.759,392.675,2943.488,392.632L2943.488,392.632z
			 M2943.488,281.123v-6.842h53.77c-0.646-16.703-5.488-29.907-14.576-39.755c-9.073-9.839-20.926-14.729-35.609-14.729
			c-1.217,0-2.4,0.034-3.582,0.099v-5.932c1.058-0.024,2.121-0.039,3.205-0.039c23.158,0,42.08,5.986,56.813,17.994
			c14.682,12.013,23.271,28.385,25.715,49.202L2943.488,281.123L2943.488,281.123z M2943.488,213.965v5.932
			c-13.176,0.706-24.371,5.413-33.551,14.094c-9.951,9.459-16.693,22.888-20.229,40.292h53.779v6.842h-54.862
			c-0.222,3.215-0.386,6.309-0.493,9.302c-0.104,3.045-0.161,6.695-0.161,10.928c0,25.066,6.095,44.968,18.323,59.76
			c9.754,11.805,22.164,18.891,37.193,21.245v10.275c-24.521-0.783-44.72-9.204-60.678-25.272
			c-16.811-16.854-25.187-38.445-25.187-64.761c0-25.987,8.271-47.296,24.854-63.826
			C2898.38,222.866,2918.738,214.614,2943.488,213.965L2943.488,213.965z M2737.093,392.289v-7.118l1.574,0.015
			c19.029,0,33.599-7.054,43.713-21.146c10.173-14.123,15.223-34.52,15.223-61.11c0-26.097-5.05-46.218-15.116-60.351
			c-10.104-14.084-24.463-21.155-43.164-21.155c-0.752,0-1.489,0.02-2.229,0.032v-7.488c13.092,0.384,24.865,3.578,35.289,9.582
			c11.09,6.414,19.515,15.445,25.221,27.028v-40.459v-3.371c0-18.923-1.244-30.507-3.747-34.796
			c-2.503-4.35-7.343-6.639-14.52-6.964v-2.61c8-1.129,15.61-2.771,22.946-4.771c7.338-2.021,14.352-4.415,21.037-7.293
			c-0.379,7.661-0.696,15.271-0.918,22.778c-0.211,7.564-0.328,16.472-0.328,26.81v9.894v104.551
			c0,27.628,1.471,46.107,4.453,55.403c2.993,9.35,8.326,14.952,16.104,16.748v2.278c-3.701-0.21-7.559-0.378-11.523-0.488
			c-4.029-0.103-9.41-0.158-16.211-0.158h-7.118c-2.668-4.354-4.949-8.813-6.91-13.379c-1.956-4.617-3.583-9.304-4.841-14.074
			c-7.666,10.435-16.795,18.322-27.404,23.646C2759.074,389.147,2748.566,391.789,2737.093,392.289z M2737.093,213.965v7.488
			c-18.355,0.542-32.944,7.711-43.713,21.558c-11.205,14.354-16.799,34.032-16.799,58.938c0,26.418,5.437,46.921,16.305,61.44
			c10.584,14.126,25.336,21.397,44.207,21.778v7.118c-1.33,0.052-2.666,0.083-4.021,0.083c-24.741,0-45.348-8.271-61.827-24.846
			c-16.471-16.529-24.685-37.63-24.685-63.182c0-25.28,8.437-46.649,25.233-64.153c16.847-17.508,37.731-26.267,62.581-26.267
			C2735.289,213.926,2736.189,213.941,2737.093,213.965L2737.093,213.965z M2323.818,391.313v-8.307
			c15.054-1.187,27.133-6.812,36.157-16.898c10.281-11.467,15.392-27.236,15.392-47.462v-17.729v-10.655
			c-1.578-0.115-3.371-0.214-5.332-0.271c-1.955-0.059-4.898-0.059-8.695-0.059c-14.102,0-26.604,1.102-37.521,3.282v-7.646
			c12.974-1.444,27.453-2.156,43.445-2.156l8.104-0.163c-0.554-21.747-5.17-37.732-13.873-48.015
			c-8.315-9.825-20.858-14.979-37.677-15.412v-6.227h0.05c13.604,0,25.677,1.739,36.22,5.278
			c10.604,3.476,19.025,8.479,25.396,14.951c5.319,5.492,9.069,12.071,11.301,19.784c2.234,7.671,3.373,20.229,3.373,37.577v23.483
			c0,26.974,1.525,45.184,4.511,54.65c3.046,9.398,8.487,15.167,16.364,17.176v2.278h-0.979
			c-11.577-0.436-19.952-0.646-25.112-0.646h-8.761c-2.764-4.896-5.104-9.949-7.065-15.119c-1.957-5.218-3.532-10.598-4.731-16.256
			c-6.354,11.629-15.06,20.507-26.092,26.536C2340.97,387.271,2332.824,389.95,2323.818,391.313L2323.818,391.313z
			 M2579.635,357.033c-6.146,12.122-14.403,21.099-24.846,26.913c-10.385,5.813-23.213,8.753-38.498,8.753
			c-14.246,0-26.315-2.123-36.269-6.316c-9.896-4.231-17.877-10.647-23.975-19.242c-3.809-5.382-6.53-11.903-8.105-19.515
			c-1.573-7.614-2.386-19.846-2.386-36.7v-8.867v-36.807c0-13.482-1.258-22.076-3.76-25.832c-2.44-3.751-7.176-5.811-14.188-6.252
			v-2.605c6.034-0.757,12.613-2.067,19.795-4.021c7.125-2.019,15.33-4.676,24.518-8.058c-0.378,9.194-0.706,18.11-0.925,26.808
			c-0.216,8.647-0.32,16.868-0.32,24.691v26.199c0,36.044,3.856,59.76,11.524,71.231c7.721,11.41,21.149,17.129,40.233,17.129
			c20.229,0,34.96-6.646,44.263-19.852c9.294-13.204,13.915-34.205,13.915-62.966v-27.187c0-18.646-1.25-30.07-3.692-34.352
			c-2.452-4.251-7.293-6.582-14.577-7.023l-0.164-2.605c7.13-1.142,14.354-2.773,21.594-4.784
			c7.283-2.012,14.836-4.402,22.555-7.292c-0.376,8.646-0.706,17.293-0.926,25.83c-0.215,8.537-0.317,17.127-0.317,25.669V301.4
			c0,35.289,1.468,57.86,4.459,67.753c2.987,9.896,8.427,15.651,16.414,17.344v2.278c-0.868,0-2.174-0.048-3.969-0.163
			c-10.714-0.325-18.324-0.483-22.779-0.483h-8.261c-2.444-4.732-4.628-9.62-6.528-14.684
			C2582.513,368.383,2580.939,362.956,2579.635,357.033L2579.635,357.033z M2516.947,195.978h-7.772l38.485-48.499
			c2.457-3.101,4.523-5.217,6.201-6.412c1.742-1.249,3.432-1.849,5.107-1.849c2.445,0,4.57,0.863,6.314,2.602
			c1.734,1.749,2.611,3.759,2.611,5.989c0,1.575-0.5,3.101-1.418,4.513c-0.977,1.477-2.984,3.476-6.09,6.134L2516.947,195.978z
			 M2323.818,213.595v6.227c-0.771-0.014-1.55-0.021-2.338-0.021c-16.529,0-29.957,3.806-40.129,11.357
			c-10.211,7.565-16.576,18.494-19.133,32.684h-1.742l-10.059-33.228c10.605-5.705,22.074-10.001,34.309-12.834
			C2296.996,215.015,2310.031,213.605,2323.818,213.595L2323.818,213.595z M2323.818,285.568v7.646
			c-11.109,2.231-20.564,5.576-28.386,10.042c-15.444,8.856-23.162,21.476-23.162,37.895c0,12.726,4.134,22.948,12.454,30.616
			c8.266,7.663,19.249,11.466,32.948,11.466c2.101,0,4.147-0.084,6.146-0.227v8.307c-4.643,0.705-9.518,1.061-14.627,1.061
			c-20.496,0-36.697-4.841-48.658-14.52c-11.971-9.624-17.939-22.676-17.939-38.982c0-18.158,10.54-31.977,31.697-41.376
			C2287.156,291.772,2303.666,287.798,2323.818,285.568L2323.818,285.568z M1777.281,393.392V381.51
			c2.41,0.278,4.88,0.421,7.396,0.421c9.459,0,17.943-1.567,25.496-4.669c7.506-3.157,14.354-7.998,20.558-14.586
			c-15.004-12.281-28.875-24.674-41.646-37.126c-4.037-3.953-7.976-7.926-11.806-11.909v-34.873
			c7.176,8.206,16.096,17.396,26.701,27.529c11.148,10.656,25.064,23.107,41.703,37.466c3.207-5.332,5.545-10.271,7.015-14.898
			c1.468-4.625,2.225-9.079,2.225-13.429c0-9.139-2.774-16.481-8.369-22.076c-5.553-5.543-13.102-8.536-22.672-8.972v-2.281
			l55.835,0.163c-0.975,13.372-3.584,25.823-7.831,37.407c-4.29,11.583-10.059,21.805-17.287,30.612
			c8.759,6.956,17.565,13.426,26.479,19.356c8.967,5.924,18.215,11.414,27.783,16.522v2.605h-0.928
			c-14.248-0.436-24.845-0.646-31.752-0.646h-11.795l-26.479-19.578c-10.771,8.597-21.697,14.903-32.893,18.979
			C1796.234,390.732,1786.99,392.685,1777.281,393.392L1777.281,393.392z M1777.281,277.2v-7.831
			c8.99-5.18,15.81-10.904,20.392-17.112c5.545-7.506,8.315-16.251,8.315-26.26c0-9.517-2.721-17.455-8.151-23.822
			c-5.39-6.299-12.123-9.456-20.226-9.456l-0.33,0.012V186.1c1.893-0.146,3.837-0.229,5.816-0.229
			c12.346,0,22.787,3.748,31.43,11.253c8.647,7.448,12.996,16.471,12.996,26.974c0,10.104-4.299,19.621-12.887,28.547
			C1806.212,261.389,1793.758,269.55,1777.281,277.2L1777.281,277.2z M2021.08,373.448l13.322-47.298l2.287,0.318
			c2.822,17.832,11.635,32.409,26.422,43.722c14.73,11.305,32.354,16.966,52.854,16.966c19.13,0,34.903-4.953,47.299-14.896
			c12.45-9.902,18.651-22.244,18.651-37.029c0-8.054-1.901-14.896-5.659-20.447c-3.748-5.604-9.517-10.162-17.234-13.808
			c-6.528-2.936-17.399-5.438-32.789-7.399c-15.33-1.952-26.42-3.748-33.325-5.33c-20.229-4.23-35.232-10.928-45.185-19.997
			c-9.949-9.093-14.896-20.671-14.896-34.8c0-17.734,8.646-32.573,25.988-44.593c17.293-12.005,39.531-17.994,66.606-17.994
			c14.405,0,28.056,1.359,40.777,4.134c12.724,2.712,25.821,7.12,39.202,13.154l-12.123,38.819l-2.881-0.321
			c-2.666-15.271-9.737-27.24-21.205-35.771c-11.479-8.542-26.159-12.833-44.101-12.833c-17.611,0-32.238,4.398-43.82,13.208
			c-11.637,8.812-17.457,19.785-17.457,32.847c0,6.793,1.798,12.828,5.328,18.147c3.533,5.329,8.653,9.459,15.221,12.396
			c9.033,4.299,25.175,8.058,48.447,11.313c9.844,1.421,17.455,2.553,22.778,3.537c19.845,3.373,34.586,9.4,44.208,17.995
			c9.623,8.602,14.415,19.951,14.415,34.096c0,20.873-9.141,38.329-27.407,52.194c-18.272,13.917-41.756,20.877-70.408,20.877
			c-18.384,0-35.778-1.854-52.2-5.491C2047.781,385.463,2033.427,380.247,2021.08,373.448z M1777.281,186.1v6.631
			c-8.383,0.063-15.239,2.78-20.549,8.201c-5.438,5.496-8.162,12.451-8.162,20.936c0,7.773,1.854,15.655,5.496,23.646
			c3.699,8.046,9.569,17.021,17.621,26.863c1.951-0.983,3.813-1.984,5.594-3.009v7.831l-0.979,0.445l0.979,1.121v34.873
			c-8.293-8.634-16.104-17.358-23.428-26.21c-9.033,5.604-15.768,11.802-20.172,18.547c-4.408,6.687-6.638,14.189-6.638,22.51
			c0,14.403,5.71,26.913,17.179,37.519c9.611,8.879,20.631,14.054,33.059,15.507v11.881c-2.684,0.186-5.398,0.286-8.152,0.286
			c-20.666,0-37.844-5.006-51.385-15.061c-13.595-10.01-20.389-22.404-20.389-37.138c0-12.503,4.295-23.765,12.939-33.66
			c8.646-9.948,21.531-18.378,38.607-25.385c-6.59-9.795-11.428-18.539-14.574-26.323c-3.102-7.72-4.675-14.955-4.675-21.64
			c0-13.692,5.052-25.226,15.224-34.575C1753.677,191.751,1764.508,187.157,1777.281,186.1L1777.281,186.1z M1043.486,392.042
			v-6.857h0.377c19.959,0,35.348-7.169,46.113-21.572c10.766-14.356,16.146-34.913,16.146-61.661
			c0-26.257-5.498-46.596-16.473-61.063c-10.993-14.511-26.315-21.748-46.062-21.748h-0.104v-5.213h0.377
			c27.513,0,49.854,8.209,66.936,24.678c17.127,16.426,25.659,37.899,25.659,64.271c0,26.646-8.532,48.171-25.659,64.594
			C1093.867,383.696,1071.375,391.905,1043.486,392.042L1043.486,392.042z M1154.724,389.106v-2.606
			c7.998-2.336,13.428-6.955,16.422-13.922c2.994-7.014,4.465-22.023,4.465-45.18v-13.594v-43.113
			c0-17.621-1.256-28.333-3.752-32.146c-2.51-3.804-7.352-5.802-14.521-6.024l-0.161-2.608c5.76-1.255,12.018-2.831,18.699-4.62
			c6.688-1.797,14.357-4.024,22.841-6.806l-0.606,49.479c7.136-16.306,15.717-28.757,25.778-37.287
			c10.118-8.54,21.306-12.841,33.604-12.841c1.68,0,3.039,0,3.969,0.06c0.977,0.051,1.797,0.163,2.551,0.271l-12.449,35.889h-1.576
			c-2.116-2.771-4.513-4.837-7.169-6.151c-2.677-1.354-5.659-2.003-8.925-2.003c-10.764,0-18.976,4.996-24.627,14.996
			c-5.709,10.01-8.537,24.478-8.537,43.558v18.982c0,25.769,1.417,42.13,4.299,49.037c2.877,6.905,8.422,11.584,16.576,14.025
			l-0.163,2.606c-5.701-0.327-11.36-0.599-16.963-0.764c-5.55-0.155-11.034-0.213-16.474-0.213c-4.568,0-9.631,0.058-15.106,0.213
			C1167.346,388.507,1161.312,388.779,1154.724,389.106L1154.724,389.106z M1270.214,389.106v-2.606
			c7.99-2.336,13.428-6.955,16.423-13.922c2.986-7.014,4.461-22.023,4.461-45.18v-13.594v-43.113
			c0-17.621-1.263-28.333-3.755-32.146c-2.502-3.804-7.344-5.802-14.521-6.024l-0.16-2.608c5.765-1.255,12.021-2.831,18.707-4.62
			c6.685-1.797,14.347-4.024,22.83-6.806l-0.591,49.479c7.12-16.306,15.708-28.757,25.773-37.287
			c10.104-8.54,21.313-12.841,33.599-12.841c1.674,0,3.037,0,3.971,0.06c0.975,0.051,1.789,0.163,2.55,0.271l-12.458,35.889h-1.568
			c-2.119-2.771-4.521-4.837-7.178-6.151c-2.664-1.354-5.658-2.003-8.912-2.003c-10.771,0-18.978,4.996-24.636,14.996
			c-5.71,10.01-8.532,24.478-8.532,43.558v18.982c0,25.769,1.41,42.13,4.297,49.037c2.873,6.905,8.421,11.584,16.582,14.025
			l-0.162,2.606c-5.702-0.327-11.362-0.599-16.977-0.764c-5.535-0.155-11.023-0.213-16.465-0.213c-4.563,0-9.621,0.058-15.117,0.213
			C1282.833,388.507,1276.793,388.779,1270.214,389.106L1270.214,389.106z M1386.679,389.106v-2.606
			c8.104-2.441,13.646-7.499,16.635-15.225c3.045-7.778,4.568-23.707,4.568-47.954v-25.39v-34.255
			c0-12.781-1.256-20.935-3.746-24.584c-2.5-3.645-7.236-5.596-14.192-5.925l-0.165-2.605c5.924-0.757,12.291-2.012,19.083-3.915
			c6.8-1.843,15.175-4.568,25.064-8.16c-0.326,8.761-0.542,17.521-0.703,26.313c-0.164,8.76-0.214,17.515-0.214,26.269v20.063
			v24.464c0,28.884,1.457,47.255,4.453,55.305c2.994,7.985,8.696,13.158,17.07,15.602v2.606c-4.463-0.327-9.188-0.599-14.193-0.764
			c-5.002-0.155-11.791-0.213-20.393-0.213c-6.572,0-12.451,0.058-17.554,0.213C1397.228,388.507,1392.01,388.779,1386.679,389.106
			L1386.679,389.106z M1403.642,178.366c0-4.455,1.47-8.213,4.348-11.199c2.938-2.995,6.578-4.461,11.09-4.461
			c4.355,0,8.059,1.524,11.046,4.561c2.983,3.051,4.511,6.744,4.511,11.102c0,4.355-1.526,7.998-4.511,10.923
			c-2.987,2.946-6.688,4.407-11.046,4.407c-4.674,0-8.421-1.412-11.252-4.233C1405.052,186.624,1403.642,182.935,1403.642,178.366
			L1403.642,178.366z M1465.025,389.106v-2.606c7.998-2.336,13.432-6.955,16.426-13.922c2.994-7.014,4.453-22.023,4.453-45.18
			v-13.594v-43.113c0-17.621-1.246-28.333-3.748-32.146c-2.501-3.804-7.342-5.802-14.51-6.024l-0.166-2.608
			c5.757-1.255,12.008-2.831,18.7-4.62c6.687-1.797,14.355-4.024,22.839-6.806l-0.607,49.479
			c7.127-16.306,15.716-28.757,25.783-37.287c10.104-8.54,21.3-12.841,33.598-12.841c1.684,0,3.046,0,3.971,0.06
			c0.977,0.051,1.797,0.163,2.551,0.271l-12.451,35.889h-1.574c-2.125-2.771-4.511-4.837-7.176-6.151
			c-2.665-1.354-5.66-2.003-8.922-2.003c-10.761,0-18.973,4.996-24.634,14.996c-5.708,10.01-8.525,24.478-8.525,43.558v18.982
			c0,25.769,1.409,42.13,4.296,49.037c2.878,6.905,8.42,11.584,16.579,14.025l-0.165,2.606c-5.706-0.327-11.359-0.599-16.965-0.764
			c-5.545-0.155-11.033-0.213-16.472-0.213c-4.572,0-9.628,0.058-15.118,0.213C1477.651,388.507,1471.605,388.779,1465.025,389.106z
			 M728.353,373.448l13.318-47.298l2.288,0.318c2.821,17.832,11.631,32.409,26.415,43.722c14.739,11.305,32.354,16.966,52.86,16.966
			c19.129,0,34.895-4.953,47.296-14.896c12.452-9.902,18.654-22.244,18.654-37.029c0-8.054-1.905-14.896-5.659-20.447
			c-3.761-5.604-9.517-10.162-17.243-13.808c-6.521-2.936-17.391-5.438-32.778-7.399c-15.342-1.952-26.429-3.748-33.337-5.33
			c-20.22-4.23-35.225-10.928-45.182-19.997c-9.943-9.093-14.897-20.671-14.897-34.8c0-17.734,8.654-32.573,25.994-44.593
			c17.283-12.005,39.522-17.994,66.601-17.994c14.414,0,28.054,1.359,40.784,4.134c12.716,2.712,25.823,7.12,39.195,13.154
			l-12.126,38.819l-2.871-0.321c-2.672-15.271-9.744-27.24-21.211-35.771c-11.467-8.542-26.148-12.833-44.098-12.833
			c-17.605,0-32.24,4.398-43.819,13.208c-11.634,8.812-17.455,19.785-17.455,32.847c0,6.793,1.795,12.828,5.329,18.147
			c3.537,5.329,8.646,9.459,15.226,12.396c9.021,4.299,25.166,8.058,48.447,11.313c9.842,1.421,17.457,2.553,22.779,3.537
			c19.842,3.373,34.575,9.4,44.206,17.995c9.621,8.602,14.404,19.951,14.404,34.096c0,20.873-9.133,38.329-27.399,52.194
			c-18.274,13.917-41.751,20.877-70.414,20.877c-18.372,0-35.771-1.854-52.195-5.491
			C755.052,385.463,740.696,380.247,728.353,373.448L728.353,373.448z M1043.486,213.926v5.214
			c-19.737,0.032-35.097,7.26-46.112,21.748c-11.032,14.468-16.527,34.748-16.527,60.743c0,26.529,5.495,47.084,16.527,61.65
			c10.969,14.537,26.344,21.813,46.112,21.901v6.857h-0.705c-27.301,0-49.53-8.367-66.609-25.165
			c-17.128-16.751-25.658-38.61-25.658-65.578c0-25.664,8.694-46.657,26.045-62.962
			C993.873,222.153,1016.144,214.005,1043.486,213.926z"/>
	</g>
</g>
</svg>
